SplineFontDB: 3.2
FontName: ForDrawingTitles-Regular
FullName: For Drawing Titles
FamilyName: For Drawing Titles
Weight: Regular
Copyright: Karlis Kalviskis, 2024.\nThis Font Software is licensed under the SIL Open Font License.\nThis font was inspired by\n"Archistico",\n"Fredericka the Great" and\n"Gravitas One" fonts.
UComments: "This font was inspired by +IB4A-Archistico+IB0A, +IB4A-Fredericka the Great+IB0A and +IB4A-Gravitas One+IB0A fonts."
Version: 1
ItalicAngle: 0
UnderlinePosition: -120
UnderlineWidth: 112
Ascent: 1638
Descent: 410
InvalidEm: 0
sfntRevision: 0x00010000
LayerCount: 4
Layer: 0 1 "Back" 1
Layer: 1 1 "Fore" 0
Layer: 2 1 "TMP" 1
Layer: 3 1 "Thinner" 1
XUID: [1021 649 293428461 14757695]
FSType: 0
OS2Version: 3
OS2_WeightWidthSlopeOnly: 0
OS2_UseTypoMetrics: 0
CreationTime: 1305819720
ModificationTime: 1737282076
PfmFamily: 17
TTFWeight: 400
TTFWidth: 5
LineGap: 0
VLineGap: 0
OS2TypoAscent: 1938
OS2TypoAOffset: 0
OS2TypoDescent: -668
OS2TypoDOffset: 0
OS2TypoLinegap: 0
OS2WinAscent: 1938
OS2WinAOffset: 0
OS2WinDescent: 668
OS2WinDOffset: 0
HheadAscent: 1938
HheadAOffset: 0
HheadDescent: -668
HheadDOffset: 0
OS2SubXSize: 1434
OS2SubYSize: 1332
OS2SubXOff: 0
OS2SubYOff: 286
OS2SupXSize: 1434
OS2SupYSize: 1332
OS2SupXOff: 0
OS2SupYOff: 976
OS2StrikeYSize: 114
OS2StrikeYPos: 688
OS2CapHeight: 1418
OS2XHeight: 1112
OS2FamilyClass: 256
OS2Vendor: '    '
MarkAttachClasses: 1
DEI: 91125
TtTable: prep
PUSHW_1
 511
SCANCTRL
PUSHB_1
 4
SCANTYPE
EndTTInstrs
ShortTable: maxp 16
  1
  0
  238
  129
  5
  0
  0
  1
  0
  0
  0
  0
  0
  0
  0
  0
EndShort
LangName: 1033 "" "" "" "" "" "" "" "" "" "K+AQEA-rlis Kalvi+AWEA-kis" "" "" "" "This Font Software is licensed under+AAoA-the SIL Open Font License, Version 1.1. " "http://scripts.sil.org/OFL"
GaspTable: 1 65535 3 0
Encoding: UnicodeFull
Compacted: 1
UnicodeInterp: none
NameList: Adobe Glyph List
DisplaySize: -48
AntiAlias: 1
FitToEm: 0
WidthSeparation: 307
WinInfo: 0 22 9
BeginPrivate: 0
EndPrivate
Grid

StartChar: numbersign
Encoding: 35 35 3
Width: 1542
GlyphClass: 2
Flags: W
LayerCount: 4
Back
SplineSet
410 422 m 5,0,-1
 150 422 l 5,1,-1
 150 544 l 5,2,-1
 442 544 l 5,3,-1
 528 860 l 5,4,-1
 150 860 l 5,5,-1
 150 986 l 5,6,-1
 562 986 l 5,7,-1
 678 1418 l 5,8,-1
 794 1418 l 5,9,-1
 680 986 l 5,10,-1
 1054 986 l 5,11,-1
 1172 1418 l 5,12,-1
 1288 1418 l 5,13,-1
 1174 986 l 5,14,-1
 1392 986 l 5,15,-1
 1392 860 l 5,16,-1
 1140 860 l 5,17,-1
 1054 544 l 5,18,-1
 1392 544 l 5,19,-1
 1392 422 l 5,20,-1
 1022 422 l 5,21,-1
 910 0 l 5,22,-1
 790 0 l 5,23,-1
 904 422 l 5,24,-1
 528 422 l 5,25,-1
 416 0 l 5,26,-1
 296 0 l 5,27,-1
 410 422 l 5,0,-1
938 544 m 5,28,-1
 1022 860 l 5,29,-1
 646 860 l 5,30,-1
 562 544 l 5,31,-1
 938 544 l 5,28,-1
EndSplineSet
Fore
SplineSet
410 422 m 1,0,-1
 150 422 l 1,1,-1
 150 544 l 1,2,-1
 442 544 l 1,3,-1
 528 860 l 1,4,-1
 150 860 l 1,5,-1
 150 986 l 1,6,-1
 562 986 l 1,7,-1
 678 1418 l 1,8,-1
 794 1418 l 1,9,-1
 680 986 l 1,10,-1
 1054 986 l 1,11,-1
 1172 1418 l 1,12,-1
 1288 1418 l 1,13,-1
 1174 986 l 1,14,-1
 1392 986 l 1,15,-1
 1392 860 l 1,16,-1
 1140 860 l 1,17,-1
 1054 544 l 1,18,-1
 1392 544 l 1,19,-1
 1392 422 l 1,20,-1
 1022 422 l 1,21,-1
 910 0 l 1,22,-1
 790 0 l 1,23,-1
 904 422 l 1,24,-1
 528 422 l 1,25,-1
 416 0 l 1,26,-1
 296 0 l 1,27,-1
 410 422 l 1,0,-1
938 544 m 1,28,-1
 1022 860 l 1,29,-1
 646 860 l 1,30,-1
 562 544 l 1,31,-1
 938 544 l 1,28,-1
777 447 m 1,32,-1
 897 447 l 1,33,-1
 1007 529 l 1,34,-1
 1029 546 l 2,35,36
 1029 549 1029 549 1030 551 c 2,37,-1
 1058 655 l 1,38,-1
 977 595 l 1,39,-1
 962 538 l 2,40,41
 956 519 956 519 938 519 c 2,42,-1
 874 519 l 1,43,-1
 777 447 l 1,32,-1
765 447 m 1,44,-1
 862 519 l 1,45,-1
 794 519 l 1,46,-1
 790 516 l 1,47,-1
 706 447 l 1,48,-1
 765 447 l 1,44,-1
694 447 m 1,49,-1
 780 519 l 1,50,-1
 715 519 l 1,51,-1
 619 447 l 1,52,-1
 694 447 l 1,49,-1
607 447 m 1,53,-1
 703 519 l 1,54,-1
 637 519 l 1,55,-1
 542 447 l 1,56,-1
 607 447 l 1,53,-1
389 25 m 1,57,-1
 399 32 l 1,58,-1
 417 99 l 1,59,-1
 366 63 l 1,60,-1
 332 37 l 1,61,-1
 329 25 l 1,62,-1
 389 25 l 1,57,-1
360 139 m 1,63,-1
 335 48 l 1,64,-1
 362 69 l 1,65,-1
 420 110 l 1,66,-1
 444 201 l 1,67,-1
 360 139 l 1,63,-1
363 151 m 1,68,-1
 447 213 l 1,69,-1
 461 265 l 1,70,-1
 379 210 l 1,71,-1
 363 151 l 1,68,-1
382 221 m 1,72,-1
 464 276 l 1,73,-1
 482 345 l 1,74,-1
 398 282 l 1,75,-1
 382 221 l 1,72,-1
401 294 m 1,76,-1
 485 356 l 1,77,-1
 501 416 l 1,78,-1
 417 353 l 1,79,-1
 401 294 l 1,76,-1
420 365 m 1,80,-1
 504 428 l 2,81,82
 510 447 510 447 528 447 c 2,83,-1
 530 447 l 1,84,-1
 625 519 l 1,85,-1
 569 519 l 1,86,-1
 435 418 l 2,87,88
 435 416 435 416 434 415 c 2,89,-1
 420 365 l 1,80,-1
435 428 m 1,90,-1
 558 519 l 1,91,92
 550 520 550 520 544 526 c 0,93,94
 541 529 541 529 539 533 c 1,95,-1
 417 446 l 1,96,97
 424 444 424 444 428 440 c 0,98,99
 434 434 434 434 435 428 c 1,90,-1
405 447 m 1,100,-1
 537 540 l 1,101,102
 537 546 537 546 538 550 c 2,103,-1
 554 612 l 1,104,-1
 471 555 l 1,105,-1
 466 537 l 2,106,107
 460 519 460 519 442 519 c 2,108,-1
 419 519 l 1,109,-1
 366 483 l 1,110,-1
 318 447 l 1,111,-1
 405 447 l 1,100,-1
406 519 m 1,112,-1
 321 519 l 1,113,-1
 217 447 l 1,114,-1
 306 447 l 1,115,-1
 362 489 l 1,116,-1
 406 519 l 1,112,-1
309 519 m 1,117,-1
 218 519 l 1,118,119
 197 505 197 505 175 489 c 1,120,-1
 175 447 l 1,121,-1
 204 447 l 1,122,-1
 309 519 l 1,117,-1
205 519 m 1,123,-1
 175 519 l 1,124,-1
 175 498 l 1,125,-1
 205 519 l 1,123,-1
474 565 m 1,126,-1
 557 622 l 1,127,-1
 580 707 l 1,128,-1
 495 643 l 1,129,-1
 474 565 l 1,126,-1
498 654 m 1,130,131
 540 686 540 686 583 719 c 1,132,-1
 602 790 l 1,133,134
 564 761 564 761 518 728 c 1,135,-1
 498 654 l 1,130,131
605 801 m 1,136,-1
 622 866 l 2,137,138
 628 885 628 885 646 885 c 2,139,-1
 716 885 l 1,140,-1
 787 939 l 1,141,-1
 819 961 l 1,142,-1
 717 961 l 1,143,-1
 662 923 l 1,144,-1
 622 883 l 1,145,-1
 616 889 l 1,146,147
 654 927 654 927 657 929 c 2,148,-1
 704 961 l 1,149,-1
 680 961 l 2,150,151
 670 961 670 961 662.5 968.5 c 128,-1,152
 655 976 655 976 655 982 c 128,-1,153
 655 988 655 988 656 992 c 2,154,-1
 656 994 l 1,155,-1
 642 983 l 1,156,157
 562 867 562 867 552 855 c 0,158,159
 552 854 552 854 552 853 c 2,160,-1
 521 740 l 1,161,-1
 602 799 l 1,162,-1
 605 801 l 1,136,-1
420 961 m 1,163,-1
 342 961 l 1,164,-1
 247 885 l 1,165,-1
 353 885 l 1,166,-1
 420 961 l 1,163,-1
431 961 m 1,167,-1
 364 885 l 1,168,-1
 450 885 l 1,169,170
 499 923 499 923 547 961 c 1,171,-1
 431 961 l 1,167,-1
330 961 m 1,172,-1
 241 961 l 1,173,-1
 175 914 l 1,174,-1
 175 885 l 1,175,-1
 235 885 l 1,176,177
 283 923 283 923 330 961 c 1,172,-1
229 961 m 1,178,-1
 175 961 l 1,179,-1
 175 923 l 1,180,181
 202 942 202 942 229 961 c 1,178,-1
703 1393 m 1,182,-1
 697 1393 l 1,183,-1
 694 1383 l 1,184,-1
 703 1393 l 1,182,-1
714 1393 m 1,185,-1
 689 1364 l 1,186,-1
 665 1275 l 1,187,-1
 673 1282 l 1,188,189
 720 1334 720 1334 757 1373 c 1,190,-1
 762 1393 l 1,191,-1
 714 1393 l 1,185,-1
660 1006 m 1,192,-1
 676 1070 l 1,193,194
 660 1054 660 1054 644 1038 c 0,195,196
 601 997 601 997 587 984 c 1,197,-1
 586 979 l 2,198,199
 580 961 580 961 562 961 c 2,200,-1
 559 961 l 1,201,-1
 461 885 l 1,202,-1
 528 885 l 2,203,204
 538 886 538 886 546 878 c 0,205,206
 551 873 551 873 552 868 c 1,207,208
 636 988 636 988 637 989 c 2,209,-1
 660 1006 l 1,192,-1
681 1086 m 1,210,-1
 713 1209 l 1,211,-1
 627 1130 l 1,212,-1
 591 999 l 1,213,-1
 681 1086 l 1,210,-1
717 1223 m 1,214,-1
 751 1352 l 1,215,-1
 679 1276 l 2,216,217
 670 1267 670 1267 661 1258 c 1,218,-1
 630 1144 l 1,219,-1
 717 1223 l 1,214,-1
974 961 m 1,220,-1
 913 961 l 1,221,-1
 813 885 l 1,222,-1
 900 885 l 1,223,-1
 931 909 l 1,224,-1
 974 961 l 1,220,-1
913 885 m 1,225,-1
 988 885 l 1,226,-1
 1157 1019 l 1,227,-1
 1177 1093 l 1,228,-1
 1085 1006 l 1,229,-1
 1078 979 l 2,230,231
 1072 961 1072 961 1054 961 c 2,232,-1
 985 961 l 1,233,-1
 982 958 l 1,234,-1
 936 903 l 1,235,-1
 913 885 l 1,225,-1
901 961 m 1,236,-1
 832 961 l 1,237,-1
 791 933 l 1,238,-1
 728 885 l 1,239,-1
 801 885 l 1,240,241
 851 923 851 923 901 961 c 1,236,-1
1237 1393 m 1,242,-1
 1203 1393 l 1,243,-1
 1186 1375 l 1,244,-1
 1171 1320 l 1,245,-1
 1191 1344 l 2,246,247
 1214 1369 1214 1369 1237 1393 c 1,242,-1
1166 1300 m 1,248,-1
 1149 1239 l 1,249,250
 1209 1302 1209 1302 1212 1304 c 2,251,-1
 1238 1324 l 1,252,-1
 1256 1393 l 1,253,-1
 1250 1393 l 1,254,-1
 1232 1374 l 1,255,-1
 1197 1338 l 2,256,257
 1182 1319 1182 1319 1166 1300 c 1,248,-1
1192 1393 m 1,258,-1
 1191 1393 l 1,259,-1
 1191 1392 l 1,260,-1
 1192 1393 l 1,258,-1
1181 1108 m 1,261,-1
 1188 1134 l 1,262,263
 1187 1133 1187 1133 1186 1133 c 2,264,-1
 1103 1070 l 1,265,-1
 1090 1022 l 1,266,-1
 1181 1108 l 1,261,-1
1154 1008 m 1,267,-1
 1000 885 l 1,268,-1
 1022 885 l 2,269,270
 1031 885 1031 885 1038 879 c 1,271,-1
 1157 968 l 1,272,273
 1156 968 1156 968 1156 968 c 0,274,275
 1148 976 1148 976 1148.5 982 c 128,-1,276
 1149 988 1149 988 1150 992 c 2,277,-1
 1154 1008 l 1,267,-1
1192 1149 m 2,278,-1
 1208 1210 l 1,279,-1
 1119 1131 l 1,280,-1
 1106 1082 l 1,281,-1
 1181 1139 l 2,282,283
 1187 1144 1187 1144 1192 1149 c 2,278,-1
1211 1223 m 1,284,-1
 1234 1311 l 1,285,-1
 1217 1298 l 1,286,-1
 1144 1221 l 1,287,-1
 1123 1145 l 1,288,-1
 1211 1223 l 1,284,-1
1211 961 m 1,289,-1
 1174 961 l 2,290,291
 1168 961 1168 961 1164 963 c 1,292,-1
 1043 873 l 1,293,294
 1047 868 1047 868 1047 864 c 0,295,296
 1047 858 1047 858 1046 854 c 2,297,-1
 1040 832 l 1,298,-1
 1211 961 l 1,289,-1
1223 961 m 1,299,-1
 1037 821 l 1,300,-1
 1020 756 l 1,301,-1
 1103 818 l 1,302,-1
 1116 867 l 2,303,304
 1122 885 1122 885 1140 885 c 2,305,-1
 1193 885 l 1,306,-1
 1294 961 l 1,307,-1
 1223 961 l 1,299,-1
1358 885 m 1,308,-1
 1367 892 l 1,309,-1
 1367 947 l 1,310,-1
 1275 885 l 1,311,-1
 1358 885 l 1,308,-1
1263 885 m 1,312,-1
 1367 956 l 1,313,-1
 1367 961 l 1,314,-1
 1306 961 l 1,315,-1
 1205 885 l 1,316,-1
 1263 885 l 1,312,-1
1061 666 m 1,317,-1
 1084 750 l 1,318,-1
 1046 723 l 1,319,-1
 1002 687 l 1,320,-1
 980 606 l 1,321,-1
 1061 666 l 1,317,-1
908 447 m 1,322,323
 916 446 916 446 922 440 c 0,324,325
 930 432 930 432 929.5 425.5 c 128,-1,326
 929 419 929 419 928 415 c 2,327,-1
 928 414 l 1,328,329
 988 458 988 458 990 460 c 0,330,331
 996 464 996 464 1014 477 c 0,332,333
 1045 500 1045 500 1070 519 c 1,334,-1
 1054 519 l 2,335,336
 1044 518 1044 518 1036 526 c 0,337,338
 1030 532 1030 532 1029 537 c 1,339,-1
 1011 523 l 2,340,341
 971 494 971 494 908 447 c 1,322,323
1087 761 m 1,342,-1
 1100 806 l 1,343,-1
 1017 745 l 1,344,-1
 1005 699 l 1,345,-1
 1042 729 l 2,346,347
 1066 746 1066 746 1087 761 c 1,342,-1
925 403 m 1,348,-1
 911 352 l 1,349,-1
 994 413 l 1,350,-1
 998 428 l 2,351,352
 1004 447 1004 447 1022 447 c 2,353,-1
 1040 447 l 1,354,-1
 1137 519 l 1,355,-1
 1082 519 l 1,356,-1
 989 449 l 2,357,358
 956 426 956 426 925 403 c 1,348,-1
1352 447 m 1,359,-1
 1367 447 l 1,360,-1
 1367 458 l 1,361,-1
 1352 447 l 1,359,-1
1340 447 m 1,362,-1
 1367 467 l 1,363,-1
 1367 490 l 1,364,-1
 1308 447 l 1,365,-1
 1340 447 l 1,362,-1
1296 447 m 1,366,-1
 1367 499 l 1,367,-1
 1367 519 l 1,368,-1
 1326 519 l 1,369,-1
 1228 447 l 1,370,-1
 1296 447 l 1,366,-1
1216 447 m 1,371,-1
 1314 519 l 1,372,-1
 1260 519 l 1,373,-1
 1163 447 l 1,374,-1
 1216 447 l 1,371,-1
1151 447 m 1,375,-1
 1248 519 l 1,376,-1
 1150 519 l 1,377,-1
 1053 447 l 1,378,-1
 1151 447 l 1,375,-1
825 33 m 1,379,-1
 912 104 l 1,380,-1
 918 126 l 1,381,-1
 833 64 l 1,382,-1
 825 33 l 1,379,-1
826 25 m 1,383,-1
 891 25 l 1,384,-1
 909 92 l 1,385,-1
 826 25 l 1,383,-1
836 75 m 1,386,-1
 921 137 l 1,387,-1
 929 169 l 1,388,-1
 845 107 l 1,389,-1
 836 75 l 1,386,-1
848 118 m 1,390,-1
 932 180 l 1,391,-1
 949 242 l 1,392,-1
 865 181 l 1,393,-1
 848 118 l 1,390,-1
868 192 m 1,394,-1
 952 253 l 1,395,-1
 964 299 l 1,396,-1
 880 237 l 1,397,-1
 868 192 l 1,394,-1
883 249 m 1,398,-1
 967 311 l 1,399,-1
 991 401 l 1,400,-1
 908 340 l 1,401,-1
 883 249 l 1,398,-1
EndSplineSet
Validated: 3073
Layer: 3
SplineSet
554 538 m 5,0,-1
 943 538 l 5,1,-1
 1030 866 l 5,2,-1
 641 866 l 5,3,-1
 554 538 l 5,0,-1
905 6 m 5,4,-1
 798 6 l 5,5,-1
 912 428 l 5,6,-1
 523 428 l 5,7,-1
 411 6 l 5,8,-1
 304 6 l 5,9,-1
 418 428 l 5,10,-1
 156 428 l 5,11,-1
 156 538 l 5,12,-1
 447 538 l 5,13,-1
 536 866 l 5,14,-1
 156 866 l 5,15,-1
 156 980 l 5,16,-1
 567 980 l 5,17,-1
 683 1412 l 5,18,-1
 786 1412 l 5,19,-1
 672 980 l 5,20,-1
 1059 980 l 5,21,-1
 1177 1412 l 5,22,-1
 1280 1412 l 5,23,-1
 1166 980 l 5,24,-1
 1386 980 l 5,25,-1
 1386 866 l 5,26,-1
 1135 866 l 5,27,-1
 1046 538 l 5,28,-1
 1386 538 l 5,29,-1
 1386 428 l 5,30,-1
 1017 428 l 5,31,-1
 905 6 l 5,4,-1
EndSplineSet
EndChar

StartChar: percent
Encoding: 37 37 5
Width: 1282
GlyphClass: 2
Flags: W
LayerCount: 4
Back
SplineSet
348 718 m 260,0,1
 270 718 270 718 217 751 c 132,-1,2
 164 784 164 784 131 838 c 132,-1,3
 98 892 98 892 84 958 c 132,-1,4
 70 1024 70 1024 70 1088 c 260,5,6
 70 1152 70 1152 84 1217 c 132,-1,7
 98 1282 98 1282 131 1335 c 132,-1,8
 164 1388 164 1388 217 1421 c 132,-1,9
 270 1454 270 1454 348 1454 c 260,10,11
 426 1454 426 1454 480 1421 c 132,-1,12
 534 1388 534 1388 567 1335 c 132,-1,13
 600 1282 600 1282 614 1216 c 132,-1,14
 628 1150 628 1150 628 1088 c 260,15,16
 628 1024 628 1024 614 958 c 132,-1,17
 600 892 600 892 567 838 c 132,-1,18
 534 784 534 784 480 751 c 132,-1,19
 426 718 426 718 348 718 c 260,0,1
1084 1412 m 5,20,-1
 1138 1332 l 5,21,-1
 208 22 l 5,22,-1
 154 100 l 5,23,-1
 1084 1412 l 5,20,-1
348 786 m 132,-1,25
 378 786 378 786 395 812 c 132,-1,26
 412 838 412 838 419 880 c 132,-1,27
 426 922 426 922 427 975 c 132,-1,28
 428 1028 428 1028 428 1088 c 4,29,30
 428 1146 428 1146 427 1199 c 132,-1,31
 426 1252 426 1252 419 1294 c 132,-1,32
 412 1336 412 1336 395 1361 c 132,-1,33
 378 1386 378 1386 348 1386 c 132,-1,35
 318 1386 318 1386 302 1361 c 132,-1,36
 286 1336 286 1336 278 1294 c 132,-1,37
 270 1252 270 1252 269 1198 c 132,-1,38
 268 1144 268 1144 268 1088 c 4,39,40
 268 1030 268 1030 269 976 c 132,-1,41
 270 922 270 922 278 880 c 132,-1,42
 286 838 286 838 302 812 c 132,-1,43
 318 786 318 786 348 786 c 132,-1,25
654 332 m 260,44,45
 654 396 654 396 668 461 c 132,-1,46
 682 526 682 526 715 579 c 132,-1,47
 748 632 748 632 801 665 c 132,-1,48
 854 698 854 698 932 698 c 260,49,50
 1010 698 1010 698 1063 665 c 132,-1,51
 1116 632 1116 632 1150 579 c 132,-1,52
 1184 526 1184 526 1198 461 c 132,-1,53
 1212 396 1212 396 1212 332 c 260,54,55
 1212 268 1212 268 1198 202 c 132,-1,56
 1184 136 1184 136 1150 82 c 132,-1,57
 1116 28 1116 28 1063 -5 c 132,-1,58
 1010 -38 1010 -38 932 -38 c 260,59,60
 854 -38 854 -38 801 -5 c 132,-1,61
 748 28 748 28 715 82 c 132,-1,62
 682 136 682 136 668 202 c 132,-1,63
 654 268 654 268 654 332 c 260,44,45
852 332 m 132,-1,65
 852 274 852 274 853 220 c 132,-1,66
 854 166 854 166 861 124 c 132,-1,67
 868 82 868 82 885 56 c 132,-1,68
 902 30 902 30 932 30 c 132,-1,70
 962 30 962 30 979 56 c 132,-1,71
 996 82 996 82 1003 124 c 132,-1,72
 1010 166 1010 166 1012 219 c 132,-1,73
 1014 272 1014 272 1014 332 c 4,74,75
 1014 390 1014 390 1012 443 c 132,-1,76
 1010 496 1010 496 1003 538 c 132,-1,77
 996 580 996 580 979 605 c 132,-1,78
 962 630 962 630 932 630 c 132,-1,80
 902 630 902 630 885 605 c 132,-1,81
 868 580 868 580 861 538 c 132,-1,82
 854 496 854 496 853 443 c 132,-1,83
 852 390 852 390 852 332 c 132,-1,65
EndSplineSet
Fore
SplineSet
348 718 m 128,-1,1
 270 718 270 718 217 751 c 128,-1,2
 164 784 164 784 131 838 c 128,-1,3
 98 892 98 892 84 958 c 128,-1,4
 70 1024 70 1024 70 1088 c 128,-1,5
 70 1152 70 1152 84 1217 c 128,-1,6
 98 1282 98 1282 131 1335 c 128,-1,7
 164 1388 164 1388 217 1421 c 128,-1,8
 270 1454 270 1454 348 1454 c 128,-1,9
 426 1454 426 1454 480 1421 c 128,-1,10
 534 1388 534 1388 567 1335 c 0,11,12
 628 1237 628 1237 628 1088 c 0,13,14
 628 841 628 841 480 751 c 0,15,0
 426 718 426 718 348 718 c 128,-1,1
1084 1412 m 1,16,-1
 1138 1332 l 1,17,-1
 208 22 l 1,18,-1
 154 100 l 1,19,-1
 1084 1412 l 1,16,-1
348 786 m 128,-1,21
 378 786 378 786 395 812 c 128,-1,22
 412 838 412 838 419 880 c 0,23,24
 428 934 428 934 428 1040 c 128,-1,25
 428 1146 428 1146 427 1199 c 128,-1,26
 426 1252 426 1252 419 1294 c 128,-1,27
 412 1336 412 1336 395 1361 c 128,-1,28
 378 1386 378 1386 348 1386 c 128,-1,29
 318 1386 318 1386 302 1361 c 128,-1,30
 286 1336 286 1336 278 1294 c 0,31,32
 268 1242 268 1242 268 1136 c 128,-1,33
 268 1030 268 1030 269 976 c 128,-1,34
 270 922 270 922 278 880 c 128,-1,35
 286 838 286 838 302 812 c 128,-1,20
 318 786 318 786 348 786 c 128,-1,21
654 332 m 128,-1,37
 654 396 654 396 668 461 c 128,-1,38
 682 526 682 526 715 579 c 128,-1,39
 748 632 748 632 801 665 c 128,-1,40
 854 698 854 698 932 698 c 128,-1,41
 1010 698 1010 698 1063 665 c 128,-1,42
 1116 632 1116 632 1150 579 c 128,-1,43
 1184 526 1184 526 1198 461 c 128,-1,44
 1212 396 1212 396 1212 332 c 128,-1,45
 1212 268 1212 268 1198 202 c 128,-1,46
 1184 136 1184 136 1150 82 c 128,-1,47
 1116 28 1116 28 1063 -5 c 128,-1,48
 1010 -38 1010 -38 932 -38 c 128,-1,49
 854 -38 854 -38 801 -5 c 128,-1,50
 748 28 748 28 715 82 c 128,-1,51
 682 136 682 136 668 202 c 128,-1,36
 654 268 654 268 654 332 c 128,-1,37
852 332 m 128,-1,53
 852 274 852 274 853 220 c 128,-1,54
 854 166 854 166 861 124 c 128,-1,55
 868 82 868 82 885 56 c 128,-1,56
 902 30 902 30 932 30 c 128,-1,57
 962 30 962 30 979 56 c 128,-1,58
 996 82 996 82 1003 124 c 0,59,60
 1014 190 1014 190 1014 290 c 128,-1,61
 1014 390 1014 390 1012 443 c 128,-1,62
 1010 496 1010 496 1003 538 c 128,-1,63
 996 580 996 580 979 605 c 128,-1,64
 962 630 962 630 932 630 c 128,-1,65
 902 630 902 630 885 605 c 128,-1,66
 868 580 868 580 861 538 c 128,-1,67
 854 496 854 496 853 443 c 128,-1,52
 852 390 852 390 852 332 c 128,-1,53
830 486 m 1,68,-1
 680 376 l 1,69,70
 679 355 679 355 679 332 c 0,71,72
 679 313 679 313 680 294 c 1,73,-1
 827 396 l 1,74,75
 827 421 827 421 828 444 c 0,76,77
 829 466 829 466 830 486 c 1,68,-1
830 495 m 1,78,79
 832 529 832 529 838 555 c 1,80,-1
 790 516 l 1,81,-1
 694 436 l 1,82,-1
 687 431 l 1,83,84
 683 409 683 409 681 386 c 1,85,-1
 830 495 l 1,78,79
841 567 m 1,86,87
 848 596 848 596 859 612 c 0,88,89
 888 654 888 654 932 655 c 0,90,91
 941 655 941 655 948 654 c 1,92,-1
 971 672 l 1,93,94
 954 674 954 674 934 674 c 2,95,-1
 932 674 l 2,96,97
 927 674 927 674 922 674 c 2,98,-1
 711 516 l 1,99,100
 697 482 697 482 689 443 c 1,101,-1
 784 522 l 1,102,-1
 841 567 l 1,86,87
958 652 m 1,103,104
 984 645 984 645 998 622 c 0,105,106
 999 621 999 621 999 620 c 1,107,-1
 1040 650 l 1,108,109
 1014 664 1014 664 981 670 c 1,110,-1
 958 652 l 1,103,104
909 673 m 1,111,112
 854 669 854 669 814 644 c 0,113,114
 766 614 766 614 736 565 c 0,115,116
 726 548 726 548 717 530 c 1,117,-1
 909 673 l 1,111,112
1003 614 m 1,118,119
 1021 584 1021 584 1027 545 c 1,120,-1
 1102 601 l 1,121,122
 1079 626 1079 626 1050 644 c 0,123,124
 1048 645 1048 645 1047 646 c 2,125,-1
 1003 614 l 1,118,119
1029 536 m 1,126,127
 1032 515 1032 515 1034 492 c 1,128,129
 1095 538 1095 538 1131 564 c 1,130,131
 1120 581 1120 581 1107 596 c 1,132,-1
 1029 536 l 1,126,127
1039 364 m 1,133,-1
 1173 463 l 1,134,135
 1165 494 1165 494 1153 521 c 1,136,-1
 1037 436 l 1,137,138
 1039 401 1039 401 1039 364 c 1,133,-1
1039 355 m 1,139,140
 1039 343 1039 343 1039 331 c 0,141,142
 1039 324 1039 324 1039 317 c 1,143,-1
 1181 421 l 1,144,145
 1178 439 1178 439 1174 456 c 1,146,-1
 1039 355 l 1,139,140
1037 445 m 1,147,-1
 1150 528 l 1,148,149
 1143 544 1143 544 1135 558 c 1,150,-1
 1035 483 l 1,151,152
 1036 465 1036 465 1037 445 c 1,147,-1
1037 223 m 1,153,-1
 1187 334 l 1,154,155
 1187 346 1187 346 1186 358 c 1,156,-1
 1038 249 l 1,157,158
 1037 236 1037 236 1037 223 c 1,153,-1
1037 214 m 1,159,160
 1037 205 1037 205 1036 196 c 1,161,-1
 1186 298 l 1,162,163
 1187 312 1187 312 1187 325 c 1,164,-1
 1037 214 l 1,159,160
1038 258 m 1,165,-1
 1186 366 l 1,166,167
 1185 390 1185 390 1182 413 c 1,168,-1
 1039 308 l 1,169,170
 1039 283 1039 283 1038 258 c 1,165,-1
1178 229 m 1,171,172
 1183 259 1183 259 1185 288 c 1,173,-1
 1035 187 l 1,174,175
 1032 147 1032 147 1027 116 c 1,176,-1
 1036 124 l 1,177,-1
 1178 229 l 1,171,172
1025 105 m 1,178,179
 1017 69 1017 69 1004 49 c 0,180,181
 976 5 976 5 932 5 c 0,182,183
 918 5 918 5 907 8 c 1,184,-1
 884 -10 l 1,185,186
 905 -14 905 -14 930 -14 c 2,187,-1
 932 -14 l 2,188,189
 952 -14 952 -14 970 -12 c 1,190,-1
 1037 39 l 1,191,-1
 1136 108 l 1,192,193
 1162 152 1162 152 1174 208 c 0,194,195
 1175 213 1175 213 1176 219 c 1,196,-1
 1040 118 l 1,197,-1
 1025 105 l 1,178,179
985 -9 m 1,198,199
 1021 -2 1021 -2 1050 16 c 0,200,201
 1096 45 1096 45 1127 93 c 1,202,203
 1076 58 1076 58 1041 33 c 2,204,-1
 985 -9 l 1,198,199
899 11 m 1,205,206
 879 18 879 18 866 38 c 0,207,208
 862 44 862 44 858 51 c 1,209,-1
 815 16 l 1,210,211
 842 -1 842 -1 875 -9 c 1,212,-1
 899 11 l 1,205,206
855 58 m 1,213,214
 851 66 851 66 848 74 c 1,215,-1
 791 32 l 1,216,217
 799 25 799 25 808 20 c 1,218,-1
 855 58 l 1,213,214
845 82 m 1,219,220
 842 92 842 92 839 103 c 1,221,-1
 770 51 l 1,222,223
 777 43 777 43 785 37 c 1,224,-1
 845 82 l 1,219,220
838 111 m 2,225,226
 836 115 836 115 836 118 c 0,227,228
 833 137 833 137 832 156 c 1,229,-1
 739 89 l 1,230,231
 751 72 751 72 765 57 c 1,232,-1
 838 111 l 2,225,226
831 165 m 1,233,234
 830 182 830 182 829 199 c 1,235,-1
 721 120 l 1,236,237
 727 107 727 107 735 95 c 1,238,-1
 831 165 l 1,233,234
828 208 m 1,239,240
 828 214 828 214 828 219 c 0,241,242
 827 249 827 249 827 280 c 1,243,-1
 697 184 l 1,244,245
 706 153 706 153 718 126 c 1,246,-1
 828 208 l 1,239,240
827 290 m 1,247,248
 827 311 827 311 827 332 c 1,249,250
 751 277 751 277 687 231 c 1,251,252
 690 211 690 211 695 192 c 1,253,-1
 827 290 l 1,247,248
827 341 m 1,254,255
 827 364 827 364 827 387 c 1,256,-1
 681 286 l 1,257,258
 683 262 683 262 686 239 c 1,259,260
 767 298 767 298 827 341 c 1,254,255
308 772 m 1,261,-1
 276 752 l 1,262,263
 307 743 307 743 344 743 c 0,264,265
 346 743 346 743 348 743 c 0,266,267
 368 743 368 743 385 745 c 1,268,-1
 402 759 l 1,269,-1
 546 859 l 1,270,271
 555 872 555 872 563 883 c 0,272,273
 580 920 580 920 590 964 c 0,274,275
 593 977 593 977 595 991 c 1,276,277
 583 980 583 980 581 978 c 2,278,-1
 445 872 l 1,279,280
 436 826 436 826 414 794 c 0,281,282
 393 761 393 761 350 761 c 0,283,284
 349 761 349 761 348 761 c 0,285,286
 326 761 326 761 308 772 c 1,261,-1
301 777 m 1,287,288
 286 789 286 789 275 809 c 1,289,-1
 236 783 l 1,290,-1
 224 776 l 1,291,292
 227 774 227 774 230 772 c 0,293,294
 247 761 247 761 267 755 c 1,295,-1
 301 777 l 1,287,288
272 816 m 1,296,297
 258 845 258 845 251 888 c 1,298,-1
 171 824 l 1,299,300
 192 799 192 799 218 780 c 1,301,-1
 232 789 l 2,302,303
 252 803 252 803 272 816 c 1,296,297
250 897 m 1,304,305
 246 927 246 927 244 963 c 1,306,-1
 133 884 l 1,307,308
 147 854 147 854 166 829 c 1,309,310
 208 863 208 863 250 897 c 1,304,305
244 972 m 0,311,312
 244 974 244 974 244 976 c 0,313,314
 243 1025 243 1025 243 1074 c 1,315,316
 174 1023 174 1023 105 972 c 1,317,318
 114 928 114 928 130 891 c 1,319,320
 187 932 187 932 244 972 c 0,311,312
243 1083 m 2,321,322
 243 1085 243 1085 243 1087 c 0,323,324
 243 1113 243 1113 243 1146 c 1,325,-1
 221 1131 l 1,326,-1
 97 1032 l 1,327,328
 99 1005 99 1005 104 981 c 1,329,-1
 242 1082 l 1,330,-1
 243 1083 l 2,321,322
243 1154 m 1,331,332
 243 1166 243 1166 243 1178 c 0,333,334
 242 1194 242 1194 244 1231 c 0,335,336
 245 1254 245 1254 246 1259 c 1,337,-1
 186 1211 l 2,338,339
 155 1186 155 1186 98 1141 c 1,340,341
 95 1114 95 1114 95 1088 c 0,342,343
 95 1064 95 1064 97 1042 c 1,344,-1
 217 1137 l 2,345,346
 230 1145 230 1145 243 1154 c 1,331,332
247 1269 m 1,347,348
 250 1295 250 1295 255 1316 c 1,349,-1
 106 1199 l 1,350,351
 101 1175 101 1175 99 1151 c 1,352,-1
 182 1217 l 1,353,-1
 247 1269 l 1,347,348
258 1329 m 1,354,355
 265 1350 265 1350 275 1366 c 0,356,357
 301 1407 301 1407 340 1411 c 1,358,359
 348 1422 348 1422 355 1430 c 1,360,361
 353 1430 353 1430 351 1430 c 0,362,363
 350 1430 350 1430 348 1430 c 0,364,365
 300 1430 300 1430 264 1417 c 1,366,-1
 147 1311 l 2,367,368
 146 1310 146 1310 145 1309 c 0,369,370
 120 1264 120 1264 108 1210 c 0,371,372
 108 1210 108 1210 258 1329 c 1,354,355
240 1407 m 1,373,374
 234 1404 234 1404 229 1400 c 0,375,376
 189 1375 189 1375 162 1336 c 1,377,-1
 240 1407 l 1,373,374
405 1389 m 1,378,379
 422 1402 422 1402 438 1415 c 1,380,381
 406 1428 406 1428 365 1430 c 1,382,-1
 351 1411 l 1,383,384
 385 1410 385 1410 405 1389 c 1,378,379
410 1384 m 1,385,386
 412 1381 412 1381 414 1378 c 0,387,388
 432 1352 432 1352 441 1317 c 1,389,-1
 496 1380 l 1,390,391
 483 1391 483 1391 468 1400 c 0,392,393
 457 1407 457 1407 446 1412 c 1,394,-1
 410 1384 l 1,385,386
443 1307 m 1,395,396
 450 1276 450 1276 451 1239 c 1,397,-1
 491 1267 l 1,398,-1
 547 1323 l 1,399,400
 528 1352 528 1352 503 1375 c 1,401,-1
 443 1307 l 1,395,396
453 1148 m 1,402,-1
 578 1258 l 1,403,404
 567 1289 567 1289 552 1316 c 1,405,406
 498 1263 498 1263 496 1261 c 2,407,-1
 452 1229 l 1,408,409
 453 1184 453 1184 453 1148 c 1,402,-1
453 1137 m 1,410,411
 453 1110 453 1110 453 1088 c 2,412,-1
 453 1072 l 1,413,-1
 593 1205 l 1,414,415
 588 1228 588 1228 581 1250 c 1,416,-1
 453 1137 l 1,410,411
602 1119 m 1,417,418
 600 1159 600 1159 595 1194 c 1,419,420
 507 1109 507 1109 453 1058 c 1,421,-1
 453 1047 l 2,422,423
 453 1038 453 1038 453 1023 c 0,424,425
 453 1011 453 1011 453 997 c 1,426,427
 485 1028 485 1028 544 1066 c 1,428,-1
 602 1119 l 1,417,418
453 982 m 1,429,430
 453 963 453 963 452 940 c 0,431,432
 451 909 451 909 447 883 c 1,433,434
 512 933 512 933 576 984 c 1,435,-1
 597 1004 l 1,436,437
 603 1046 603 1046 603 1087 c 0,438,439
 603 1089 603 1089 603 1090 c 0,440,441
 603 1100 603 1100 603 1109 c 1,442,-1
 549 1060 l 1,443,-1
 453 982 l 1,429,430
399 747 m 1,444,445
 438 754 438 754 468 772 c 0,446,447
 515 800 515 800 544 848 c 1,448,-1
 406 753 l 1,449,-1
 399 747 l 1,444,445
1084 1367 m 1,450,-1
 1083 1368 l 1,451,-1
 1078 1361 l 1,452,-1
 1084 1367 l 1,450,-1
1049 1320 m 1,453,-1
 909 1122 l 1,454,-1
 911 1124 l 1,455,-1
 1056 1259 l 1,456,-1
 1108 1332 l 1,457,-1
 1089 1360 l 1,458,-1
 1082 1353 l 1,459,-1
 1049 1320 l 1,453,-1
192 90 m 1,460,461
 231 118 231 118 258 137 c 1,462,-1
 320 224 l 1,463,-1
 219 149 l 1,464,-1
 185 100 l 1,465,-1
 192 90 l 1,460,461
196 83 m 1,466,-1
 208 66 l 1,467,-1
 245 118 l 1,468,-1
 196 83 l 1,466,-1
233 168 m 1,469,-1
 334 243 l 1,470,-1
 406 345 l 1,471,-1
 303 267 l 1,472,-1
 233 168 l 1,469,-1
317 287 m 1,473,-1
 420 364 l 1,474,-1
 485 456 l 1,475,-1
 383 380 l 1,476,-1
 317 287 l 1,473,-1
397 399 m 1,477,-1
 499 476 l 1,478,-1
 541 534 l 1,479,-1
 444 465 l 1,480,-1
 397 399 l 1,477,-1
456 483 m 1,481,-1
 553 552 l 1,482,-1
 644 679 l 1,483,-1
 571 623 l 1,484,-1
 541 602 l 1,485,-1
 456 483 l 1,481,-1
658 699 m 1,486,-1
 763 847 l 1,487,-1
 656 766 l 1,488,-1
 553 619 l 1,489,-1
 567 629 l 1,490,-1
 658 699 l 1,486,-1
670 785 m 1,491,492
 723 826 723 826 777 867 c 1,493,-1
 856 978 l 1,494,-1
 791 933 l 1,495,-1
 756 907 l 1,496,-1
 670 785 l 1,491,492
869 996 m 1,497,-1
 1032 1225 l 1,498,-1
 917 1118 l 1,499,-1
 891 1097 l 1,500,-1
 770 926 l 1,501,-1
 787 939 l 1,502,-1
 869 996 l 1,497,-1
EndSplineSet
Validated: 3073
Layer: 3
SplineSet
846 332 m 132,-1,0
 846 274 846 274 847 219.5 c 132,-1,1
 848 165 848 165 855 122.5 c 132,-1,2
 862 80 862 80 880.5 52 c 132,-1,3
 899 24 899 24 932 24 c 132,-1,4
 965 24 965 24 984 53 c 4,5,6
 1002 80 1002 80 1009 123 c 132,-1,7
 1016 166 1016 166 1018 219 c 4,8,9
 1022 331 1022 331 1018 443 c 4,10,11
 1016 497 1016 497 1009 539.5 c 132,-1,12
 1002 582 1002 582 983.5 609 c 132,-1,13
 965 636 965 636 932 636 c 132,-1,14
 899 636 899 636 880 608 c 4,15,16
 862 582 862 582 855 539.5 c 132,-1,17
 848 497 848 497 847 443.5 c 132,-1,18
 846 390 846 390 846 332 c 132,-1,0
660 332 m 132,-1,18
 660 395 660 395 674 459.5 c 132,-1,19
 688 524 688 524 720 576 c 132,-1,20
 752 628 752 628 804 660 c 132,-1,21
 856 692 856 692 932 692 c 132,-1,22
 1008 692 1008 692 1060 660 c 132,-1,23
 1112 628 1112 628 1145 576 c 132,-1,24
 1178 524 1178 524 1192 459.5 c 132,-1,25
 1206 395 1206 395 1206 332 c 132,-1,26
 1206 269 1206 269 1192 203.5 c 132,-1,27
 1178 138 1178 138 1145 85 c 132,-1,28
 1112 32 1112 32 1060 0 c 132,-1,29
 1008 -32 1008 -32 932 -32 c 132,-1,30
 856 -32 856 -32 804 0 c 132,-1,31
 752 32 752 32 720 85 c 132,-1,32
 688 138 688 138 674 203.5 c 132,-1,33
 660 269 660 269 660 332 c 132,-1,18
433 1199 m 4,33,34
 432 1252 432 1252 425 1295 c 132,-1,35
 418 1338 418 1338 399.5 1365 c 132,-1,36
 381 1392 381 1392 348 1392 c 132,-1,37
 315 1392 315 1392 297 1364 c 4,38,39
 265 1314 265 1314 263 1198 c 4,40,41
 261 1087 261 1087 263 976 c 4,42,43
 265 861 265 861 297 808 c 4,44,45
 314 780 314 780 348 780 c 4,46,47
 381 780 381 780 399.5 808 c 132,-1,48
 418 836 418 836 425 879 c 132,-1,49
 432 922 432 922 433 975 c 4,50,51
 435 1087 435 1087 433 1199 c 4,33,34
348 724 m 132,-1,52
 272 724 272 724 220 756 c 132,-1,53
 168 788 168 788 136 841 c 132,-1,54
 104 894 104 894 90 959.5 c 132,-1,55
 76 1025 76 1025 76 1088 c 132,-1,56
 76 1151 76 1151 90 1215.5 c 132,-1,57
 104 1280 104 1280 136 1332 c 132,-1,58
 168 1384 168 1384 220 1416 c 132,-1,59
 272 1448 272 1448 348 1448 c 132,-1,60
 424 1448 424 1448 477 1416 c 132,-1,61
 530 1384 530 1384 562 1332 c 132,-1,62
 594 1280 594 1280 608 1214.5 c 132,-1,63
 622 1149 622 1149 622 1087 c 132,-1,64
 622 1025 622 1025 608 959.5 c 132,-1,65
 594 894 594 894 562 841 c 132,-1,66
 530 788 530 788 477 756 c 132,-1,67
 424 724 424 724 348 724 c 132,-1,52
208 32 m 5,67,-1
 161 100 l 5,68,-1
 1084 1401 l 5,69,-1
 1131 1332 l 5,70,-1
 208 32 l 5,67,-1
EndSplineSet
EndChar

StartChar: ampersand
Encoding: 38 38 6
Width: 1370
GlyphClass: 2
Flags: W
LayerCount: 4
Back
SplineSet
66 296 m 4,0,1
 66 372 66 372 86 434 c 132,-1,2
 106 496 106 496 144 546 c 132,-1,3
 182 596 182 596 233 634 c 132,-1,4
 284 672 284 672 346 702 c 5,5,6
 320 748 320 748 300 790 c 132,-1,7
 280 832 280 832 267 874 c 132,-1,8
 254 916 254 916 247 959 c 132,-1,9
 240 1002 240 1002 240 1048 c 4,10,11
 240 1128 240 1128 263 1201 c 132,-1,12
 286 1274 286 1274 331 1330 c 132,-1,13
 376 1386 376 1386 443 1420 c 132,-1,14
 510 1454 510 1454 596 1454 c 4,15,16
 634 1454 634 1454 673 1451 c 132,-1,17
 712 1448 712 1448 750 1436 c 132,-1,18
 788 1424 788 1424 821 1403 c 132,-1,19
 854 1382 854 1382 880 1349 c 132,-1,20
 906 1316 906 1316 920 1270 c 132,-1,21
 934 1224 934 1224 934 1162 c 4,22,23
 934 1104 934 1104 922 1055 c 132,-1,24
 910 1006 910 1006 887 966 c 132,-1,25
 864 926 864 926 833 893 c 132,-1,26
 802 860 802 860 766 834 c 5,27,28
 816 748 816 748 864 672 c 132,-1,29
 912 596 912 596 958 530 c 5,30,-1
 1034 694 l 6,31,32
 1036 700 1036 700 1036 710 c 4,33,34
 1036 722 1036 722 1027 732 c 132,-1,35
 1018 742 1018 742 1001 747 c 132,-1,36
 984 752 984 752 960 755 c 132,-1,37
 936 758 936 758 908 758 c 5,38,-1
 908 830 l 5,39,-1
 1246 830 l 5,40,-1
 1246 758 l 5,41,42
 1214 758 1214 758 1192 754 c 132,-1,43
 1170 750 1170 750 1155 741 c 132,-1,44
 1140 732 1140 732 1130 720 c 132,-1,45
 1120 708 1120 708 1114 694 c 4,46,47
 1086 636 1086 636 1059 580 c 132,-1,48
 1032 524 1032 524 1006 468 c 5,49,50
 1030 438 1030 438 1051 414 c 132,-1,51
 1072 390 1072 390 1091 373 c 132,-1,52
 1110 356 1110 356 1130 347 c 132,-1,53
 1150 338 1150 338 1172 338 c 4,54,55
 1210 338 1210 338 1234 372 c 132,-1,56
 1258 406 1258 406 1258 474 c 5,57,-1
 1304 474 l 5,58,59
 1310 402 1310 402 1310 344 c 4,60,61
 1310 242 1310 242 1289 169 c 132,-1,62
 1268 96 1268 96 1228 50 c 132,-1,63
 1188 4 1188 4 1131 -17 c 132,-1,64
 1074 -38 1074 -38 1000 -38 c 4,65,66
 936 -38 936 -38 882 -15 c 132,-1,67
 828 8 828 8 772 62 c 5,68,69
 748 40 748 40 717 21 c 132,-1,70
 686 2 686 2 648 -11 c 132,-1,71
 610 -24 610 -24 563 -31 c 132,-1,72
 516 -38 516 -38 458 -38 c 4,73,74
 368 -38 368 -38 296 -18 c 132,-1,75
 224 2 224 2 172 44 c 132,-1,76
 120 86 120 86 93 148 c 132,-1,77
 66 210 66 210 66 296 c 4,0,1
736 884 m 5,78,79
 760 914 760 914 779 953 c 132,-1,80
 798 992 798 992 812 1033 c 132,-1,81
 826 1074 826 1074 834 1117 c 132,-1,82
 842 1160 842 1160 842 1202 c 4,83,84
 842 1234 842 1234 835 1263 c 132,-1,85
 828 1292 828 1292 815 1315 c 132,-1,86
 802 1338 802 1338 784 1350 c 132,-1,87
 766 1362 766 1362 742 1362 c 4,88,89
 724 1362 724 1362 706 1349 c 132,-1,90
 688 1336 688 1336 676 1313 c 132,-1,91
 664 1290 664 1290 656 1259 c 132,-1,92
 648 1228 648 1228 648 1194 c 4,93,94
 648 1108 648 1108 672 1029 c 132,-1,95
 696 950 696 950 736 884 c 5,78,79
350 528 m 4,96,97
 350 484 350 484 363 437 c 132,-1,98
 376 390 376 390 398 340 c 132,-1,99
 420 290 420 290 448 245 c 132,-1,100
 476 200 476 200 506 166 c 132,-1,101
 536 132 536 132 567 110 c 132,-1,102
 598 88 598 88 626 88 c 260,103,104
 652 88 652 88 675 96 c 132,-1,105
 698 104 698 104 718 118 c 5,106,107
 686 158 686 158 650 209 c 132,-1,108
 614 260 614 260 573 324 c 132,-1,109
 532 388 532 388 486 465 c 132,-1,110
 440 542 440 542 388 632 c 5,111,112
 370 612 370 612 360 586 c 132,-1,113
 350 560 350 560 350 528 c 4,96,97
EndSplineSet
Fore
SplineSet
772 62 m 1,0,1
 663 -38 663 -38 458 -38 c 0,2,3
 174 -38 174 -38 93 148 c 0,4,5
 66 210 66 210 66 296 c 0,6,7
 66 567 66 567 346 702 c 1,8,9
 240 890 240 890 240 1048 c 0,10,11
 240 1217 240 1217 331 1330 c 0,12,13
 431 1454 431 1454 596 1454 c 0,14,15
 934 1454 934 1454 934 1162 c 0,16,17
 934 955 934 955 766 834 c 1,18,19
 866 662 866 662 958 530 c 1,20,-1
 1034 694 l 2,21,22
 1036 700 1036 700 1036 710 c 0,23,24
 1036 758 1036 758 908 758 c 1,25,-1
 908 830 l 1,26,-1
 1246 830 l 1,27,-1
 1246 758 l 1,28,29
 1183 758 1183 758 1162 745 c 0,30,31
 1127 724 1127 724 1106.5 680 c 128,-1,32
 1086 636 1086 636 1059 580 c 128,-1,33
 1032 524 1032 524 1006 468 c 1,34,35
 1088 366 1088 366 1130 347 c 0,36,37
 1150 338 1150 338 1180 338 c 128,-1,38
 1210 338 1210 338 1234 372 c 128,-1,39
 1258 406 1258 406 1258 474 c 1,40,-1
 1304 474 l 1,41,42
 1310 402 1310 402 1310 322 c 128,-1,43
 1310 242 1310 242 1289 169 c 128,-1,44
 1268 96 1268 96 1228 50 c 0,45,46
 1151 -38 1151 -38 1013.5 -38 c 128,-1,47
 876 -38 876 -38 772 62 c 1,0,1
736 884 m 1,48,49
 807 973 807 973 834 1117 c 0,50,51
 842 1160 842 1160 842 1197 c 128,-1,52
 842 1234 842 1234 835 1263 c 128,-1,53
 828 1292 828 1292 815 1315 c 0,54,55
 788 1362 788 1362 742 1362 c 0,56,57
 683 1362 683 1362 656 1259 c 0,58,59
 648 1228 648 1228 648 1168 c 128,-1,60
 648 1108 648 1108 672 1029 c 128,-1,61
 696 950 696 950 736 884 c 1,48,49
388 632 m 1,62,63
 350 590 350 590 350 537 c 128,-1,64
 350 484 350 484 363 437 c 128,-1,65
 376 390 376 390 398 340 c 128,-1,66
 420 290 420 290 448 245 c 128,-1,67
 476 200 476 200 506 166 c 0,68,69
 575 88 575 88 626 88 c 0,70,71
 675 88 675 88 718 118 c 1,72,73
 620 240 620 240 530 391 c 128,-1,74
 440 542 440 542 388 632 c 1,62,63
369 649 m 0,75,76
 376 657 376 657 390 657 c 0,77,78
 396 657 396 657 401 654 c 1,79,-1
 472 704 l 1,80,-1
 602 799 l 1,81,-1
 709 880 l 1,82,83
 693 907 693 907 681 936 c 1,84,-1
 662 923 l 1,85,-1
 622 883 l 1,86,-1
 616 889 l 1,87,88
 654 927 654 927 657 929 c 2,89,-1
 677 943 l 1,90,91
 666 968 666 968 657 994 c 1,92,-1
 642 983 l 1,93,94
 553 854 553 854 551 853 c 2,95,-1
 406 753 l 1,96,-1
 366 719 l 1,97,98
 372 705 372 705 372 700 c 0,99,100
 372 687 372 687 357 679 c 0,101,102
 189 598 189 598 127 465 c 1,103,-1
 347 617 l 1,104,105
 356 634 356 634 369 649 c 0,75,76
96 363 m 1,106,107
 91 329 91 329 91 292 c 0,108,109
 91 289 91 289 91 286 c 1,110,-1
 167 344 l 1,111,-1
 330 466 l 1,112,113
 325 496 325 496 325 521 c 1,114,-1
 96 363 l 1,106,107
325 530 m 1,115,116
 326 571 326 571 341 604 c 1,117,118
 247 539 247 539 122 452 c 1,119,120
 106 414 106 414 98 373 c 0,121,-1
 325 530 l 1,115,116
406 650 m 1,122,123
 408 648 408 648 410 645 c 0,124,125
 422 625 422 625 433 605 c 1,126,127
 586 722 586 722 740 839 c 1,128,129
 741 849 741 849 751 854 c 0,130,131
 829 911 829 911 868 986 c 1,132,-1
 800 939 l 1,133,134
 780 898 780 898 756 868 c 0,135,136
 748 859 748 859 735 859 c 128,-1,137
 722 859 722 859 715 871 c 0,138,139
 714 873 714 873 713 874 c 1,140,-1
 606 793 l 2,141,142
 549 750 549 750 476 698 c 0,143,144
 444 676 444 676 406 650 c 1,122,123
654 1002 m 1,145,146
 651 1012 651 1012 648 1022 c 0,147,148
 646 1030 646 1030 643 1037 c 1,149,150
 586 982 586 982 581 978 c 2,151,-1
 356 803 l 1,152,-1
 330 787 l 1,153,154
 346 756 346 756 358 734 c 0,155,156
 360 730 360 730 362 726 c 1,157,-1
 402 759 l 1,158,-1
 546 859 l 1,159,160
 636 988 636 988 637 989 c 2,161,-1
 654 1002 l 1,145,146
641 1047 m 1,162,163
 629 1091 629 1091 625 1129 c 1,164,-1
 549 1060 l 1,165,-1
 442 973 l 1,166,-1
 356 876 l 2,167,168
 329 845 329 845 326 843 c 2,169,-1
 309 832 l 1,170,171
 315 816 315 816 323 801 c 0,172,173
 325 797 325 797 327 793 c 1,174,-1
 352 809 l 1,175,176
 464 896 464 896 576 984 c 1,177,-1
 641 1047 l 1,162,163
624 1139 m 1,178,179
 623 1154 623 1154 623 1168 c 0,180,181
 623 1198 623 1198 626 1224 c 1,182,183
 412 1016 412 1016 376 988 c 2,184,-1
 283 913 l 1,185,186
 292 875 292 875 306 839 c 1,187,188
 313 844 313 844 321 849 c 2,189,-1
 436 979 l 2,190,191
 468 1016 468 1016 544 1066 c 1,192,-1
 624 1139 l 1,178,179
627 1238 m 1,193,194
 634 1286 634 1286 650 1320 c 1,195,-1
 617 1281 l 1,196,-1
 291 996 l 1,197,-1
 270 981 l 1,198,199
 274 951 274 951 281 921 c 1,200,201
 326 957 326 957 371 994 c 1,202,-1
 627 1238 l 1,193,194
534 1423 m 1,203,204
 490 1416 490 1416 454 1398 c 0,205,206
 392 1366 392 1366 350 1314 c 0,207,208
 300 1253 300 1253 280 1178 c 1,209,210
 328 1210 328 1210 376 1242 c 1,211,-1
 534 1423 l 1,203,204
277 1168 m 1,212,213
 269 1136 269 1136 266 1101 c 1,214,-1
 337 1157 l 1,215,216
 414 1212 414 1212 491 1267 c 1,217,-1
 601 1377 l 1,218,-1
 642 1428 l 1,219,220
 623 1429 623 1429 602 1429 c 0,221,222
 573 1429 573 1429 547 1425 c 1,223,-1
 381 1236 l 1,224,-1
 277 1168 l 1,212,213
266 1092 m 1,225,226
 265 1080 265 1080 265 1066 c 0,227,228
 265 1027 265 1027 269 990 c 1,229,230
 278 996 278 996 287 1002 c 2,231,-1
 611 1287 l 1,232,-1
 724 1417 l 1,233,234
 693 1425 693 1425 652 1427 c 1,235,-1
 607 1371 l 1,236,237
 499 1263 499 1263 496 1261 c 2,238,-1
 341 1151 l 1,239,-1
 266 1092 l 1,225,226
733 1415 m 1,240,-1
 697 1373 l 1,241,242
 719 1387 719 1387 742 1387 c 0,243,244
 755 1387 755 1387 767 1384 c 1,245,246
 773 1391 773 1391 780 1398 c 1,247,248
 762 1406 762 1406 742 1412 c 0,249,250
 738 1414 738 1414 733 1415 c 1,240,-1
840 1356 m 1,251,252
 818 1377 818 1377 790 1393 c 1,253,-1
 779 1381 l 1,254,255
 808 1371 808 1371 828 1342 c 1,256,-1
 840 1356 l 1,251,252
847 1350 m 1,257,258
 840 1342 840 1342 833 1334 c 0,259,260
 834 1332 834 1332 835 1330 c 0,261,262
 852 1300 852 1300 860 1263 c 1,263,-1
 881 1284 l 1,264,-1
 886 1290 l 1,265,266
 871 1324 871 1324 847 1350 c 1,257,258
908 1196 m 1,267,268
 904 1243 904 1243 889 1281 c 1,269,-1
 887 1278 l 1,270,-1
 862 1253 l 1,271,272
 867 1226 867 1226 867 1196 c 0,273,274
 867 1179 867 1179 865 1160 c 1,275,-1
 908 1196 l 1,267,268
908 1186 m 1,276,277
 879 1161 879 1161 864 1149 c 1,278,279
 860 1113 860 1113 850 1074 c 1,280,-1
 907 1121 l 1,281,282
 909 1141 909 1141 909 1162 c 0,283,284
 909 1174 909 1174 908 1186 c 1,276,277
875 1000 m 1,285,286
 898 1050 898 1050 906 1109 c 1,287,-1
 847 1061 l 1,288,289
 842 1042 842 1042 834 1022 c 0,290,291
 821 985 821 985 807 953 c 1,292,-1
 875 1000 l 1,285,286
741 830 m 1,293,-1
 437 599 l 1,294,295
 449 578 449 578 462 557 c 1,296,-1
 567 629 l 1,297,-1
 767 783 l 1,298,299
 756 802 756 802 744 821 c 0,300,301
 742 825 742 825 741 830 c 1,293,-1
910 555 m 1,302,303
 897 574 897 574 885 593 c 1,304,-1
 790 516 l 1,305,-1
 694 436 l 1,306,-1
 597 357 l 1,307,-1
 588 351 l 1,308,309
 596 339 596 339 602 327 c 1,310,-1
 910 555 l 1,302,303
914 549 m 1,311,-1
 606 321 l 1,312,313
 624 293 624 293 642 268 c 1,314,-1
 832 399 l 1,315,-1
 1007 529 l 1,316,-1
 1008 530 l 1,317,318
 1031 579 1031 579 1072 665 c 1,319,-1
 1036 639 l 1,320,-1
 981 519 l 2,321,322
 974 505 974 505 959.5 505 c 128,-1,323
 945 505 945 505 937 516 c 0,324,325
 925 532 925 532 914 549 c 1,311,-1
880 599 m 1,326,327
 871 613 871 613 862 629 c 1,328,-1
 556 400 l 1,329,330
 570 377 570 377 584 357 c 1,331,-1
 593 363 l 1,332,-1
 784 522 l 1,333,-1
 880 599 l 1,326,327
858 635 m 1,334,335
 847 652 847 652 836 669 c 1,336,-1
 532 440 l 1,337,338
 542 423 542 423 552 407 c 1,339,-1
 858 635 l 1,334,335
832 675 m 1,340,341
 824 689 824 689 815 703 c 1,342,-1
 511 475 l 1,343,344
 520 460 520 460 528 446 c 1,345,-1
 832 675 l 1,340,341
811 709 m 1,346,347
 805 718 805 718 800 727 c 1,348,349
 725 670 725 670 596 573 c 1,350,-1
 495 501 l 1,351,352
 501 491 501 491 507 481 c 1,353,-1
 811 709 l 1,346,347
796 733 m 1,354,355
 783 754 783 754 770 776 c 1,356,-1
 571 623 l 1,357,-1
 465 551 l 1,358,359
 478 529 478 529 491 508 c 1,360,-1
 592 579 l 1,361,-1
 796 733 l 1,354,355
1054 738 m 1,362,363
 1110 778 1110 778 1149 805 c 1,364,-1
 1098 805 l 1,365,-1
 1034 758 l 1,366,367
 1047 750 1047 750 1054 738 c 1,362,363
1057 731 m 1,368,369
 1061 721 1061 721 1061 710 c 0,370,371
 1061 693 1061 693 1057 683 c 2,372,-1
 1043 652 l 1,373,-1
 1079 679 l 1,374,375
 1085 691 1085 691 1091 704 c 0,376,377
 1122 775 1122 775 1218 782 c 1,378,-1
 1221 784 l 1,379,-1
 1221 805 l 1,380,-1
 1161 805 l 1,381,-1
 1057 731 l 1,368,369
1028 762 m 1,382,-1
 1086 805 l 1,383,-1
 1016 805 l 1,384,-1
 979 777 l 1,385,386
 1009 772 1009 772 1028 762 c 1,382,-1
969 779 m 1,387,-1
 1004 805 l 1,388,-1
 952 805 l 1,389,-1
 933 791 l 1,390,-1
 933 782 l 1,391,392
 952 781 952 781 969 779 c 1,387,-1
939 805 m 1,393,-1
 933 805 l 1,394,-1
 933 800 l 1,395,-1
 939 805 l 1,393,-1
646 262 m 1,396,397
 658 244 658 244 669 227 c 1,398,399
 949 429 949 429 985 456 c 1,400,401
 980 464 980 464 980 466 c 0,402,403
 980 470 980 470 1001 516 c 1,404,405
 942 472 942 472 836 393 c 1,406,-1
 646 262 l 1,396,397
1053 375 m 1,407,408
 1032 396 1032 396 1014 418 c 2,409,-1
 699 185 l 1,410,411
 718 159 718 159 735 138 c 1,412,-1
 1053 375 l 1,407,408
1058 370 m 1,413,-1
 739 133 l 1,414,415
 743 126 743 126 743 116 c 0,416,417
 743 105 743 105 732 98 c 0,418,419
 686 66 686 66 644 63 c 1,420,-1
 552 -6 l 1,421,422
 585 -1 585 -1 615 7 c 1,423,-1
 1081 348 l 1,424,425
 1069 359 1069 359 1058 370 c 1,413,-1
1009 424 m 1,426,427
 996 439 996 439 989 449 c 1,428,429
 805 316 805 316 673 221 c 1,430,431
 684 205 684 205 694 191 c 1,432,-1
 1009 424 l 1,426,427
1283 405 m 1,433,434
 1282 416 1282 416 1282 428 c 1,435,-1
 1279 426 l 1,436,437
 1277 411 1277 411 1273 398 c 1,438,-1
 1283 405 l 1,433,434
1284 396 m 1,439,-1
 1269 386 l 1,440,441
 1260 360 1260 360 1244 344 c 0,442,443
 1214 314 1214 314 1171 313 c 1,444,-1
 818 52 l 1,445,446
 825 45 825 45 833 40 c 1,447,-1
 967 149 l 1,448,-1
 1247 339 l 1,449,-1
 1285 364 l 1,450,451
 1285 379 1285 379 1284 396 c 1,439,-1
1281 436 m 2,452,453
 1281 438 1281 438 1281 441 c 1,454,455
 1281 438 1281 438 1280 436 c 1,456,-1
 1281 436 l 2,452,453
1095 -2 m 1,457,458
 1109 2 1109 2 1122 6 c 0,459,460
 1194 32 1194 32 1234 101 c 1,461,-1
 1095 -2 l 1,457,458
1078 -6 m 1,462,-1
 1242 116 l 1,463,464
 1259 150 1259 150 1269 192 c 1,465,466
 1118 87 1118 87 1041 33 c 2,467,-1
 981 -12 l 1,468,469
 990 -13 990 -13 1000 -13 c 0,470,471
 1042 -13 1042 -13 1078 -6 c 1,462,-1
1272 203 m 1,472,473
 1280 242 1280 242 1283 288 c 1,474,475
 1255 272 1255 272 1226 256 c 1,476,-1
 1040 118 l 1,477,-1
 900 3 l 1,478,479
 932 -8 932 -8 970 -12 c 1,480,-1
 1037 39 l 1,481,-1
 1272 203 l 1,472,473
1284 301 m 1,482,483
 1285 322 1285 322 1285 344 c 0,484,485
 1285 350 1285 350 1285 356 c 1,486,-1
 1251 333 l 1,487,-1
 971 143 l 1,488,-1
 839 35 l 1,489,490
 864 17 864 17 893 6 c 1,491,-1
 1036 124 l 1,492,-1
 1222 262 l 1,493,-1
 1284 301 l 1,482,483
813 57 m 2,494,-1
 1159 313 l 1,495,496
 1145 314 1145 314 1132 317 c 1,497,-1
 797 72 l 1,498,499
 804 66 804 66 812 58 c 0,500,501
 813 57 813 57 813 57 c 2,494,-1
791 76 m 1,502,-1
 1123 320 l 1,503,504
 1104 327 1104 327 1088 342 c 0,505,506
 1087 343 1087 343 1087 343 c 2,507,-1
 636 13 l 1,508,509
 707 36 707 36 755 80 c 0,510,511
 762 87 762 87 772 87 c 0,512,513
 778 87 778 87 791 76 c 1,502,-1
537 -8 m 1,514,-1
 632 62 l 1,515,516
 595 62 595 62 562 84 c 1,517,-1
 430 -13 l 1,518,519
 437 -13 437 -13 444 -13 c 0,520,521
 446 -13 446 -13 448 -13 c 0,522,523
 495 -13 495 -13 537 -8 c 1,514,-1
223 39 m 1,524,525
 252 22 252 22 286 10 c 1,526,-1
 362 69 l 1,527,-1
 482 155 l 1,528,529
 463 177 463 177 445 202 c 1,530,-1
 223 39 l 1,524,525
217 43 m 1,531,-1
 441 208 l 1,532,533
 431 223 431 223 422 239 c 1,534,-1
 300 157 l 1,535,-1
 179 71 l 1,536,537
 183 67 183 67 187 64 c 0,538,539
 201 53 201 53 217 43 c 1,531,-1
418 -13 m 1,540,-1
 555 88 l 1,541,542
 554 89 554 89 553 90 c 0,543,544
 538 101 538 101 523 113 c 1,545,546
 399 24 399 24 357 -7 c 1,547,548
 386 -12 386 -12 418 -13 c 1,540,-1
518 118 m 1,549,550
 502 132 502 132 487 149 c 1,551,-1
 366 63 l 1,552,-1
 295 7 l 1,553,554
 320 -1 320 -1 347 -5 c 1,555,-1
 425 51 l 2,556,557
 474 86 474 86 518 118 c 1,549,550
418 245 m 1,558,559
 408 263 408 263 398 282 c 1,560,-1
 152 98 l 1,561,562
 162 86 162 86 173 76 c 1,563,564
 259 137 259 137 296 163 c 2,565,-1
 418 245 l 1,558,559
148 104 m 1,566,-1
 395 289 l 1,567,568
 387 306 387 306 378 323 c 1,569,-1
 128 135 l 1,570,571
 137 118 137 118 148 104 c 1,566,-1
124 141 m 1,572,-1
 375 330 l 1,573,574
 368 347 368 347 361 363 c 1,575,-1
 109 175 l 1,576,577
 116 157 116 157 124 141 c 1,572,-1
107 182 m 1,578,-1
 358 370 l 1,579,580
 353 384 353 384 348 398 c 1,581,-1
 271 343 l 1,582,-1
 96 228 l 1,583,584
 100 204 100 204 107 182 c 1,578,-1
346 405 m 1,585,586
 337 433 337 433 332 458 c 1,587,-1
 171 338 l 1,588,-1
 91 277 l 1,589,590
 92 256 92 256 95 236 c 1,591,-1
 267 349 l 1,592,-1
 346 405 l 1,585,586
EndSplineSet
Validated: 3073
Layer: 3
SplineSet
344 528 m 4,0,1
 344 483 344 483 357 435.5 c 132,-1,2
 370 388 370 388 392.5 337.5 c 132,-1,3
 415 287 415 287 443 242 c 4,4,5
 500 150 500 150 564 105 c 4,6,7
 596 82 596 82 626 82 c 4,8,9
 677 82 677 82 721 113 c 6,10,-1
 727 117 l 5,11,12
 657 203 657 203 578 327 c 4,13,14
 506 439 506 439 389 642 c 5,15,-1
 384 636 l 6,16,17
 344 592 344 592 344 528 c 4,0,1
642 1194 m 4,18,19
 642 1107 642 1107 666.5 1027.5 c 132,-1,20
 691 948 691 948 731 881 c 6,21,-1
 735 874 l 5,22,-1
 741 880 l 6,23,24
 785 936 785 936 818 1031 c 4,25,26
 848 1120 848 1120 848 1202 c 4,27,28
 848 1269 848 1269 820 1318 c 4,29,30
 792 1368 792 1368 742 1368 c 4,31,32
 722 1368 722 1368 702 1354 c 4,33,34
 668 1329 668 1329 650 1261 c 4,35,36
 642 1229 642 1229 642 1194 c 4,18,19
72 296 m 4,37,38
 72 371 72 371 92 432 c 4,39,40
 120 519 120 519 188 587 c 4,41,42
 249 648 249 648 354 699 c 5,43,44
 325 751 325 751 305 793 c 4,45,46
 246 917 246 917 246 1048 c 4,47,48
 246 1127 246 1127 268.5 1199 c 132,-1,49
 291 1271 291 1271 335.5 1326 c 132,-1,50
 380 1381 380 1381 445.5 1414.5 c 132,-1,51
 511 1448 511 1448 596 1448 c 4,52,53
 634 1448 634 1448 672.5 1445 c 132,-1,54
 711 1442 711 1442 748 1430 c 4,55,56
 828 1405 828 1405 875 1345 c 4,57,58
 928 1278 928 1278 928 1162 c 4,59,60
 928 1049 928 1049 882 969 c 4,61,62
 859 930 859 930 828.5 897.5 c 132,-1,63
 798 865 798 865 758 836 c 5,64,65
 861 659 861 659 959 518 c 5,66,-1
 1039 691 l 6,67,68
 1042 697 1042 697 1042 712 c 4,69,70
 1042 724 1042 724 1032 736 c 132,-1,71
 1022 748 1022 748 1003 753 c 4,72,73
 967 763 967 763 914 764 c 5,74,-1
 914 824 l 5,75,-1
 1240 824 l 5,76,-1
 1240 764 l 5,77,78
 1211 764 1211 764 1189.5 760 c 132,-1,79
 1168 756 1168 756 1152 746 c 4,80,81
 1123 728 1123 728 1109 696 c 4,82,83
 1108 696 1108 696 999 467 c 5,84,85
 1055 398 1055 398 1087 369 c 4,86,87
 1128 332 1128 332 1172 332 c 4,88,89
 1205 332 1205 332 1228 355 c 4,90,91
 1263 390 1263 390 1264 468 c 5,92,-1
 1298 468 l 5,93,94
 1304 400 1304 400 1304 344 c 4,95,96
 1304 243 1304 243 1283 171 c 4,97,98
 1243 31 1243 31 1129 -11 c 4,99,100
 1073 -32 1073 -32 1000 -32 c 4,101,102
 937 -32 937 -32 884 -10 c 4,103,104
 828 14 828 14 776 66 c 6,105,-1
 772 70 l 5,106,107
 745 45 745 45 714 26 c 4,108,109
 619 -32 619 -32 458 -32 c 4,110,111
 276 -32 276 -32 176 49 c 4,112,113
 125 90 125 90 98.5 150.5 c 132,-1,114
 72 211 72 211 72 296 c 4,37,38
EndSplineSet
EndChar

StartChar: quotesingle
Encoding: 39 39 7
Width: 434
GlyphClass: 2
Flags: W
LayerCount: 4
Back
SplineSet
192 1122 m 5,0,1
 182 1238 182 1238 174 1262 c 4,2,3
 158 1334 158 1334 152 1360 c 4,4,5
 142 1396 142 1396 133 1431 c 132,-1,6
 124 1466 124 1466 116 1500 c 132,-1,7
 108 1534 108 1534 104 1564 c 132,-1,8
 100 1594 100 1594 100 1620 c 4,9,10
 100 1644 100 1644 110 1664 c 132,-1,11
 120 1684 120 1684 137 1697 c 132,-1,12
 154 1710 154 1710 175 1718 c 132,-1,13
 196 1726 196 1726 218 1726 c 260,14,15
 240 1726 240 1726 260 1718 c 132,-1,16
 280 1710 280 1710 297 1697 c 132,-1,17
 314 1684 314 1684 325 1664 c 132,-1,18
 336 1644 336 1644 336 1620 c 4,19,20
 336 1594 336 1594 331 1564 c 132,-1,21
 326 1534 326 1534 318 1500 c 4,22,23
 312 1468 312 1468 302 1430 c 4,24,25
 292 1396 292 1396 282 1360 c 4,26,27
 270 1312 270 1312 260 1237 c 132,-1,28
 250 1162 250 1162 244 1122 c 5,29,-1
 192 1122 l 5,0,1
EndSplineSet
Fore
SplineSet
310 1625 m 5,0,1
 306 1654 306 1654 292 1668 c 4,2,3
 291 1669 291 1669 291 1670 c 6,4,-1
 222 1611 l 5,5,-1
 135 1521 l 5,6,7
 140 1498 140 1498 146 1472 c 5,8,-1
 261 1567 l 5,9,10
 289 1600 289 1600 310 1625 c 5,0,1
125 1615 m 6,11,12
 125 1610 125 1610 125 1604 c 4,13,14
 125 1573 125 1573 133 1530 c 5,15,-1
 216 1617 l 5,16,-1
 284 1675 l 5,17,18
 268 1687 268 1687 254 1693 c 132,-1,19
 240 1699 240 1699 228 1700 c 5,20,-1
 157 1641 l 5,21,-1
 125 1615 l 6,11,12
215 1701 m 5,22,23
 157 1699 157 1699 132 1650 c 4,24,25
 128 1642 128 1642 126 1626 c 5,26,-1
 151 1647 l 5,27,-1
 215 1701 l 5,22,23
297 1519 m 5,28,29
 298 1528 298 1528 302 1542 c 4,30,31
 310 1580 310 1580 311 1609 c 4,32,33
 311 1611 311 1611 311 1613 c 5,34,-1
 267 1561 l 5,35,36
 196 1502 196 1502 149 1463 c 4,37,38
 150 1459 150 1459 151 1455 c 4,39,40
 157 1435 157 1435 162 1417 c 5,41,42
 186 1436 186 1436 207 1452 c 6,43,-1
 297 1519 l 5,28,29
179 1351 m 5,44,-1
 279 1441 l 5,45,46
 289 1476 289 1476 291 1490 c 4,47,48
 292 1497 292 1497 295 1508 c 5,49,-1
 211 1446 l 6,50,51
 211 1445 211 1445 164 1409 c 5,52,53
 172 1377 172 1377 179 1351 c 5,44,-1
197 1279 m 5,54,-1
 247 1321 l 5,55,56
 250 1340 250 1340 253 1348 c 4,57,58
 261 1379 261 1379 274 1427 c 5,59,-1
 182 1342 l 5,60,61
 188 1321 188 1321 192 1303 c 4,62,63
 194 1291 194 1291 197 1279 c 5,54,-1
205 1235 m 5,64,-1
 238 1262 l 5,65,66
 242 1289 242 1289 245 1309 c 5,67,-1
 198 1271 l 5,68,69
 202 1254 202 1254 205 1235 c 5,64,-1
206 1227 m 5,70,71
 211 1191 211 1191 215 1147 c 5,72,-1
 222 1147 l 5,73,74
 230 1209 230 1209 237 1252 c 5,75,-1
 206 1227 l 5,70,71
192 1122 m 5,76,77
 182 1238 182 1238 170 1286 c 132,-1,78
 158 1334 158 1334 150 1365 c 132,-1,79
 142 1396 142 1396 133 1431 c 132,-1,80
 124 1466 124 1466 116 1500 c 4,81,82
 100 1568 100 1568 100 1606 c 132,-1,83
 100 1644 100 1644 110 1664 c 132,-1,84
 120 1684 120 1684 137 1697 c 132,-1,85
 154 1710 154 1710 175 1718 c 132,-1,86
 196 1726 196 1726 218 1726 c 132,-1,87
 240 1726 240 1726 260 1718 c 132,-1,88
 280 1710 280 1710 297 1697 c 4,89,90
 336 1667 336 1667 336 1631 c 4,91,92
 336 1560 336 1560 314 1478 c 132,-1,93
 292 1396 292 1396 281 1354 c 132,-1,94
 270 1312 270 1312 260 1237 c 132,-1,95
 250 1162 250 1162 244 1122 c 5,96,-1
 192 1122 l 5,76,77
EndSplineSet
Validated: 2049
Layer: 3
SplineSet
330 1618 m 4,0,1
 330 1577 330 1577 312 1501 c 6,2,3
 306 1470 306 1470 296 1432 c 4,4,5
 286 1398 286 1398 276 1362 c 4,6,7
 264 1313 264 1313 254.5 1240.5 c 132,-1,8
 245 1168 245 1168 239 1128 c 5,9,-1
 198 1128 l 5,10,11
 188 1240 188 1240 180 1264 c 4,12,13
 164 1335 164 1335 158 1361 c 4,14,15
 138 1433 138 1433 122 1501 c 4,16,17
 106 1568 106 1568 106 1618 c 4,18,19
 106 1642 106 1642 115 1661 c 4,20,21
 132 1695 132 1695 177 1712 c 4,22,23
 197 1720 197 1720 218 1720 c 132,-1,24
 239 1720 239 1720 258 1712 c 4,25,26
 286 1701 286 1701 303 1684 c 4,27,28
 330 1656 330 1656 330 1618 c 4,0,1
EndSplineSet
EndChar

StartChar: parenleft
Encoding: 40 40 8
Width: 582
GlyphClass: 2
Flags: W
LayerCount: 4
Back
SplineSet
102 708 m 260,0,1
 102 952 102 952 133 1132 c 132,-1,2
 164 1312 164 1312 219 1430 c 132,-1,3
 274 1548 274 1548 376 1605 c 132,-1,4
 478 1662 478 1662 576 1662 c 5,5,-1
 576 1596 l 5,6,7
 552 1596 552 1596 510 1584 c 132,-1,8
 468 1572 468 1572 456 1539 c 132,-1,9
 444 1506 444 1506 436 1445 c 132,-1,10
 428 1384 428 1384 424 1286 c 132,-1,11
 420 1188 420 1188 418 1047 c 132,-1,12
 416 906 416 906 416 708 c 260,13,14
 416 512 416 512 418 371 c 132,-1,15
 420 230 420 230 424 131 c 132,-1,16
 428 32 428 32 436 -28 c 132,-1,17
 444 -88 444 -88 456 -122 c 132,-1,18
 468 -156 468 -156 509 -167 c 132,-1,19
 550 -178 550 -178 576 -178 c 5,20,-1
 576 -248 l 5,21,22
 478 -248 478 -248 376 -190 c 132,-1,23
 274 -132 274 -132 219 -13 c 132,-1,24
 164 106 164 106 133 285 c 132,-1,25
 102 464 102 464 102 708 c 260,0,1
EndSplineSet
Fore
SplineSet
102 708 m 128,-1,1
 102 952 102 952 133 1132 c 128,-1,2
 164 1312 164 1312 219 1430 c 128,-1,3
 274 1548 274 1548 376 1605 c 128,-1,4
 478 1662 478 1662 576 1662 c 1,5,-1
 576 1596 l 1,6,7
 552 1596 552 1596 510 1584 c 128,-1,8
 468 1572 468 1572 456 1539 c 128,-1,9
 444 1506 444 1506 436 1445 c 128,-1,10
 428 1384 428 1384 424 1286 c 0,11,12
 416 1090 416 1090 416 801 c 128,-1,13
 416 512 416 512 418 371 c 128,-1,14
 420 230 420 230 424 131 c 128,-1,15
 428 32 428 32 436 -28 c 128,-1,16
 444 -88 444 -88 456 -122 c 128,-1,17
 468 -156 468 -156 509 -167 c 128,-1,18
 550 -178 550 -178 576 -178 c 1,19,-1
 576 -248 l 1,20,21
 478 -248 478 -248 376 -190 c 128,-1,22
 274 -132 274 -132 219 -13 c 128,-1,23
 164 106 164 106 133 285 c 128,-1,0
 102 464 102 464 102 708 c 128,-1,1
382 1580 m 0,24,25
 361 1568 361 1568 341 1553 c 0,26,27
 308 1518 308 1518 306 1516 c 2,28,-1
 298 1510 l 1,29,30
 265 1471 265 1471 240 1417 c 0,31,32
 236 1408 236 1408 232 1399 c 1,33,-1
 357 1512 l 1,34,-1
 521 1632 l 1,35,36
 454 1621 454 1621 382 1580 c 0,24,25
224 1381 m 1,37,38
 203 1331 203 1331 187 1272 c 1,39,-1
 311 1372 l 1,40,41
 371 1452 371 1452 372 1452 c 2,42,-1
 419 1487 l 1,43,44
 425 1526 425 1526 433 1548 c 0,45,46
 436 1556 436 1556 440 1563 c 1,47,-1
 224 1381 l 1,37,38
500 1607 m 1,48,49
 522 1615 522 1615 551 1619 c 1,50,-1
 551 1636 l 1,51,52
 544 1635 544 1635 537 1635 c 0,53,54
 531 1630 531 1630 526 1626 c 2,55,-1
 500 1607 l 1,48,49
408 1391 m 0,56,57
 412 1440 412 1440 417 1476 c 1,58,59
 399 1463 399 1463 377 1446 c 1,60,-1
 317 1366 l 1,61,-1
 184 1259 l 1,62,63
 177 1234 177 1234 172 1209 c 1,64,-1
 182 1217 l 1,65,-1
 312 1322 l 1,66,-1
 402 1387 l 2,67,68
 405 1389 405 1389 408 1391 c 0,56,57
169 1198 m 1,69,70
 157 1144 157 1144 149 1083 c 1,71,-1
 217 1137 l 1,72,73
 297 1189 297 1189 376 1242 c 1,74,-1
 400 1269 l 1,75,76
 403 1332 403 1332 407 1382 c 1,77,-1
 406 1381 l 2,78,79
 361 1349 361 1349 316 1316 c 2,80,-1
 186 1211 l 2,81,82
 178 1205 178 1205 169 1198 c 1,69,70
392 1014 m 1,83,84
 393 1051 393 1051 394 1086 c 1,85,-1
 291 996 l 1,86,-1
 130 883 l 1,87,88
 128 842 128 842 127 798 c 1,89,90
 249 896 249 896 371 994 c 1,91,-1
 392 1014 l 1,83,84
127 789 m 1,92,93
 126 755 126 755 126 719 c 1,94,-1
 167 749 l 1,95,-1
 232 789 l 2,96,97
 277 819 277 819 321 849 c 1,98,-1
 391 929 l 1,99,100
 391 967 391 967 392 1002 c 1,101,102
 382 993 382 993 376 988 c 2,103,-1
 127 789 l 1,92,93
394 1096 m 1,104,105
 395 1146 395 1146 396 1190 c 1,106,-1
 341 1151 l 1,107,-1
 246 1076 l 2,108,109
 192 1036 192 1036 139 997 c 1,110,111
 134 946 134 946 131 892 c 1,112,113
 209 947 209 947 287 1002 c 1,114,-1
 394 1096 l 1,104,105
397 1200 m 1,115,116
 398 1230 398 1230 399 1257 c 1,117,-1
 381 1236 l 1,118,-1
 221 1131 l 1,119,-1
 148 1072 l 1,120,121
 144 1040 144 1040 140 1007 c 1,122,-1
 242 1082 l 1,123,-1
 337 1157 l 1,124,-1
 397 1200 l 1,115,116
520 -218 m 1,125,126
 535 -221 535 -221 551 -222 c 1,127,-1
 551 -201 l 2,128,129
 547 -200 547 -200 544 -200 c 0,130,131
 532 -209 532 -209 520 -218 c 1,125,126
511 -216 m 1,132,-1
 534 -198 l 1,133,134
 509 -194 509 -194 492 -188 c 1,135,-1
 470 -205 l 1,136,137
 491 -212 491 -212 511 -216 c 1,132,-1
462 -202 m 1,138,-1
 484 -185 l 1,139,140
 471 -180 471 -180 463 -174 c 1,141,-1
 438 -192 l 1,142,143
 450 -198 450 -198 462 -202 c 1,138,-1
430 -189 m 1,144,-1
 458 -169 l 1,145,146
 444 -154 444 -154 435 -134 c 1,147,-1
 389 -168 l 1,148,149
 409 -180 409 -180 430 -189 c 1,144,-1
382 -164 m 1,150,-1
 432 -127 l 2,151,152
 431 -124 431 -124 430 -122 c 0,153,154
 427 -113 427 -113 424 -101 c 1,155,-1
 359 -149 l 1,156,157
 370 -157 370 -157 382 -164 c 1,150,-1
353 -145 m 1,158,-1
 422 -94 l 1,159,160
 416 -67 416 -67 411 -27 c 1,161,-1
 308 -104 l 1,162,163
 329 -127 329 -127 353 -145 c 1,158,-1
303 -98 m 1,164,-1
 410 -19 l 1,165,166
 408 3 408 3 405 28 c 1,167,168
 365 -1 365 -1 348 -13 c 2,169,-1
 277 -64 l 1,170,171
 289 -82 289 -82 303 -98 c 1,164,-1
273 -58 m 1,172,-1
 405 36 l 1,173,174
 403 60 403 60 401 88 c 1,175,-1
 366 63 l 1,176,-1
 253 -25 l 1,177,178
 263 -42 263 -42 273 -58 c 1,172,-1
401 97 m 1,179,180
 400 115 400 115 399 134 c 0,181,182
 398 150 398 150 398 167 c 1,183,-1
 224 39 l 1,184,185
 233 18 233 18 242 -2 c 0,186,187
 246 -10 246 -10 250 -18 c 1,188,-1
 362 69 l 1,189,-1
 401 97 l 1,179,180
397 176 m 1,190,191
 396 198 396 198 396 222 c 1,192,-1
 300 157 l 1,193,-1
 205 90 l 1,194,195
 213 67 213 67 221 46 c 1,196,-1
 397 176 l 1,190,191
396 230 m 1,197,198
 395 254 395 254 395 280 c 1,199,-1
 193 129 l 1,200,201
 198 113 198 113 203 98 c 1,202,203
 266 143 266 143 296 163 c 2,204,-1
 396 230 l 1,197,198
394 288 m 1,205,206
 394 311 394 311 394 335 c 1,207,-1
 181 175 l 1,208,209
 186 155 186 155 191 136 c 1,210,-1
 394 288 l 1,205,206
393 344 m 1,211,212
 393 365 393 365 393 387 c 1,213,-1
 170 220 l 1,214,215
 174 201 174 201 179 182 c 1,216,-1
 393 344 l 1,211,212
393 396 m 1,217,218
 393 412 393 412 392 429 c 1,219,-1
 271 343 l 1,220,-1
 160 270 l 1,221,222
 164 249 164 249 168 228 c 1,223,-1
 393 396 l 1,217,218
392 438 m 1,224,225
 392 469 392 469 392 501 c 1,226,-1
 366 483 l 1,227,-1
 171 338 l 1,228,-1
 151 323 l 1,229,230
 154 300 154 300 159 278 c 1,231,-1
 267 349 l 1,232,-1
 392 438 l 1,224,225
392 509 m 1,233,234
 392 537 392 537 391 567 c 1,235,-1
 146 398 l 1,236,-1
 142 395 l 1,237,238
 146 362 146 362 150 331 c 1,239,-1
 167 344 l 1,240,-1
 362 489 l 1,241,-1
 392 509 l 1,233,234
391 576 m 1,242,243
 391 607 391 607 391 639 c 1,244,245
 287 567 287 567 135 462 c 1,246,247
 137 432 137 432 141 403 c 1,248,-1
 142 404 l 1,249,-1
 391 576 l 1,242,243
391 648 m 1,250,251
 391 677 391 677 391 708 c 2,252,-1
 391 740 l 1,253,-1
 286 653 l 1,254,-1
 186 583 l 1,255,-1
 130 539 l 1,256,257
 132 504 132 504 135 470 c 1,258,-1
 391 648 l 1,250,251
391 750 m 1,259,-1
 391 807 l 2,260,261
 391 819 391 819 391 830 c 1,262,-1
 356 803 l 1,263,-1
 126 655 l 1,264,265
 127 600 127 600 130 548 c 1,266,-1
 182 589 l 2,267,268
 232 624 232 624 282 659 c 1,269,-1
 391 750 l 1,259,-1
391 839 m 1,270,271
 391 878 391 878 391 916 c 1,272,-1
 356 876 l 2,273,274
 329 845 329 845 326 843 c 2,275,-1
 236 783 l 1,276,-1
 171 743 l 2,277,278
 149 726 149 726 126 710 c 1,279,-1
 126 709 l 2,280,281
 126 686 126 686 126 664 c 1,282,-1
 352 809 l 2,283,284
 371 824 371 824 391 839 c 1,270,271
EndSplineSet
Validated: 3073
Layer: 3
SplineSet
108 708 m 132,-1,0
 108 951 108 951 139 1130.5 c 132,-1,1
 170 1310 170 1310 224.5 1427 c 132,-1,2
 279 1544 279 1544 379 1600 c 4,3,4
 476 1654 476 1654 570 1656 c 5,5,-1
 570 1602 l 5,6,7
 546 1601 546 1601 508 1590 c 4,8,9
 463 1577 463 1577 450 1541 c 4,10,11
 426 1473 426 1473 418 1286 c 4,12,13
 410 1090 410 1090 410 708 c 4,14,15
 410 329 410 329 418 131 c 4,16,17
 422 31 422 31 430 -29 c 132,-1,18
 438 -89 438 -89 450 -124 c 4,19,20
 463 -161 463 -161 507 -173 c 4,21,22
 545 -183 545 -183 570 -184 c 5,23,-1
 570 -242 l 5,24,25
 476 -240 476 -240 377 -183.5 c 132,-1,26
 278 -127 278 -127 224 -10 c 4,27,28
 170 108 170 108 139 286.5 c 132,-1,29
 108 465 108 465 108 708 c 132,-1,0
EndSplineSet
EndChar

StartChar: parenright
Encoding: 41 41 9
Width: 582
GlyphClass: 2
Flags: W
LayerCount: 4
Back
SplineSet
474 708 m 260,0,1
 474 464 474 464 443 285 c 132,-1,2
 412 106 412 106 357 -13 c 132,-1,3
 302 -132 302 -132 200 -190 c 132,-1,4
 98 -248 98 -248 0 -248 c 5,5,6
 0 -248 0 -248 0 -178 c 5,7,8
 26 -178 26 -178 67 -167 c 132,-1,9
 108 -156 108 -156 120 -122 c 132,-1,10
 132 -88 132 -88 140 -28 c 132,-1,11
 148 32 148 32 152 131 c 132,-1,12
 156 230 156 230 158 371 c 132,-1,13
 160 512 160 512 160 708 c 260,14,15
 160 906 160 906 158 1047 c 132,-1,16
 156 1188 156 1188 152 1286 c 132,-1,17
 148 1384 148 1384 140 1445 c 132,-1,18
 132 1506 132 1506 120 1539 c 132,-1,19
 108 1572 108 1572 66 1584 c 132,-1,20
 24 1596 24 1596 0 1596 c 5,21,22
 0 1596 0 1596 0 1662 c 5,23,24
 98 1662 98 1662 200 1605 c 132,-1,25
 302 1548 302 1548 357 1430 c 132,-1,26
 412 1312 412 1312 443 1132 c 132,-1,27
 474 952 474 952 474 708 c 260,0,1
EndSplineSet
Fore
SplineSet
474 708 m 128,-1,1
 474 464 474 464 443 285 c 128,-1,2
 412 106 412 106 357 -13 c 128,-1,3
 302 -132 302 -132 200 -190 c 128,-1,4
 98 -248 98 -248 0 -248 c 1,5,-1
 0 -178 l 1,6,7
 26 -178 26 -178 67 -167 c 128,-1,8
 108 -156 108 -156 120 -122 c 128,-1,9
 132 -88 132 -88 140 -28 c 128,-1,10
 148 32 148 32 152 131 c 0,11,12
 160 329 160 329 160 617.5 c 128,-1,13
 160 906 160 906 158 1047 c 128,-1,14
 156 1188 156 1188 152 1286 c 128,-1,15
 148 1384 148 1384 140 1445 c 128,-1,16
 132 1506 132 1506 120 1539 c 128,-1,17
 108 1572 108 1572 66 1584 c 128,-1,18
 24 1596 24 1596 0 1596 c 1,19,-1
 0 1662 l 1,20,21
 98 1662 98 1662 200 1605 c 128,-1,22
 302 1548 302 1548 357 1430 c 128,-1,23
 412 1312 412 1312 443 1132 c 128,-1,0
 474 952 474 952 474 708 c 128,-1,1
49 -219 m 1,24,25
 118 -208 118 -208 194 -165 c 128,-1,26
 270 -122 270 -122 319 -34 c 1,27,-1
 106 -187 l 2,28,29
 78 -203 78 -203 49 -219 c 1,24,25
326 -20 m 1,30,31
 331 -10 331 -10 336 0 c 0,32,33
 349 28 349 28 360 59 c 1,34,-1
 151 -105 l 1,35,36
 148 -116 148 -116 146 -122 c 0,37,38
 136 -150 136 -150 120 -166 c 0,39,40
 95 -191 95 -191 25 -201 c 1,41,-1
 25 -222 l 1,42,43
 28 -222 28 -222 30 -222 c 2,44,-1
 102 -181 l 1,45,-1
 326 -20 l 1,30,31
365 71 m 1,46,47
 381 115 381 115 393 164 c 1,48,-1
 169 -2 l 1,49,50
 161 -61 161 -61 154 -93 c 1,51,-1
 362 69 l 1,52,-1
 365 71 l 1,46,47
170 8 m 1,53,-1
 396 175 l 1,54,55
 403 202 403 202 409 230 c 1,56,-1
 300 157 l 1,57,-1
 176 69 l 1,58,59
 174 33 174 33 170 12 c 0,60,61
 170 10 170 10 170 8 c 1,53,-1
411 240 m 1,62,63
 417 269 417 269 421 299 c 1,64,-1
 178 118 l 1,65,66
 177 97 177 97 176 79 c 1,67,68
 260 138 260 138 296 163 c 2,69,-1
 411 240 l 1,62,63
179 127 m 1,70,-1
 423 310 l 1,71,72
 427 336 427 336 430 363 c 1,73,-1
 180 174 l 1,74,75
 180 149 180 149 179 127 c 1,70,-1
181 184 m 1,76,-1
 431 373 l 1,77,78
 434 396 434 396 436 420 c 1,79,-1
 182 229 l 1,80,81
 182 206 182 206 181 184 c 1,76,-1
182 238 m 1,82,-1
 437 430 l 1,83,84
 439 446 439 446 440 463 c 1,85,-1
 271 343 l 1,86,-1
 183 285 l 1,87,88
 182 260 182 260 182 238 c 1,82,-1
441 472 m 1,89,90
 443 504 443 504 445 537 c 1,91,-1
 366 483 l 1,92,-1
 184 347 l 1,93,94
 184 319 184 319 183 294 c 1,95,-1
 267 349 l 1,96,-1
 441 472 l 1,89,90
445 546 m 1,97,98
 446 576 446 576 448 607 c 1,99,-1
 436 598 l 1,100,-1
 184 424 l 1,101,102
 184 389 184 389 184 356 c 1,103,-1
 362 489 l 1,104,-1
 445 546 l 1,97,98
448 616 m 1,105,106
 449 647 449 647 449 679 c 1,107,108
 347 609 347 609 185 496 c 1,109,110
 185 463 185 463 184 433 c 1,111,-1
 432 604 l 2,112,113
 440 610 440 610 448 616 c 1,105,106
185 505 m 1,114,-1
 449 688 l 1,115,116
 449 694 449 694 449 700 c 0,117,118
 449 704 449 704 449 708 c 0,119,120
 449 746 449 746 448 782 c 1,121,-1
 406 753 l 1,122,-1
 286 653 l 1,123,-1
 186 583 l 1,124,-1
 185 582 l 1,125,126
 185 542 185 542 185 505 c 1,114,-1
448 791 m 1,127,128
 447 833 447 833 445 872 c 1,129,-1
 356 803 l 1,130,-1
 185 693 l 1,131,-1
 185 610 l 2,132,133
 185 600 185 600 185 591 c 1,134,-1
 282 659 l 1,135,-1
 402 759 l 1,136,-1
 448 791 l 1,127,128
445 881 m 1,137,138
 443 927 443 927 439 970 c 1,139,-1
 356 876 l 2,140,141
 329 845 329 845 326 843 c 2,142,-1
 236 783 l 1,143,-1
 185 752 l 1,144,145
 185 731 185 731 185 708 c 2,146,-1
 185 702 l 1,147,-1
 352 809 l 1,148,149
 399 845 399 845 445 881 c 1,137,138
438 981 m 0,150,151
 435 1010 435 1010 432 1039 c 1,152,153
 390 1000 390 1000 376 988 c 2,154,-1
 185 835 l 1,155,156
 185 799 185 799 185 760 c 1,157,-1
 232 789 l 2,158,159
 277 819 277 819 321 849 c 1,160,-1
 436 979 l 2,161,162
 437 980 437 980 438 981 c 0,150,151
431 1051 m 1,163,164
 427 1082 427 1082 423 1111 c 1,165,-1
 291 996 l 1,166,-1
 184 921 l 1,167,168
 184 884 184 884 185 844 c 1,169,170
 278 919 278 919 371 994 c 1,171,-1
 431 1051 l 1,163,164
421 1120 m 1,172,173
 415 1161 415 1161 407 1198 c 1,174,-1
 341 1151 l 1,175,-1
 246 1076 l 2,176,177
 214 1053 214 1053 183 1030 c 1,178,179
 184 982 184 982 184 930 c 1,180,181
 235 966 235 966 287 1002 c 1,182,-1
 421 1120 l 1,172,173
405 1206 m 1,183,184
 400 1229 400 1229 395 1252 c 1,185,-1
 381 1236 l 1,186,-1
 221 1131 l 1,187,-1
 182 1100 l 1,188,189
 183 1071 183 1071 183 1039 c 1,190,-1
 242 1082 l 1,191,-1
 337 1157 l 1,192,-1
 405 1206 l 1,183,184
392 1261 m 1,193,194
 379 1309 379 1309 364 1351 c 1,195,196
 340 1334 340 1334 316 1316 c 2,197,-1
 186 1211 l 2,198,199
 183 1209 183 1209 180 1206 c 0,200,201
 181 1161 181 1161 182 1109 c 1,202,-1
 217 1137 l 1,203,204
 297 1189 297 1189 376 1242 c 1,205,-1
 392 1261 l 1,193,194
361 1357 m 1,206,207
 352 1379 352 1379 343 1400 c 1,208,-1
 317 1366 l 1,209,-1
 178 1255 l 1,210,211
 179 1236 179 1236 179 1215 c 1,212,-1
 182 1217 l 1,213,-1
 312 1322 l 1,214,-1
 361 1357 l 1,206,207
339 1409 m 1,215,216
 326 1436 326 1436 311 1460 c 1,217,-1
 174 1336 l 1,218,219
 175 1312 175 1312 177 1284 c 0,220,221
 177 1275 177 1275 178 1264 c 1,222,-1
 311 1372 l 1,223,224
 327 1393 327 1393 339 1409 c 1,215,216
307 1466 m 1,225,226
 296 1483 296 1483 283 1499 c 1,227,-1
 211 1446 l 2,228,229
 211 1445 211 1445 168 1412 c 1,230,231
 171 1382 171 1382 174 1347 c 1,232,-1
 307 1466 l 1,225,226
279 1505 m 1,233,234
 263 1525 263 1525 244 1542 c 1,235,236
 196 1503 196 1503 161 1473 c 1,237,238
 165 1450 165 1450 167 1421 c 1,239,240
 188 1437 188 1437 207 1452 c 2,241,-1
 279 1505 l 1,233,234
238 1548 m 1,242,243
 216 1567 216 1567 193 1580 c 1,244,-1
 148 1534 l 1,245,246
 154 1512 154 1512 159 1482 c 1,247,-1
 238 1548 l 1,242,243
185 1585 m 1,248,249
 154 1602 154 1602 124 1613 c 1,250,-1
 104 1596 l 1,251,252
 112 1592 112 1592 116 1588 c 0,253,254
 138 1566 138 1566 143 1548 c 0,255,256
 144 1545 144 1545 145 1542 c 1,257,-1
 185 1585 l 1,248,249
115 1617 m 1,258,259
 91 1625 91 1625 68 1630 c 1,260,261
 58 1622 58 1622 49 1615 c 1,262,263
 78 1609 78 1609 96 1600 c 1,264,-1
 115 1617 l 1,258,259
54 1632 m 1,265,266
 39 1634 39 1634 25 1636 c 1,267,-1
 25 1619 l 1,268,269
 31 1618 31 1618 36 1617 c 1,270,-1
 54 1632 l 1,265,266
EndSplineSet
Validated: 3073
Layer: 3
SplineSet
6 1602 m 4,0,-1
 6 1656 l 5,1,2
 100 1654 100 1654 198.5 1599 c 132,-1,3
 297 1544 297 1544 352 1427 c 4,4,5
 406 1310 406 1310 437 1131 c 4,6,7
 468 951 468 951 468 708 c 132,-1,8
 468 465 468 465 437 286 c 4,9,10
 406 108 406 108 352 -10 c 4,11,12
 297 -128 297 -128 197 -185 c 4,13,14
 100 -240 100 -240 6 -242 c 5,15,-1
 6 -184 l 5,16,17
 31 -183 31 -183 69 -173 c 4,18,19
 113 -161 113 -161 126 -124 c 4,20,21
 138 -89 138 -89 146 -29 c 132,-1,22
 154 31 154 31 158 131 c 4,23,24
 166 329 166 329 166 708 c 4,25,26
 166 1090 166 1090 158 1286 c 4,27,28
 150 1473 150 1473 126 1541 c 4,29,30
 112 1580 112 1580 68 1590 c 4,31,32
 12 1602 12 1602 6 1602 c 4,0,-1
EndSplineSet
EndChar

StartChar: asterisk
Encoding: 42 42 10
Width: 728
VWidth: 1778
GlyphClass: 2
Flags: W
LayerCount: 4
Back
SplineSet
362 614 m 260,0,1
 328 614 328 614 307 635 c 132,-1,2
 286 656 286 656 286 682 c 260,3,4
 286 710 286 710 297 743 c 132,-1,5
 308 776 308 776 322 814 c 4,6,7
 328 830 328 830 335 847 c 132,-1,8
 342 864 342 864 344 882 c 5,9,10
 332 870 332 870 320 857 c 132,-1,11
 308 844 308 844 296 828 c 4,12,13
 286 814 286 814 271 795 c 132,-1,14
 256 776 256 776 240 761 c 132,-1,15
 224 746 224 746 204 734 c 132,-1,16
 184 722 184 722 166 722 c 4,17,18
 150 722 150 722 136 730 c 132,-1,19
 122 738 122 738 112 749 c 132,-1,20
 102 760 102 760 96 774 c 132,-1,21
 90 788 90 788 90 802 c 4,22,23
 90 830 90 830 108 847 c 132,-1,24
 126 864 126 864 153 874 c 132,-1,25
 180 884 180 884 209 888 c 132,-1,26
 238 892 238 892 258 894 c 4,27,28
 276 896 276 896 294 900 c 132,-1,29
 312 904 312 904 330 910 c 5,30,31
 298 920 298 920 258 926 c 4,32,33
 236 928 236 928 206 933 c 132,-1,34
 176 938 176 938 151 948 c 132,-1,35
 126 958 126 958 108 974 c 132,-1,37
 90 990 90 990 90 1018 c 4,38,39
 90 1032 90 1032 96 1047 c 132,-1,40
 102 1062 102 1062 113 1073 c 132,-1,41
 124 1084 124 1084 138 1091 c 132,-1,42
 152 1098 152 1098 166 1098 c 4,43,44
 182 1098 182 1098 202 1086 c 132,-1,45
 222 1074 222 1074 239 1057 c 132,-1,46
 256 1040 256 1040 271 1023 c 132,-1,47
 286 1006 286 1006 296 994 c 4,48,49
 308 980 308 980 320 965 c 132,-1,50
 332 950 332 950 344 938 c 5,51,52
 340 956 340 956 335 973 c 132,-1,53
 330 990 330 990 322 1008 c 4,54,55
 308 1044 308 1044 297 1077 c 132,-1,56
 286 1110 286 1110 286 1136 c 260,57,58
 286 1164 286 1164 307 1185 c 132,-1,59
 328 1206 328 1206 362 1206 c 260,60,61
 396 1206 396 1206 416 1186 c 132,-1,62
 436 1166 436 1166 436 1136 c 4,63,64
 436 1108 436 1108 426 1075 c 132,-1,65
 416 1042 416 1042 400 1008 c 4,66,67
 388 976 388 976 378 938 c 5,68,69
 390 950 390 950 404 963 c 132,-1,70
 418 976 418 976 428 992 c 4,71,72
 442 1010 442 1010 457 1029 c 132,-1,73
 472 1048 472 1048 488 1063 c 132,-1,74
 504 1078 504 1078 521 1088 c 132,-1,75
 538 1098 538 1098 558 1098 c 4,76,77
 574 1098 574 1098 587 1091 c 132,-1,78
 600 1084 600 1084 611 1072 c 132,-1,79
 622 1060 622 1060 627 1046 c 132,-1,80
 632 1032 632 1032 632 1018 c 4,81,82
 632 992 632 992 614 975 c 132,-1,83
 596 958 596 958 569 948 c 132,-1,84
 542 938 542 938 514 933 c 132,-1,85
 486 928 486 928 466 926 c 4,86,87
 448 924 448 924 430 920 c 132,-1,88
 412 916 412 916 396 910 c 5,89,90
 414 906 414 906 431 902 c 132,-1,91
 448 898 448 898 466 894 c 4,92,93
 488 890 488 890 517 885 c 132,-1,94
 546 880 546 880 572 870 c 132,-1,95
 598 860 598 860 616 844 c 132,-1,97
 634 828 634 828 632 802 c 4,98,99
 632 788 632 788 626 773 c 132,-1,100
 620 758 620 758 610 747 c 132,-1,101
 600 736 600 736 587 729 c 132,-1,102
 574 722 574 722 558 722 c 4,103,104
 538 722 538 722 519 734 c 132,-1,105
 500 746 500 746 482 763 c 132,-1,106
 464 780 464 780 450 798 c 132,-1,107
 436 816 436 816 428 830 c 4,108,109
 418 844 418 844 405 857 c 132,-1,110
 392 870 392 870 378 882 c 5,111,112
 386 846 386 846 400 814 c 4,113,114
 414 778 414 778 425 745 c 132,-1,115
 436 712 436 712 436 682 c 4,116,117
 436 654 436 654 416 634 c 132,-1,118
 396 614 396 614 362 614 c 260,0,1
EndSplineSet
Fore
SplineSet
362 614 m 128,-1,1
 328 614 328 614 307 635 c 128,-1,2
 286 656 286 656 286 683 c 0,3,4
 286 728 286 728 314 796 c 128,-1,5
 342 864 342 864 344 882 c 1,6,7
 314 852 314 852 300 833 c 128,-1,8
 286 814 286 814 271 795 c 128,-1,9
 256 776 256 776 240 761 c 0,10,11
 198 722 198 722 174 722 c 128,-1,12
 150 722 150 722 136 730 c 128,-1,13
 122 738 122 738 112 749 c 0,14,15
 90 773 90 773 90 801.5 c 128,-1,16
 90 830 90 830 108 847 c 128,-1,17
 126 864 126 864 153 874 c 0,18,19
 188 887 188 887 232 892 c 0,20,21
 293 898 293 898 330 910 c 1,22,23
 298 920 298 920 267 924 c 128,-1,24
 236 928 236 928 206 933 c 128,-1,25
 176 938 176 938 151 948 c 0,26,27
 90 972 90 972 90 1018 c 0,28,29
 90 1067 90 1067 138 1091 c 0,30,31
 152 1098 152 1098 167 1098 c 128,-1,32
 182 1098 182 1098 202 1086 c 128,-1,33
 222 1074 222 1074 239 1057 c 0,34,35
 276 1020 276 1020 304 985 c 128,-1,36
 332 950 332 950 344 938 c 1,37,38
 335 980 335 980 321 1012 c 0,39,40
 286 1098 286 1098 286 1131 c 128,-1,41
 286 1164 286 1164 307 1185 c 128,-1,42
 328 1206 328 1206 362 1206 c 128,-1,43
 396 1206 396 1206 416 1186 c 128,-1,44
 436 1166 436 1166 436 1137 c 0,45,46
 436 1085 436 1085 400 1008 c 0,47,48
 388 976 388 976 378 938 c 1,49,50
 390 950 390 950 404 963 c 128,-1,51
 418 976 418 976 430 993 c 128,-1,52
 442 1010 442 1010 457 1029 c 128,-1,53
 472 1048 472 1048 488 1063 c 0,54,55
 525 1098 525 1098 549.5 1098 c 128,-1,56
 574 1098 574 1098 587 1091 c 128,-1,57
 600 1084 600 1084 611 1072 c 0,58,59
 632 1049 632 1049 632 1020.5 c 128,-1,60
 632 992 632 992 614 975 c 128,-1,61
 596 958 596 958 569 948 c 0,62,63
 526 932 526 932 487 928 c 0,64,65
 428 922 428 922 396 910 c 1,66,67
 414 906 414 906 431 902 c 128,-1,68
 448 898 448 898 468 894 c 128,-1,69
 488 890 488 890 517 885 c 128,-1,70
 546 880 546 880 572 870 c 0,71,72
 632 847 632 847 632 806 c 0,73,74
 632 804 632 804 632 802 c 0,75,76
 632 753 632 753 587 729 c 0,77,78
 574 722 574 722 556 722 c 128,-1,79
 538 722 538 722 519 734 c 128,-1,80
 500 746 500 746 482 763 c 0,81,82
 448 795 448 795 433 820 c 0,83,84
 413 852 413 852 378 882 c 1,85,86
 386 846 386 846 400 812 c 0,87,88
 436 725 436 725 436 689.5 c 128,-1,89
 436 654 436 654 416 634 c 128,-1,0
 396 614 396 614 362 614 c 128,-1,1
362 1181 m 0,90,91
 338 1182 338 1182 324 1168 c 0,92,93
 311 1155 311 1155 311 1137 c 1,94,-1
 337 1157 l 1,95,-1
 370 1181 l 1,96,97
 366 1181 366 1181 362 1181 c 0,90,91
306 942 m 1,98,99
 303 945 303 945 280 974 c 0,100,101
 276 979 276 979 273 983 c 1,102,-1
 231 954 l 1,103,104
 240 953 240 953 250 952 c 0,105,106
 275 950 275 950 306 942 c 1,98,99
184 751 m 1,107,108
 195 755 195 755 207 765 c 1,109,-1
 184 751 l 1,107,108
233 790 m 0,110,111
 253 811 253 811 276 843 c 0,112,113
 289 860 289 860 296 867.5 c 128,-1,114
 303 875 303 875 304 877 c 1,115,116
 282 872 282 872 262 870 c 0,117,118
 240 867 240 867 221 864 c 1,119,-1
 119 783 l 1,120,121
 127 764 127 764 148 752 c 0,122,123
 155 747 155 747 164 747 c 1,124,-1
 167 749 l 1,125,-1
 232 789 l 2,126,127
 232 790 232 790 233 790 c 0,110,111
117 790 m 1,128,129
 161 825 161 825 205 861 c 1,130,131
 115 842 115 842 115 806 c 0,132,133
 115 798 115 798 117 790 c 1,128,129
204 1054 m 1,134,135
 196 1060 196 1060 190 1064 c 0,136,137
 174 1073 174 1073 166 1073 c 128,-1,138
 158 1073 158 1073 142 1065 c 0,139,140
 115 1051 115 1051 115 1028 c 0,141,142
 115 1027 115 1027 115 1026 c 0,143,144
 115 1009 115 1009 125 996 c 1,145,-1
 204 1054 l 1,134,135
210 1050 m 1,146,147
 170 1020 170 1020 130 990 c 1,148,149
 155 965 155 965 221 955 c 1,150,151
 245 972 245 972 268 989 c 1,152,153
 250 1010 250 1010 232 1029 c 0,154,155
 220 1042 220 1042 210 1050 c 1,146,147
311 1127 m 1,156,157
 312 1097 312 1097 332 1051 c 0,158,159
 333 1047 333 1047 335 1044 c 1,160,-1
 409 1109 l 1,161,162
 411 1124 411 1124 411 1136 c 0,163,164
 411 1171 411 1171 380 1179 c 1,165,-1
 341 1151 l 1,166,-1
 311 1127 l 1,156,157
338 1037 m 1,167,168
 352 1002 352 1002 358 983 c 1,169,170
 363 987 363 987 367 991 c 0,171,172
 375 1014 375 1014 382 1030 c 0,173,174
 399 1066 399 1066 406 1097 c 1,175,-1
 338 1037 l 1,167,168
606 1013 m 2,176,177
 607 1017 607 1017 607 1022 c 0,178,179
 607 1041 607 1041 591 1057 c 0,180,181
 577 1071 577 1071 563 1073 c 1,182,-1
 549 1060 l 1,183,-1
 450 980 l 2,184,185
 449 979 449 979 449 978 c 0,186,187
 437 960 437 960 428.5 952 c 128,-1,188
 420 944 420 944 419 943 c 1,189,190
 440 948 440 948 462 951 c 0,191,192
 525 957 525 957 560 972 c 0,193,194
 568 978 568 978 576 984 c 2,195,-1
 606 1013 l 2,176,177
546 748 m 1,196,197
 551 747 551 747 556 747 c 0,198,199
 588 747 588 747 603 782 c 0,200,201
 605 788 605 788 606 793 c 2,202,203
 578 771 578 771 546 748 c 1,196,197
607 803 m 1,204,-1
 607 807 l 2,205,206
 607 819 607 819 599 825 c 0,207,208
 580 842 580 842 549 852 c 1,209,-1
 478 802 l 1,210,211
 501 774 501 774 532 755 c 0,212,213
 535 753 535 753 537 752 c 2,214,-1
 602 799 l 1,215,-1
 607 803 l 1,204,-1
540 855 m 1,216,217
 530 858 530 858 518 859 c 0,218,219
 466 868 466 868 454 871 c 2,220,-1
 446 873 l 1,221,-1
 433 863 l 1,222,223
 446 849 446 849 450 842 c 0,224,225
 460 824 460 824 473 808 c 1,226,-1
 540 855 l 1,216,217
437 875 m 1,227,228
 422 879 422 879 418 879 c 1,229,230
 424 873 424 873 428 868 c 1,231,232
 433 872 433 872 437 875 c 1,227,228
550 1072 m 1,233,234
 523 1066 523 1066 488 1026 c 1,235,236
 512 1045 512 1045 544 1066 c 1,237,-1
 550 1072 l 1,233,234
369 822 m 1,238,239
 364 836 364 836 361 846 c 1,240,241
 352 824 352 824 345 804 c 1,242,-1
 352 809 l 2,243,244
 360 815 360 815 369 822 c 1,238,239
340 793 m 1,245,246
 311 716 311 716 311 694 c 0,247,248
 311 689 311 689 311 684 c 1,249,-1
 396 754 l 1,250,251
 394 762 394 762 390 772 c 0,252,253
 380 798 380 798 372 815 c 1,254,-1
 356 803 l 1,255,-1
 340 793 l 1,245,246
313 675 m 1,256,257
 316 660 316 660 324 652 c 0,258,259
 338 638 338 638 362 639 c 0,260,261
 374 639 374 639 382 642 c 2,262,-1
 402 655 l 1,263,264
 411 667 411 667 411 686 c 0,265,266
 411 711 411 711 399 747 c 1,267,-1
 313 675 l 1,256,257
EndSplineSet
Validated: 3073
Layer: 3
SplineSet
362 620 m 132,-1,0
 330 620 330 620 311 639 c 132,-1,1
 292 658 292 658 292 683.5 c 132,-1,2
 292 709 292 709 303 741 c 4,3,4
 323 802 323 802 341 845 c 4,5,6
 348 862 348 862 350 881 c 6,7,-1
 352 898 l 5,8,-1
 340 886 l 6,9,10
 309 856 309 856 291 832 c 4,11,12
 264 793 264 793 239 768 c 4,13,14
 223 752 223 752 201 739 c 4,15,16
 182 728 182 728 167 728 c 132,-1,17
 152 728 152 728 139 735 c 4,18,19
 113 750 113 750 102 776 c 4,20,21
 96 789 96 789 96 802 c 4,22,23
 96 827 96 827 111.5 842.5 c 132,-1,24
 127 858 127 858 155 868 c 4,25,26
 181 878 181 878 210 882 c 132,-1,27
 239 886 239 886 258 888 c 132,-1,28
 277 890 277 890 295.5 894 c 132,-1,29
 314 898 314 898 350 910 c 5,30,-1
 332 916 l 6,31,32
 299 926 299 926 259 932 c 6,33,34
 237 934 237 934 207 939 c 4,35,36
 145 949 145 949 113 978 c 4,37,38
 96 993 96 993 96 1018 c 4,39,40
 96 1031 96 1031 101.5 1045 c 132,-1,41
 107 1059 107 1059 117.5 1069 c 132,-1,42
 128 1079 128 1079 140.5 1085.5 c 132,-1,43
 153 1092 153 1092 166.5 1092 c 132,-1,44
 180 1092 180 1092 199.5 1080.5 c 132,-1,45
 219 1069 219 1069 235 1053 c 4,46,47
 259 1028 259 1028 292 989 c 4,48,49
 303 976 303 976 315.5 961 c 132,-1,50
 328 946 328 946 340 934 c 6,51,-1
 354 919 l 5,52,-1
 350 939 l 6,53,54
 341 981 341 981 328 1010 c 4,55,56
 327 1010 327 1010 303 1078 c 4,57,58
 292 1110 292 1110 292 1136 c 132,-1,59
 292 1162 292 1162 311 1181 c 132,-1,60
 330 1200 330 1200 362 1200 c 132,-1,61
 394 1200 394 1200 412 1182 c 132,-1,62
 430 1164 430 1164 430 1136 c 4,63,64
 430 1086 430 1086 395 1011 c 5,65,66
 389 997 389 997 372 940 c 5,67,-1
 367 918 l 5,68,69
 394 946 394 946 408.5 959 c 132,-1,70
 423 972 423 972 433 989 c 4,71,72
 447 1006 447 1006 462 1025 c 4,73,74
 493 1065 493 1065 524 1083 c 4,75,76
 540 1092 540 1092 558 1092 c 4,77,78
 583 1092 583 1092 604 1071 c 4,79,80
 626 1049 626 1049 626 1018 c 4,81,82
 626 996 626 996 611 981 c 4,83,84
 573 943 573 943 465 932 c 4,85,86
 426 928 426 928 394 916 c 6,87,-1
 375 909 l 5,88,89
 413 900 413 900 430 896 c 132,-1,90
 447 892 447 892 459.5 889.5 c 132,-1,91
 472 887 472 887 516 879 c 4,92,93
 580 869 580 869 612 840 c 4,94,95
 626 827 626 827 626 807 c 4,96,97
 626 789 626 789 620 775 c 4,98,99
 610 748 610 748 584 734 c 4,100,101
 572 728 572 728 556 728 c 132,-1,102
 540 728 540 728 522 739 c 132,-1,103
 504 750 504 750 486 767 c 4,104,105
 452 799 452 799 433 833 c 4,106,107
 425 845 425 845 409 861 c 4,108,109
 396 874 396 874 368 898 c 5,110,-1
 372 881 l 6,111,112
 380 844 380 844 394 812 c 4,113,114
 395 812 395 812 419 744 c 4,115,116
 430 712 430 712 430 684 c 132,-1,117
 430 656 430 656 412 638 c 132,-1,118
 394 620 394 620 362 620 c 132,-1,0
EndSplineSet
EndChar

StartChar: plus
Encoding: 43 43 11
Width: 888
GlyphClass: 2
Flags: W
LayerCount: 4
Back
SplineSet
382 428 m 5,0,-1
 126 428 l 5,1,-1
 126 552 l 5,2,3
 126 552 126 552 382 552 c 5,4,5
 382 552 382 552 382 808 c 5,6,-1
 506 808 l 5,7,-1
 506 552 l 5,8,-1
 762 552 l 5,9,-1
 762 428 l 5,10,-1
 506 428 l 5,11,12
 506 428 506 428 506 174 c 5,13,-1
 382 174 l 5,14,-1
 382 428 l 5,0,-1
EndSplineSet
Fore
SplineSet
382 428 m 5,0,-1
 126 428 l 5,1,-1
 126 552 l 5,2,-1
 382 552 l 5,3,-1
 382 808 l 5,4,-1
 506 808 l 5,5,-1
 506 552 l 5,6,-1
 762 552 l 5,7,-1
 762 428 l 5,8,-1
 506 428 l 5,9,-1
 506 174 l 5,10,-1
 382 174 l 5,11,-1
 382 428 l 5,0,-1
382 453 m 6,12,13
 392 454 392 454 400 446 c 4,14,15
 401 445 401 445 401 444 c 6,16,-1
 519 527 l 5,17,-1
 506 527 l 6,18,19
 496 527 496 527 488.5 534.5 c 132,-1,20
 481 542 481 542 481 552 c 6,21,-1
 481 562 l 5,22,-1
 366 483 l 5,23,-1
 326 453 l 5,24,-1
 382 453 l 6,12,13
217 527 m 5,25,-1
 151 527 l 5,26,-1
 151 481 l 5,27,-1
 217 527 l 5,25,-1
229 527 m 5,28,29
 192 501 192 501 151 473 c 5,30,-1
 151 453 l 5,31,-1
 213 453 l 5,32,-1
 320 527 l 5,33,-1
 229 527 l 5,28,29
437 783 m 5,34,-1
 407 783 l 5,35,-1
 407 762 l 5,36,-1
 437 783 l 5,34,-1
450 783 m 5,37,-1
 407 754 l 5,38,-1
 407 659 l 5,39,-1
 472 704 l 5,40,-1
 481 711 l 5,41,-1
 481 783 l 5,42,-1
 450 783 l 5,37,-1
481 641 m 5,43,-1
 481 702 l 5,44,45
 479 700 479 700 476 698 c 4,46,47
 445 677 445 677 407 650 c 5,48,-1
 407 587 l 5,49,-1
 432 604 l 6,50,51
 457 622 457 622 481 641 c 5,43,-1
407 578 m 5,52,-1
 407 552 l 6,53,54
 407 542 407 542 399.5 534.5 c 132,-1,55
 392 527 392 527 382 527 c 6,56,-1
 333 527 l 5,57,-1
 226 453 l 5,58,-1
 314 453 l 5,59,-1
 362 489 l 5,60,-1
 481 570 l 5,61,-1
 481 632 l 5,62,-1
 436 598 l 5,63,-1
 407 578 l 5,52,-1
714 453 m 5,64,-1
 737 453 l 5,65,-1
 737 472 l 5,66,-1
 714 453 l 5,64,-1
701 453 m 5,67,-1
 737 483 l 5,68,-1
 737 527 l 5,69,-1
 726 527 l 5,70,-1
 627 453 l 5,71,-1
 701 453 l 5,67,-1
615 453 m 5,72,-1
 714 527 l 5,73,-1
 648 527 l 5,74,-1
 550 453 l 5,75,-1
 615 453 l 5,72,-1
538 453 m 5,76,-1
 636 527 l 5,77,-1
 580 527 l 5,78,-1
 407 398 l 5,79,-1
 407 354 l 5,80,-1
 481 410 l 5,81,-1
 481 428 l 6,82,83
 481 438 481 438 488.5 445.5 c 132,-1,84
 496 453 496 453 506 453 c 6,85,-1
 538 453 l 5,76,-1
441 199 m 5,86,-1
 481 199 l 5,87,-1
 481 229 l 5,88,-1
 441 199 l 5,86,-1
428 199 m 5,89,-1
 481 238 l 5,90,-1
 481 279 l 5,91,-1
 407 229 l 5,92,-1
 407 199 l 5,93,-1
 428 199 l 5,89,-1
407 238 m 5,94,-1
 481 288 l 5,95,-1
 481 344 l 5,96,-1
 407 289 l 5,97,-1
 407 238 l 5,94,-1
407 298 m 5,98,-1
 481 353 l 5,99,-1
 481 401 l 5,100,-1
 407 345 l 5,101,-1
 407 298 l 5,98,-1
407 407 m 5,102,-1
 568 527 l 5,103,-1
 531 527 l 5,104,-1
 405 438 l 5,105,106
 407 433 407 433 407 428 c 6,107,-1
 407 407 l 5,102,-1
EndSplineSet
Validated: 2049
Layer: 3
SplineSet
132 434 m 5,0,-1
 132 546 l 5,1,-1
 388 546 l 5,2,-1
 388 802 l 5,3,-1
 500 802 l 5,4,-1
 500 546 l 5,5,-1
 756 546 l 5,6,-1
 756 434 l 5,7,-1
 500 434 l 5,8,-1
 500 180 l 5,9,-1
 388 180 l 5,10,-1
 388 434 l 5,11,-1
 132 434 l 5,0,-1
EndSplineSet
EndChar

StartChar: comma
Encoding: 44 44 12
Width: 618
VWidth: 1454
GlyphClass: 2
Flags: W
LayerCount: 4
Back
SplineSet
118 160 m 4,0,1
 118 196 118 196 134 227 c 132,-1,2
 150 258 150 258 174 282 c 132,-1,3
 198 306 198 306 231 319 c 132,-1,4
 264 332 264 332 304 332 c 4,5,6
 350 332 350 332 386 318 c 132,-1,7
 422 304 422 304 449 277 c 132,-1,8
 476 250 476 250 491 210 c 132,-1,9
 506 170 506 170 506 118 c 4,10,11
 506 34 506 34 479 -30 c 132,-1,12
 452 -94 452 -94 407 -142 c 132,-1,13
 362 -190 362 -190 306 -222 c 132,-1,14
 250 -254 250 -254 188 -268 c 5,15,-1
 168 -242 l 5,16,17
 224 -222 224 -222 260 -192 c 132,-1,18
 296 -162 296 -162 319 -130 c 132,-1,19
 342 -98 342 -98 351 -71 c 132,-1,20
 360 -44 360 -44 360 -28 c 4,21,22
 360 -10 360 -10 342 -3 c 132,-1,23
 324 4 324 4 296 8 c 4,24,25
 270 12 270 12 238 19 c 132,-1,26
 206 26 206 26 180 41 c 132,-1,27
 154 56 154 56 136 84 c 132,-1,28
 118 112 118 112 118 160 c 4,0,1
EndSplineSet
Fore
SplineSet
136 84 m 128,-1,1
 118 112 118 112 118 154 c 128,-1,2
 118 196 118 196 134 227 c 128,-1,3
 150 258 150 258 174 282 c 0,4,5
 224 332 224 332 287 332 c 128,-1,6
 350 332 350 332 386 318 c 128,-1,7
 422 304 422 304 449 277 c 0,8,9
 506 220 506 220 506 127 c 128,-1,10
 506 34 506 34 479 -30 c 128,-1,11
 452 -94 452 -94 407 -142 c 0,12,13
 316 -239 316 -239 188 -268 c 1,14,-1
 168 -242 l 1,15,16
 263 -208 263 -208 319 -130 c 0,17,18
 360 -73 360 -73 360 -41.5 c 128,-1,19
 360 -10 360 -10 342 -3 c 128,-1,20
 324 4 324 4 297 8 c 128,-1,21
 270 12 270 12 238 19 c 128,-1,22
 206 26 206 26 180 41 c 128,-1,0
 154 56 154 56 136 84 c 128,-1,1
269 304 m 1,23,24
 222 295 222 295 188 261 c 0,25,26
 168 241 168 241 157 220 c 1,27,-1
 269 304 l 1,23,24
284 306 m 1,28,-1
 151 206 l 1,29,30
 143 187 143 187 143 167 c 0,31,32
 143 161 143 161 143 156 c 1,33,-1
 341 304 l 1,34,35
 325 307 325 307 307 307 c 0,36,37
 295 307 295 307 284 306 c 1,28,-1
282 -206 m 2,38,39
 281 -207 281 -207 280 -208 c 1,40,41
 341 -176 341 -176 384 -131 c 1,42,-1
 282 -206 l 2,38,39
324 -166 m 1,43,-1
 406 -105 l 1,44,45
 437 -66 437 -66 456 -20 c 0,46,47
 463 -2 463 -2 469 15 c 1,48,-1
 384 -47 l 1,49,50
 376 -108 376 -108 324 -166 c 1,43,-1
385 -37 m 1,51,-1
 472 27 l 1,52,53
 479 54 479 54 480 82 c 1,54,55
 409 31 409 31 373 5 c 1,56,57
 385 -9 385 -9 385 -27 c 0,58,59
 385 -32 385 -32 385 -37 c 1,51,-1
481 91 m 1,60,61
 481 96 481 96 481 102 c 0,62,63
 481 124 481 124 479 143 c 1,64,-1
 366 63 l 1,65,-1
 322 28 l 1,66,67
 357 20 357 20 368 10 c 1,68,-1
 425 51 l 2,69,70
 454 71 454 71 481 91 c 1,60,61
478 151 m 1,71,72
 473 186 473 186 461 214 c 1,73,-1
 234 46 l 1,74,75
 258 40 258 40 288 35 c 0,76,77
 301 33 301 33 312 30 c 1,78,-1
 362 69 l 1,79,-1
 478 151 l 1,71,72
225 49 m 1,80,-1
 458 221 l 1,81,82
 450 237 450 237 439 251 c 1,83,-1
 300 157 l 1,84,-1
 180 72 l 1,85,86
 187 67 187 67 194 62 c 0,87,88
 206 55 206 55 225 49 c 1,80,-1
434 256 m 1,89,90
 419 272 419 272 400 284 c 1,91,-1
 156 101 l 2,92,93
 157 99 157 99 158 97 c 0,94,95
 165 86 165 86 174 77 c 1,96,97
 260 138 260 138 296 163 c 2,98,-1
 434 256 l 1,89,90
153 108 m 1,99,-1
 393 288 l 1,100,101
 385 292 385 292 377 295 c 0,102,103
 364 300 364 300 350 303 c 1,104,-1
 144 147 l 1,105,106
 147 124 147 124 153 108 c 1,99,-1
EndSplineSet
Validated: 2049
Layer: 3
SplineSet
124 160 m 4,0,1
 124 195 124 195 139.5 224.5 c 132,-1,2
 155 254 155 254 178 277.5 c 132,-1,3
 201 301 201 301 233 313.5 c 132,-1,4
 265 326 265 326 304 326 c 4,5,6
 392 326 392 326 445 273 c 4,7,8
 471 247 471 247 485.5 208 c 132,-1,9
 500 169 500 169 500 118 c 4,10,11
 500 35 500 35 473.5 -28 c 132,-1,12
 447 -91 447 -91 402.5 -138 c 132,-1,13
 358 -185 358 -185 301 -218 c 4,14,15
 249 -247 249 -247 190 -261 c 5,16,-1
 178 -245 l 5,17,18
 230 -225 230 -225 265 -195.5 c 132,-1,19
 300 -166 300 -166 323.5 -133.5 c 132,-1,20
 347 -101 347 -101 356.5 -73 c 132,-1,21
 366 -45 366 -45 366 -30 c 132,-1,22
 366 -15 366 -15 357 -6 c 4,23,24
 344 7 344 7 298 14 c 4,25,26
 271 18 271 18 239.5 25 c 132,-1,27
 208 32 208 32 183 46 c 132,-1,28
 158 60 158 60 141 87 c 132,-1,29
 124 114 124 114 124 160 c 4,0,1
EndSplineSet
EndChar

StartChar: hyphen
Encoding: 45 45 13
Width: 888
GlyphClass: 2
Flags: W
LayerCount: 4
Back
SplineSet
126 550 m 5,0,-1
 762 550 l 5,1,-1
 762 426 l 5,2,-1
 126 426 l 5,3,-1
 126 550 l 5,0,-1
EndSplineSet
Fore
SplineSet
126 550 m 1,0,-1
 762 550 l 1,1,-1
 762 426 l 1,2,-1
 126 426 l 1,3,-1
 126 550 l 1,0,-1
711 525 m 1,4,-1
 645 525 l 1,5,-1
 547 451 l 1,6,-1
 612 451 l 1,7,-1
 711 525 l 1,4,-1
723 525 m 1,8,-1
 624 451 l 1,9,-1
 699 451 l 1,10,-1
 737 483 l 1,11,-1
 737 525 l 1,12,-1
 723 525 l 1,8,-1
633 525 m 1,13,-1
 577 525 l 1,14,-1
 478 451 l 1,15,-1
 535 451 l 1,16,-1
 633 525 l 1,13,-1
565 525 m 1,17,-1
 528 525 l 1,18,-1
 424 451 l 1,19,-1
 466 451 l 1,20,-1
 565 525 l 1,17,-1
516 525 m 1,21,-1
 428 525 l 1,22,-1
 366 483 l 1,23,-1
 323 451 l 1,24,-1
 411 451 l 1,25,-1
 516 525 l 1,21,-1
415 525 m 1,26,-1
 330 525 l 1,27,-1
 223 451 l 1,28,-1
 311 451 l 1,29,-1
 362 489 l 1,30,-1
 415 525 l 1,26,-1
317 525 m 1,31,-1
 226 525 l 1,32,33
 190 500 190 500 151 473 c 1,34,-1
 151 451 l 1,35,-1
 210 451 l 1,36,-1
 317 525 l 1,31,-1
214 525 m 1,37,-1
 151 525 l 1,38,-1
 151 481 l 1,39,-1
 214 525 l 1,37,-1
711 451 m 1,40,-1
 737 451 l 1,41,-1
 737 472 l 1,42,-1
 711 451 l 1,40,-1
EndSplineSet
Validated: 2049
Layer: 3
SplineSet
756 432 m 5,0,-1
 132 432 l 5,1,-1
 132 544 l 5,2,-1
 756 544 l 5,3,-1
 756 432 l 5,0,-1
EndSplineSet
EndChar

StartChar: period
Encoding: 46 46 14
Width: 624
VWidth: 1500
GlyphClass: 2
Flags: W
LayerCount: 4
Back
SplineSet
124 152 m 260,0,1
 124 190 124 190 140 225 c 132,-1,2
 156 260 156 260 182 286 c 132,-1,3
 208 312 208 312 242 326 c 132,-1,4
 276 340 276 340 318 340 c 4,5,6
 356 340 356 340 391 326 c 132,-1,7
 426 312 426 312 452 286 c 132,-1,8
 478 260 478 260 493 225 c 132,-1,9
 508 190 508 190 508 152 c 260,10,11
 508 114 508 114 493 79 c 132,-1,12
 478 44 478 44 452 18 c 132,-1,13
 426 -8 426 -8 391 -22 c 132,-1,14
 356 -36 356 -36 318 -36 c 4,15,16
 278 -36 278 -36 243 -22 c 132,-1,17
 208 -8 208 -8 182 18 c 132,-1,18
 156 44 156 44 140 79 c 132,-1,19
 124 114 124 114 124 152 c 260,0,1
EndSplineSet
Fore
SplineSet
124 152 m 128,-1,1
 124 190 124 190 140 225 c 128,-1,2
 156 260 156 260 182 286 c 0,3,4
 236 340 236 340 318 340 c 0,5,6
 398 340 398 340 452 286 c 0,7,8
 508 230 508 230 508 152 c 128,-1,9
 508 74 508 74 452 18 c 0,10,11
 398 -36 398 -36 318 -36 c 0,12,13
 193 -36 193 -36 140 79 c 0,14,0
 124 114 124 114 124 152 c 128,-1,1
280 312 m 1,15,16
 209 298 209 298 171 230 c 1,17,-1
 280 312 l 1,15,16
295 314 m 1,18,-1
 163 215 l 0,19,20
 151 189 151 189 149 160 c 1,21,-1
 350 312 l 1,22,23
 334 315 334 315 317 315 c 0,24,25
 306 315 306 315 295 314 c 1,18,-1
357 -7 m 1,26,27
 370 -4 370 -4 382 1 c 0,28,29
 412 14 412 14 434 36 c 0,30,31
 448 50 448 50 459 67 c 1,32,33
 387 15 387 15 357 -7 c 1,26,27
467 81 m 0,34,35
 469 84 469 84 470 88 c 0,36,37
 482 116 482 116 483 146 c 1,38,-1
 366 63 l 1,39,-1
 277 -7 l 1,40,41
 296 -11 296 -11 317 -11 c 0,42,43
 329 -11 329 -11 341 -9 c 1,44,-1
 425 51 l 2,45,46
 447 66 447 66 467 81 c 0,34,35
483 155 m 1,47,48
 482 187 482 187 470 216 c 0,49,50
 469 218 469 218 468 220 c 1,51,-1
 208 28 l 1,52,53
 228 11 228 11 252 1 c 0,54,55
 260 -2 260 -2 268 -4 c 1,56,-1
 362 69 l 1,57,-1
 483 155 l 1,47,48
203 32 m 2,58,-1
 465 226 l 1,59,60
 457 242 457 242 446 255 c 1,61,-1
 300 157 l 1,62,-1
 174 68 l 1,63,64
 186 50 186 50 200 36 c 0,65,66
 202 34 202 34 203 32 c 2,58,-1
441 261 m 1,67,68
 438 265 438 265 434 268 c 0,69,70
 422 280 422 280 408 289 c 1,71,-1
 157 102 l 1,72,73
 159 94 159 94 163 88 c 0,74,75
 166 81 166 81 170 74 c 1,76,77
 259 137 259 137 296 163 c 2,78,-1
 441 261 l 1,67,68
155 110 m 1,79,-1
 401 293 l 1,80,81
 382 304 382 304 360 310 c 1,82,-1
 149 151 l 1,83,84
 149 130 149 130 155 110 c 1,79,-1
EndSplineSet
Validated: 2049
Layer: 3
SplineSet
130 152 m 132,-1,0
 130 189 130 189 145.5 223 c 132,-1,1
 161 257 161 257 186 282 c 132,-1,2
 211 307 211 307 244 320.5 c 132,-1,3
 277 334 277 334 316 334 c 132,-1,4
 355 334 355 334 389 320.5 c 132,-1,5
 423 307 423 307 448 282 c 132,-1,6
 473 257 473 257 487.5 223 c 132,-1,7
 502 189 502 189 502 152 c 132,-1,8
 502 115 502 115 487.5 81 c 132,-1,9
 473 47 473 47 448 22 c 132,-1,10
 423 -3 423 -3 389 -16.5 c 132,-1,11
 355 -30 355 -30 317 -30 c 132,-1,12
 279 -30 279 -30 245 -16.5 c 132,-1,13
 211 -3 211 -3 186 22 c 132,-1,14
 161 47 161 47 145.5 81 c 132,-1,15
 130 115 130 115 130 152 c 132,-1,0
EndSplineSet
EndChar

StartChar: slash
Encoding: 47 47 15
Width: 804
GlyphClass: 2
Flags: W
LayerCount: 4
Back
SplineSet
832 1536 m 5,0,-1
 932 1484 l 5,1,-1
 -22 -484 l 5,2,-1
 -126 -432 l 5,3,-1
 832 1536 l 5,0,-1
EndSplineSet
Fore
SplineSet
832 1536 m 5,0,-1
 932 1484 l 5,1,-1
 -22 -484 l 5,2,-1
 -126 -432 l 5,3,-1
 832 1536 l 5,0,-1
871 1487 m 5,4,-1
 843 1502 l 5,5,-1
 805 1424 l 5,6,7
 852 1473 852 1473 867 1484 c 6,8,-1
 871 1487 l 5,4,-1
790 1392 m 5,9,-1
 700 1207 l 5,10,-1
 751 1254 l 5,11,-1
 845 1361 l 5,12,-1
 899 1473 l 5,13,-1
 879 1484 l 5,14,-1
 871 1478 l 5,15,-1
 790 1392 l 5,9,-1
86 -54 m 5,16,-1
 200 30 l 5,17,-1
 241 115 l 5,18,-1
 129 36 l 5,19,-1
 86 -54 l 5,16,-1
79 -68 m 5,20,-1
 26 -176 l 5,21,22
 59 -158 59 -158 92 -141 c 5,23,-1
 132 -110 l 5,24,-1
 193 16 l 5,25,-1
 79 -68 l 5,20,-1
-48 -443 m 5,26,-1
 -19 -420 l 5,27,-1
 39 -302 l 5,28,-1
 -49 -367 l 5,29,-1
 -53 -361 l 5,30,-1
 45 -288 l 5,31,-1
 90 -196 l 5,32,33
 41 -224 41 -224 -9 -252 c 5,34,-1
 -12 -255 l 5,35,-1
 -93 -421 l 5,36,-1
 -48 -443 l 5,26,-1
-41 -446 m 5,37,-1
 -33 -450 l 5,38,-1
 -25 -434 l 5,39,-1
 -41 -446 l 5,37,-1
-6 -242 m 5,40,-1
 96 -185 l 5,41,-1
 124 -126 l 5,42,-1
 96 -148 l 5,43,-1
 20 -189 l 5,44,-1
 -6 -242 l 5,40,-1
137 51 m 5,45,46
 205 99 205 99 248 129 c 5,47,-1
 279 193 l 5,48,-1
 164 107 l 5,49,-1
 137 51 l 5,45,46
171 121 m 5,50,-1
 285 207 l 5,51,-1
 321 280 l 5,52,-1
 206 194 l 5,53,-1
 171 121 l 5,50,-1
213 208 m 5,54,-1
 328 295 l 5,55,-1
 361 363 l 5,56,-1
 247 278 l 5,57,-1
 213 208 l 5,54,-1
254 293 m 5,58,-1
 368 378 l 5,59,-1
 393 430 l 5,60,-1
 283 351 l 5,61,-1
 254 293 l 5,58,-1
290 365 m 5,62,-1
 400 443 l 5,63,-1
 446 537 l 5,64,-1
 366 483 l 5,65,-1
 336 461 l 5,66,-1
 290 365 l 5,62,-1
452 550 m 5,67,-1
 498 645 l 5,68,-1
 436 598 l 5,69,-1
 386 564 l 5,70,-1
 343 475 l 5,71,-1
 362 489 l 5,72,-1
 452 550 l 5,67,-1
505 659 m 5,73,-1
 549 751 l 5,74,75
 515 726 515 726 476 698 c 4,76,77
 459 686 459 686 439 673 c 5,78,-1
 393 577 l 5,79,-1
 432 604 l 6,80,81
 469 631 469 631 505 659 c 5,73,-1
556 765 m 5,82,-1
 672 1006 l 5,83,-1
 642 983 l 5,84,85
 553 854 553 854 551 853 c 6,86,-1
 515 828 l 5,87,-1
 446 686 l 5,88,-1
 472 704 l 5,89,-1
 556 765 l 5,82,-1
680 1021 m 5,90,-1
 728 1119 l 5,91,92
 685 1077 685 1077 644 1038 c 4,93,94
 609 1005 609 1005 594 990 c 5,95,-1
 522 842 l 5,96,-1
 546 859 l 5,97,98
 636 988 636 988 637 989 c 6,99,-1
 680 1021 l 5,90,-1
604 1012 m 5,100,-1
 739 1143 l 5,101,-1
 830 1331 l 5,102,103
 765 1257 765 1257 756 1248 c 6,104,-1
 690 1188 l 5,105,-1
 604 1012 l 5,100,-1
EndSplineSet
Validated: 2049
Layer: 3
SplineSet
-25 -476 m 5,0,-1
 -118 -429 l 5,1,-1
 835 1528 l 5,2,-1
 924 1481 l 5,3,-1
 -25 -476 l 5,0,-1
EndSplineSet
EndChar

StartChar: zero
Encoding: 48 48 16
Width: 1308
GlyphClass: 2
Flags: W
LayerCount: 4
Back
SplineSet
594 711 m 132,-1,1
 594 758 594 758 611 791 c 132,-1,2
 628 824 628 824 654 824 c 132,-1,4
 680 824 680 824 697 791 c 132,-1,5
 714 758 714 758 714 711 c 132,-1,6
 714 664 714 664 697 631 c 132,-1,7
 680 598 680 598 654 598 c 132,-1,9
 628 598 628 598 611 631 c 132,-1,0
 594 664 594 664 594 711 c 132,-1,1
204 708 m 4,10,11
 204 806 204 806 213 901 c 132,-1,12
 222 996 222 996 243 1079 c 132,-1,13
 264 1162 264 1162 298 1231 c 132,-1,14
 332 1300 332 1300 381 1350 c 132,-1,15
 430 1400 430 1400 498 1427 c 132,-1,16
 566 1454 566 1454 656 1454 c 4,17,18
 744 1454 744 1454 811 1427 c 132,-1,19
 878 1400 878 1400 928 1350 c 132,-1,20
 978 1300 978 1300 1011 1231 c 132,-1,21
 1044 1162 1044 1162 1065 1079 c 132,-1,22
 1086 996 1086 996 1095 902 c 132,-1,23
 1104 808 1104 808 1104 708 c 260,24,25
 1104 610 1104 610 1095 516 c 132,-1,26
 1086 422 1086 422 1065 339 c 132,-1,27
 1044 256 1044 256 1011 186 c 132,-1,28
 978 116 978 116 928 66 c 132,-1,29
 878 16 878 16 811 -11 c 132,-1,30
 744 -38 744 -38 656 -38 c 260,31,32
 568 -38 568 -38 499 -11 c 132,-1,33
 430 16 430 16 381 66 c 132,-1,34
 332 116 332 116 298 186 c 132,-1,35
 264 256 264 256 243 339 c 132,-1,36
 222 422 222 422 213 515 c 132,-1,37
 204 608 204 608 204 708 c 4,10,11
656 30 m 132,-1,39
 686 30 686 30 703 61 c 132,-1,40
 720 92 720 92 730 170 c 132,-1,41
 740 248 740 248 743 379 c 132,-1,42
 746 510 746 510 746 708 c 132,-1,44
 746 906 746 906 743 1038 c 132,-1,45
 740 1170 740 1170 730 1247 c 132,-1,46
 720 1324 720 1324 702 1355 c 132,-1,47
 684 1386 684 1386 656 1386 c 4,48,49
 626 1386 626 1386 607 1355 c 132,-1,50
 588 1324 588 1324 579 1247 c 132,-1,51
 570 1170 570 1170 567 1039 c 132,-1,52
 564 908 564 908 564 708 c 132,-1,54
 564 508 564 508 567 378 c 132,-1,55
 570 248 570 248 579 170 c 132,-1,56
 588 92 588 92 607 61 c 132,-1,57
 626 30 626 30 656 30 c 132,-1,39
EndSplineSet
Fore
SplineSet
594 711 m 128,-1,1
 594 758 594 758 611 791 c 128,-1,2
 628 824 628 824 654 824 c 128,-1,3
 680 824 680 824 697 791 c 128,-1,4
 714 758 714 758 714 711 c 128,-1,5
 714 664 714 664 697 631 c 128,-1,6
 680 598 680 598 654 598 c 128,-1,7
 628 598 628 598 611 631 c 128,-1,0
 594 664 594 664 594 711 c 128,-1,1
656 -38 m 0,8,9
 204 -38 204 -38 204 708 c 0,10,11
 204 925 204 925 234 1043.5 c 128,-1,12
 264 1162 264 1162 298 1231 c 128,-1,13
 332 1300 332 1300 381 1350 c 0,14,15
 483 1454 483 1454 656 1454 c 0,16,17
 1104 1454 1104 1454 1104 708 c 0,18,19
 1104 493 1104 493 1074 374.5 c 128,-1,20
 1044 256 1044 256 1011 186 c 128,-1,21
 978 116 978 116 928 66 c 0,22,23
 824 -38 824 -38 656 -38 c 0,8,9
656 30 m 128,-1,25
 686 30 686 30 703 61 c 128,-1,26
 720 92 720 92 730 170 c 128,-1,27
 740 248 740 248 743 379 c 128,-1,28
 746 510 746 510 746 708 c 128,-1,29
 746 906 746 906 743 1038 c 128,-1,30
 740 1170 740 1170 730 1247 c 0,31,32
 712 1386 712 1386 656 1386 c 0,33,34
 595 1386 595 1386 579 1247 c 0,35,36
 564 1119 564 1119 564 813.5 c 128,-1,37
 564 508 564 508 567 378 c 128,-1,38
 570 248 570 248 579 170 c 128,-1,39
 588 92 588 92 607 61 c 128,-1,24
 626 30 626 30 656 30 c 128,-1,25
246 964 m 1,40,41
 240 926 240 926 237 886 c 1,42,43
 304 940 304 940 371 994 c 1,44,-1
 547 1162 l 1,45,46
 549 1196 549 1196 551 1224 c 1,47,-1
 291 996 l 1,48,-1
 246 964 l 1,40,41
553 1236 m 1,49,50
 560 1300 560 1300 570 1334 c 1,51,52
 499 1263 499 1263 496 1261 c 2,53,-1
 341 1151 l 1,54,-1
 274 1098 l 1,55,56
 258 1041 258 1041 247 974 c 1,57,58
 267 988 267 988 287 1002 c 2,59,-1
 553 1236 l 1,49,50
522 1409 m 1,60,61
 451 1385 451 1385 399 1333 c 0,62,63
 346 1279 346 1279 310 1198 c 1,64,65
 343 1220 343 1220 376 1242 c 1,66,-1
 522 1409 l 1,60,61
304 1186 m 1,67,68
 289 1151 289 1151 277 1110 c 1,69,-1
 337 1157 l 1,70,71
 414 1212 414 1212 491 1267 c 1,72,-1
 577 1353 l 2,73,74
 578 1356 578 1356 580 1358 c 0,75,76
 598 1388 598 1388 620 1402 c 1,77,-1
 642 1429 l 1,78,79
 585 1428 585 1428 537 1414 c 1,80,-1
 381 1236 l 1,81,-1
 304 1186 l 1,67,68
729 1423 m 1,82,83
 694 1429 694 1429 655 1429 c 0,84,85
 654 1429 654 1429 653 1429 c 2,86,-1
 637 1409 l 1,87,88
 646 1411 646 1411 655 1411 c 0,89,90
 684 1411 684 1411 704 1394 c 1,91,-1
 729 1423 l 1,82,83
739 1422 m 1,92,-1
 710 1388 l 1,93,94
 716 1381 716 1381 722 1372 c 0,95,96
 728 1361 728 1361 733 1348 c 1,97,98
 765 1383 765 1383 790 1408 c 1,99,100
 766 1417 766 1417 739 1422 c 1,92,-1
857 1375 m 1,101,102
 831 1392 831 1392 802 1404 c 0,103,104
 802 1404 802 1404 801 1404 c 2,105,-1
 737 1337 l 1,106,107
 748 1305 748 1305 754 1258 c 1,108,-1
 856 1374 l 1,109,-1
 857 1375 l 1,101,102
763 1166 m 1,110,-1
 917 1325 l 1,111,112
 892 1351 892 1351 864 1370 c 1,113,-1
 862 1368 l 2,114,115
 768 1259 768 1259 756 1248 c 1,116,117
 760 1212 760 1212 763 1166 c 1,110,-1
970 1253 m 1,118,119
 948 1289 948 1289 923 1318 c 1,120,-1
 764 1155 l 1,121,122
 766 1122 766 1122 767 1085 c 1,123,-1
 847 1144 l 1,124,-1
 946 1229 l 1,125,-1
 970 1253 l 1,118,119
767 1076 m 1,126,127
 768 1058 768 1058 768 1039 c 0,128,129
 768 1024 768 1024 769 1008 c 1,130,-1
 911 1124 l 1,131,-1
 997 1204 l 1,132,133
 987 1226 987 1226 975 1246 c 1,134,-1
 952 1223 l 1,135,136
 867 1150 867 1150 851 1138 c 2,137,-1
 767 1076 l 1,126,127
1024 1133 m 1,138,139
 1013 1166 1013 1166 1000 1196 c 1,140,-1
 917 1118 l 1,141,-1
 769 998 l 1,142,143
 770 964 770 964 770 926 c 1,144,-1
 787 939 l 2,145,146
 859 989 859 989 931 1039 c 1,147,-1
 1021 1129 l 1,148,-1
 1024 1133 l 1,138,139
770 917 m 1,149,150
 770 890 770 890 770 862 c 1,151,152
 893 956 893 956 1016 1049 c 1,153,-1
 1042 1072 l 1,154,155
 1035 1099 1035 1099 1027 1124 c 1,156,-1
 1027 1123 l 1,157,158
 939 1035 939 1035 936 1033 c 2,159,-1
 791 933 l 1,160,-1
 770 917 l 1,149,150
1079 755 m 1,161,162
 1079 773 1079 773 1078 790 c 1,163,-1
 771 561 l 1,164,165
 771 535 771 535 770 510 c 1,166,-1
 784 522 l 1,167,-1
 1042 729 l 2,168,169
 1062 743 1062 743 1079 755 c 1,161,162
770 500 m 1,170,171
 770 475 770 475 769 451 c 1,172,-1
 1079 679 l 1,173,174
 1079 694 1079 694 1079 709 c 0,175,176
 1079 728 1079 728 1079 746 c 1,177,-1
 1046 723 l 1,178,-1
 790 516 l 1,179,-1
 770 500 l 1,170,171
1077 799 m 1,180,181
 1076 825 1076 825 1075 849 c 1,182,-1
 771 620 l 1,183,184
 771 594 771 594 771 570 c 1,185,-1
 1077 799 l 1,180,181
1074 858 m 1,186,187
 1073 876 1073 876 1071 894 c 1,188,-1
 771 670 l 1,189,190
 771 649 771 649 771 629 c 1,191,-1
 1074 858 l 1,186,187
1070 903 m 1,192,193
 1068 921 1068 921 1066 938 c 1,194,-1
 821 743 l 2,195,196
 799 726 799 726 771 705 c 1,197,198
 771 692 771 692 771 679 c 1,199,-1
 1070 903 l 1,192,193
1058 993 m 1,200,201
 1055 1011 1055 1011 1052 1028 c 1,202,-1
 982 958 l 1,203,-1
 936 903 l 1,204,-1
 771 776 l 1,205,206
 771 746 771 746 771 714 c 1,207,-1
 817 749 l 1,208,-1
 1065 946 l 1,209,210
 1063 965 1063 965 1060 983 c 1,211,-1
 1042 968 l 1,212,-1
 1036 974 l 1,213,-1
 1058 993 l 1,200,201
1050 1038 m 1,214,215
 1047 1051 1047 1051 1044 1063 c 1,216,-1
 1021 1043 l 1,217,-1
 771 852 l 1,218,219
 771 820 771 820 771 786 c 1,220,-1
 931 909 l 1,221,-1
 976 964 l 1,222,223
 1029 1018 1029 1018 1050 1038 c 1,214,215
1079 670 m 1,224,-1
 769 442 l 1,225,226
 768 409 768 409 768 378 c 0,227,228
 768 366 768 366 767 354 c 1,229,-1
 832 399 l 1,230,-1
 1007 529 l 1,231,-1
 1075 581 l 1,232,233
 1078 624 1078 624 1079 670 c 1,224,-1
1046 369 m 1,234,235
 1055 409 1055 409 1061 453 c 1,236,-1
 761 232 l 1,237,238
 758 195 758 195 754 165 c 0,239,240
 753 158 753 158 753 152 c 1,241,-1
 1046 369 l 1,234,235
1043 358 m 1,242,-1
 751 142 l 1,243,244
 747 120 747 120 743 100 c 1,245,-1
 1031 311 l 1,246,247
 1037 334 1037 334 1043 358 c 1,242,-1
1063 464 m 1,248,249
 1066 486 1066 486 1069 509 c 1,250,-1
 989 449 l 2,251,252
 865 360 865 360 765 287 c 1,253,254
 764 263 764 263 762 241 c 1,255,-1
 1063 464 l 1,248,249
1070 519 m 1,256,257
 1073 545 1073 545 1074 571 c 1,258,-1
 1011 523 l 2,259,260
 951 478 951 478 836 393 c 1,261,-1
 767 345 l 1,262,263
 766 319 766 319 765 297 c 1,264,265
 986 458 986 458 990 460 c 0,266,267
 996 464 996 464 1014 477 c 0,268,269
 1045 500 1045 500 1070 519 c 1,256,257
1027 300 m 1,270,-1
 740 89 l 1,271,272
 732 63 732 63 722 44 c 0,273,274
 701 5 701 5 658 5 c 0,275,276
 657 5 657 5 656 5 c 0,277,278
 642 5 642 5 630 9 c 1,279,-1
 604 -10 l 1,280,281
 629 -13 629 -13 656 -13 c 0,282,283
 663 -13 663 -13 670 -13 c 2,284,-1
 1003 232 l 1,285,286
 1016 265 1016 265 1027 300 c 1,270,-1
820 20 m 1,287,288
 891 53 891 53 942 119 c 1,289,-1
 820 20 l 1,287,288
797 10 m 1,290,-1
 957 141 l 1,291,292
 965 153 965 153 972 166 c 1,293,-1
 740 -5 l 1,294,295
 770 0 770 0 797 10 c 1,290,-1
724 -8 m 1,296,-1
 980 181 l 2,297,298
 984 189 984 189 988 197 c 0,299,300
 993 208 993 208 998 219 c 1,301,-1
 683 -12 l 1,302,303
 704 -11 704 -11 724 -8 c 1,296,-1
593 -9 m 1,304,-1
 622 12 l 1,305,306
 609 18 609 18 599 29 c 1,307,-1
 557 -2 l 1,308,309
 574 -6 574 -6 593 -9 c 1,304,-1
548 -0 m 1,310,-1
 595 35 l 1,311,312
 591 40 591 40 588 44 c 0,313,314
 577 62 577 62 569 90 c 1,315,-1
 481 25 l 1,316,317
 495 18 495 18 510 12 c 0,318,319
 528 5 528 5 548 -0 c 1,310,-1
474 29 m 1,320,-1
 567 97 l 1,321,322
 562 116 562 116 558 138 c 1,323,324
 486 86 486 86 438 52 c 1,325,326
 455 39 455 39 474 29 c 1,320,-1
432 56 m 1,327,328
 498 104 498 104 557 146 c 1,329,330
 556 155 556 155 554 165 c 0,331,332
 552 179 552 179 551 195 c 1,333,-1
 398 86 l 1,334,335
 414 70 414 70 432 56 c 1,327,328
356 136 m 1,336,337
 373 111 373 111 393 91 c 1,338,-1
 551 203 l 1,339,340
 548 236 548 236 546 277 c 1,341,-1
 356 136 l 1,336,337
351 142 m 1,342,-1
 545 285 l 1,343,344
 544 302 544 302 544 321 c 1,345,-1
 330 177 l 1,346,347
 340 159 340 159 351 142 c 1,342,-1
326 184 m 1,348,-1
 543 330 l 1,349,350
 542 353 542 353 542 377 c 0,351,352
 542 383 542 383 542 390 c 1,353,-1
 310 216 l 1,354,355
 317 200 317 200 326 184 c 1,348,-1
307 223 m 1,356,-1
 542 398 l 1,357,358
 542 421 542 421 541 446 c 1,359,-1
 293 259 l 1,360,361
 299 240 299 240 307 223 c 1,356,-1
290 266 m 1,362,-1
 541 455 l 1,363,364
 541 475 541 475 540 497 c 1,365,-1
 278 301 l 1,366,367
 284 283 284 283 290 266 c 1,362,-1
276 309 m 1,368,-1
 540 506 l 1,369,370
 540 519 540 519 540 533 c 1,371,-1
 271 343 l 1,372,-1
 268 341 l 1,373,374
 271 325 271 325 276 309 c 1,368,-1
540 542 m 1,375,376
 540 571 540 571 539 601 c 1,377,-1
 366 483 l 1,378,-1
 254 400 l 1,379,380
 259 373 259 373 266 348 c 1,381,-1
 267 349 l 1,382,-1
 540 542 l 1,375,376
539 610 m 1,383,384
 539 642 539 642 539 676 c 1,385,-1
 436 598 l 1,386,-1
 244 466 l 1,387,388
 248 436 248 436 253 408 c 1,389,-1
 362 489 l 1,390,-1
 539 610 l 1,383,384
539 685 m 1,391,392
 539 696 539 696 539 708 c 0,393,394
 539 726 539 726 539 743 c 1,395,396
 509 721 509 721 476 698 c 0,397,398
 385 635 385 635 236 532 c 1,399,400
 239 502 239 502 243 474 c 1,401,-1
 432 604 l 2,402,403
 485 644 485 644 539 685 c 1,391,392
539 753 m 1,404,405
 539 801 539 801 539 845 c 1,406,-1
 406 753 l 1,407,-1
 286 653 l 1,408,-1
 231 615 l 1,409,410
 233 577 233 577 236 540 c 1,411,-1
 472 704 l 1,412,-1
 539 753 l 1,404,405
539 854 m 1,413,414
 539 903 539 903 540 946 c 1,415,-1
 356 803 l 1,416,-1
 229 721 l 1,417,418
 229 714 229 714 229 707 c 0,419,420
 229 681 229 681 230 656 c 0,421,422
 230 639 230 639 231 623 c 1,423,-1
 282 659 l 1,424,-1
 402 759 l 1,425,-1
 539 854 l 1,413,414
540 956 m 1,426,427
 541 1001 541 1001 542 1040 c 0,428,429
 542 1047 542 1047 542 1055 c 1,430,-1
 442 973 l 1,431,-1
 356 876 l 2,432,433
 329 845 329 845 326 843 c 2,434,-1
 236 783 l 1,435,-1
 230 779 l 1,436,437
 229 755 229 755 229 730 c 1,438,-1
 352 809 l 1,439,440
 446 882 446 882 540 956 c 1,426,427
543 1065 m 1,441,442
 544 1109 544 1109 546 1147 c 1,443,444
 405 1011 405 1011 376 988 c 2,445,-1
 236 876 l 1,446,447
 232 834 232 834 230 788 c 1,448,-1
 232 789 l 2,449,450
 277 819 277 819 321 849 c 1,451,-1
 436 979 l 2,452,453
 468 1016 468 1016 543 1065 c 1,441,442
671 786 m 1,454,455
 662 799 662 799 654 799 c 0,456,457
 643 800 643 800 631 776 c 0,458,459
 625 765 625 765 622 749 c 1,460,461
 647 767 647 767 671 786 c 1,454,455
675 780 m 1,462,-1
 621 738 l 1,463,464
 619 725 619 725 619 711 c 0,465,466
 619 689 619 689 623 672 c 1,467,-1
 689 723 l 1,468,469
 687 756 687 756 677 776 c 0,470,471
 676 778 676 778 675 780 c 1,462,-1
651 623 m 1,472,-1
 674 641 l 2,473,474
 675 644 675 644 677 646 c 0,475,476
 689 670 689 670 689 711 c 0,477,478
 689 712 689 712 689 714 c 1,479,-1
 624 664 l 1,480,481
 627 654 627 654 631 646 c 0,482,483
 641 626 641 626 651 623 c 1,472,-1
EndSplineSet
Validated: 3073
Layer: 3
SplineSet
752 708 m 132,-1,0
 752 906 752 906 749 1038 c 132,-1,1
 746 1170 746 1170 736 1248 c 132,-1,2
 726 1326 726 1326 706.5 1359 c 132,-1,3
 687 1392 687 1392 656 1392 c 4,4,5
 623 1392 623 1392 602 1358 c 4,6,7
 582 1326 582 1326 573 1248 c 132,-1,8
 564 1170 564 1170 561 1039 c 132,-1,9
 558 908 558 908 558 708 c 134,-1,10
 558 508 558 508 561 378 c 132,-1,11
 564 248 564 248 573 169 c 132,-1,12
 582 90 582 90 602.5 57 c 132,-1,13
 623 24 623 24 656 24 c 4,14,15
 690 24 690 24 708 57 c 132,-1,16
 726 90 726 90 736 169 c 132,-1,17
 746 248 746 248 749 379 c 132,-1,18
 752 510 752 510 752 708 c 132,-1,0
219 900.5 m 132,-1,18
 228 995 228 995 249 1077.5 c 132,-1,19
 270 1160 270 1160 303.5 1228 c 132,-1,20
 337 1296 337 1296 385 1345.5 c 132,-1,21
 433 1395 433 1395 501 1422 c 4,22,23
 567 1448 567 1448 655 1448 c 132,-1,24
 743 1448 743 1448 809 1421.5 c 132,-1,25
 875 1395 875 1395 924 1345.5 c 132,-1,26
 973 1296 973 1296 1005.5 1228 c 132,-1,27
 1038 1160 1038 1160 1059 1078 c 4,28,29
 1098 925 1098 925 1098 708 c 4,30,31
 1098 494 1098 494 1059 340 c 4,32,33
 1038 258 1038 258 1005.5 189 c 132,-1,34
 973 120 973 120 924 70.5 c 132,-1,35
 875 21 875 21 809 -5.5 c 132,-1,36
 743 -32 743 -32 656 -32 c 132,-1,37
 569 -32 569 -32 502 -5.5 c 132,-1,38
 435 21 435 21 386.5 69.5 c 132,-1,39
 338 118 338 118 303 189 c 4,40,41
 237 325 237 325 219 516 c 4,42,43
 210 609 210 609 210 707.5 c 132,-1,44
 210 806 210 806 219 900.5 c 132,-1,18
600 711 m 132,-1,44
 600 757 600 757 616 787.5 c 132,-1,45
 632 818 632 818 654 818 c 132,-1,46
 676 818 676 818 692 788 c 4,47,48
 708 756 708 756 708 710.5 c 132,-1,49
 708 665 708 665 692 634.5 c 132,-1,50
 676 604 676 604 654 604 c 132,-1,51
 632 604 632 604 616 634 c 4,52,53
 600 665 600 665 600 711 c 132,-1,44
EndSplineSet
EndChar

StartChar: one
Encoding: 49 49 17
Width: 812
GlyphClass: 2
Flags: W
LayerCount: 4
Back
SplineSet
140 80 m 5,0,-1
 240 80 l 5,1,-1
 240 1244 l 5,2,-1
 140 1244 l 5,3,-1
 140 1324 l 5,4,5
 214 1324 214 1324 271 1351 c 132,-1,6
 328 1378 328 1378 364 1418 c 5,7,-1
 604 1418 l 5,8,-1
 604 80 l 5,9,-1
 702 80 l 5,10,-1
 702 0 l 5,11,-1
 140 0 l 5,12,-1
 140 80 l 5,0,-1
EndSplineSet
Fore
SplineSet
140 1324 m 1,0,1
 279 1324 279 1324 364 1418 c 1,2,-1
 604 1418 l 1,3,-1
 604 80 l 1,4,-1
 702 80 l 1,5,-1
 702 0 l 1,6,-1
 140 0 l 1,7,-1
 140 80 l 1,8,-1
 240 80 l 1,9,-1
 240 1244 l 1,10,-1
 140 1244 l 1,11,-1
 140 1324 l 1,0,1
237 1312 m 1,12,13
 203 1303 203 1303 165 1300 c 1,14,-1
 165 1269 l 1,15,-1
 184 1269 l 1,16,-1
 237 1312 l 1,12,13
257 1318 m 1,17,-1
 196 1269 l 1,18,-1
 240 1269 l 2,19,20
 243 1269 243 1269 246 1268 c 2,21,-1
 312 1322 l 1,22,-1
 402 1387 l 2,23,24
 406 1390 406 1390 410 1393 c 1,25,-1
 375 1393 l 1,26,27
 323 1341 323 1341 257 1318 c 1,17,-1
253 1265 m 1,28,29
 256 1264 256 1264 258 1262 c 0,30,31
 266 1254 266 1254 265 1244 c 2,32,-1
 265 1168 l 1,33,34
 321 1205 321 1205 376 1242 c 1,35,-1
 508 1393 l 1,36,-1
 421 1393 l 1,37,-1
 406 1381 l 2,38,39
 361 1349 361 1349 316 1316 c 2,40,-1
 253 1265 l 1,28,29
261 66 m 2,41,42
 260 64 260 64 258 62 c 0,43,44
 253 57 253 57 247 56 c 2,45,-1
 205 25 l 1,46,-1
 305 25 l 1,47,-1
 362 69 l 1,48,-1
 579 223 l 1,49,-1
 579 301 l 1,50,-1
 261 66 l 2,41,42
265 78 m 1,51,-1
 579 310 l 1,52,-1
 579 345 l 1,53,-1
 300 157 l 1,54,-1
 265 132 l 1,55,-1
 265 80 l 2,56,57
 265 79 265 79 265 78 c 1,51,-1
233 55 m 1,58,-1
 165 55 l 1,59,-1
 165 25 l 1,60,-1
 193 25 l 1,61,-1
 233 55 l 1,58,-1
652 25 m 1,62,-1
 677 25 l 1,63,-1
 677 43 l 1,64,-1
 652 25 l 1,62,-1
640 25 m 1,65,-1
 677 52 l 1,66,-1
 677 55 l 1,67,-1
 634 55 l 1,68,-1
 594 25 l 1,69,-1
 640 25 l 1,65,-1
582 25 m 1,70,-1
 622 55 l 1,71,-1
 604 55 l 2,72,73
 594 55 594 55 586.5 62.5 c 128,-1,74
 579 70 579 70 579 80 c 2,75,-1
 579 97 l 1,76,-1
 482 25 l 1,77,-1
 582 25 l 1,70,-1
469 25 m 1,78,-1
 579 106 l 1,79,-1
 579 153 l 1,80,81
 462 69 462 69 401 25 c 1,82,-1
 469 25 l 1,78,-1
579 162 m 1,83,-1
 579 215 l 1,84,-1
 366 63 l 1,85,-1
 317 25 l 1,86,-1
 389 25 l 1,87,-1
 425 51 l 2,88,89
 508 111 508 111 579 162 c 1,83,-1
579 354 m 1,90,-1
 579 417 l 1,91,-1
 265 183 l 1,92,-1
 265 141 l 1,93,94
 283 154 283 154 296 163 c 2,95,-1
 579 354 l 1,90,-1
265 192 m 1,96,-1
 579 426 l 1,97,-1
 579 475 l 1,98,-1
 265 238 l 1,99,-1
 265 192 l 1,96,-1
265 247 m 1,100,-1
 579 484 l 1,101,-1
 579 526 l 1,102,-1
 265 291 l 1,103,-1
 265 247 l 1,100,-1
265 301 m 1,104,-1
 579 535 l 1,105,-1
 579 561 l 1,106,-1
 271 343 l 1,107,-1
 265 339 l 1,108,-1
 265 301 l 1,104,-1
579 570 m 1,109,-1
 579 629 l 1,110,-1
 571 623 l 1,111,-1
 366 483 l 1,112,-1
 265 408 l 1,113,-1
 265 348 l 1,114,-1
 267 349 l 1,115,-1
 579 570 l 1,109,-1
579 638 m 1,116,-1
 579 707 l 1,117,-1
 436 598 l 1,118,-1
 265 480 l 1,119,-1
 265 417 l 1,120,-1
 362 489 l 1,121,-1
 567 629 l 1,122,-1
 579 638 l 1,116,-1
579 716 m 1,123,-1
 579 773 l 1,124,125
 532 738 532 738 476 698 c 0,126,127
 394 641 394 641 265 552 c 1,128,-1
 265 489 l 1,129,-1
 432 604 l 1,130,131
 505 660 505 660 579 716 c 1,123,-1
579 782 m 1,132,-1
 579 892 l 1,133,134
 552 853 552 853 551 853 c 2,135,-1
 406 753 l 1,136,-1
 286 653 l 1,137,-1
 265 638 l 1,138,-1
 265 560 l 1,139,-1
 472 704 l 1,140,-1
 579 782 l 1,132,-1
579 906 m 1,141,-1
 579 976 l 1,142,-1
 356 803 l 1,143,-1
 265 744 l 1,144,-1
 265 647 l 1,145,-1
 282 659 l 1,146,-1
 402 759 l 1,147,-1
 546 859 l 1,148,149
 564 885 564 885 579 906 c 1,141,-1
579 987 m 1,150,-1
 579 1087 l 1,151,-1
 549 1060 l 1,152,-1
 442 973 l 1,153,-1
 356 876 l 2,154,155
 329 845 329 845 326 843 c 2,156,-1
 265 802 l 1,157,-1
 265 753 l 1,158,-1
 352 809 l 1,159,160
 464 896 464 896 576 984 c 1,161,-1
 579 987 l 1,150,-1
579 1098 m 1,162,-1
 579 1179 l 1,163,164
 408 1013 408 1013 376 988 c 2,165,-1
 265 899 l 1,166,-1
 265 811 l 1,167,168
 293 830 293 830 321 849 c 1,169,-1
 436 979 l 2,170,171
 468 1016 468 1016 544 1066 c 1,172,-1
 579 1098 l 1,162,-1
579 1192 m 1,173,-1
 579 1248 l 1,174,-1
 291 996 l 1,175,-1
 265 978 l 1,176,-1
 265 909 l 1,177,178
 318 952 318 952 371 994 c 1,179,-1
 579 1192 l 1,173,-1
579 1259 m 1,180,-1
 579 1343 l 1,181,182
 499 1263 499 1263 496 1261 c 2,183,-1
 341 1151 l 1,184,-1
 265 1091 l 1,185,-1
 265 987 l 1,186,187
 276 995 276 995 287 1002 c 2,188,-1
 579 1259 l 1,180,-1
579 1355 m 1,189,-1
 579 1393 l 1,190,-1
 519 1393 l 1,191,-1
 381 1236 l 1,192,-1
 265 1160 l 1,193,-1
 265 1100 l 1,194,-1
 337 1157 l 1,195,196
 414 1212 414 1212 491 1267 c 1,197,-1
 579 1355 l 1,189,-1
EndSplineSet
Validated: 3073
Layer: 3
SplineSet
246 1250 m 5,0,-1
 146 1250 l 5,1,-1
 146 1318 l 5,2,3
 218 1319 218 1319 274.5 1345.5 c 132,-1,4
 331 1372 331 1372 367 1412 c 5,5,-1
 598 1412 l 5,6,-1
 598 74 l 5,7,-1
 696 74 l 5,8,-1
 696 6 l 5,9,-1
 146 6 l 5,10,-1
 146 74 l 5,11,-1
 246 74 l 5,12,-1
 246 1250 l 5,0,-1
EndSplineSet
EndChar

StartChar: two
Encoding: 50 50 18
Width: 1166
GlyphClass: 2
Flags: W
LayerCount: 4
Back
SplineSet
186 98 m 5,0,1
 232 166 232 166 280 248 c 4,2,3
 330 330 330 330 376 418 c 4,4,5
 424 506 424 506 466 600 c 4,6,7
 510 694 510 694 542 787 c 132,-1,8
 574 880 574 880 593 971 c 132,-1,9
 612 1062 612 1062 612 1144 c 4,10,11
 612 1214 612 1214 602 1260 c 132,-1,12
 592 1306 592 1306 574 1334 c 132,-1,13
 556 1362 556 1362 532 1373 c 132,-1,14
 508 1384 508 1384 482 1384 c 4,15,16
 452 1384 452 1384 422 1374 c 5,17,18
 446 1360 446 1360 468 1338 c 132,-1,19
 490 1316 490 1316 504 1286 c 4,20,21
 520 1256 520 1256 528 1222 c 4,22,23
 536 1186 536 1186 536 1148 c 4,24,25
 536 1096 536 1096 522 1052 c 132,-1,27
 508 1008 508 1008 483 974 c 132,-1,28
 458 940 458 940 426 922 c 132,-1,30
 394 904 394 904 354 904 c 260,31,32
 316 904 316 904 283 922 c 132,-1,33
 250 940 250 940 224 974 c 132,-1,34
 198 1008 198 1008 184 1052 c 132,-1,36
 170 1096 170 1096 170 1148 c 4,37,38
 170 1222 170 1222 198 1280 c 132,-1,40
 226 1338 226 1338 279 1377 c 132,-1,41
 332 1416 332 1416 405 1435 c 132,-1,42
 478 1454 478 1454 566 1454 c 4,43,44
 616 1454 616 1454 664 1444 c 4,45,46
 714 1434 714 1434 758 1412 c 132,-1,48
 802 1390 802 1390 838 1357 c 132,-1,49
 874 1324 874 1324 902 1275 c 132,-1,50
 930 1226 930 1226 944 1164 c 4,51,52
 960 1102 960 1102 960 1024 c 4,53,54
 960 940 960 940 942 876 c 4,55,56
 926 810 926 810 894 758 c 4,57,58
 864 704 864 704 820 664 c 4,59,60
 764 612 764 612 724 592 c 4,61,62
 626 542 626 542 616 536 c 4,63,64
 570 518 570 518 524 498 c 4,65,66
 524 498 524 498 500 450 c 5,67,-1
 886 450 l 5,68,69
 906 486 906 486 920 524 c 4,70,71
 934 560 934 560 946 598 c 5,72,-1
 980 596 l 5,73,-1
 938 0 l 5,74,-1
 186 0 l 5,75,-1
 186 98 l 5,0,1
EndSplineSet
Fore
SplineSet
886 450 m 1,0,1
 917 505 917 505 946 598 c 1,2,-1
 980 596 l 1,3,-1
 938 0 l 1,4,-1
 186 0 l 1,5,-1
 186 98 l 1,6,7
 350 341 350 341 466 600 c 1,8,9
 612 912 612 912 612 1148 c 128,-1,10
 612 1384 612 1384 482 1384 c 0,11,12
 452 1384 452 1384 422 1374 c 1,13,14
 536 1307 536 1307 536 1148 c 0,15,16
 536 1046 536 1046 483 974 c 0,17,18
 432 904 432 904 354 904 c 0,19,20
 278 904 278 904 224 974 c 0,21,22
 170 1045 170 1045 170 1133.5 c 128,-1,23
 170 1222 170 1222 198 1280 c 128,-1,24
 226 1338 226 1338 279 1377 c 0,25,26
 384 1454 384 1454 566 1454 c 0,27,28
 800 1454 800 1454 902 1275 c 0,29,30
 960 1173 960 1173 960 1024 c 0,31,32
 960 865 960 865 894 758 c 0,33,34
 864 704 864 704 814 658 c 128,-1,35
 764 612 764 612 695 577 c 128,-1,36
 626 542 626 542 616 536 c 0,37,38
 570 518 570 518 524 498 c 1,39,-1
 500 450 l 1,40,-1
 886 450 l 1,0,1
480 1409 m 2,41,-1
 481 1409 l 2,42,43
 501 1409 501 1409 518 1405 c 1,44,-1
 539 1429 l 1,45,46
 499 1428 499 1428 457 1421 c 1,47,-1
 439 1406 l 1,48,49
 455 1409 455 1409 476 1409 c 0,50,51
 478 1409 478 1409 480 1409 c 2,41,-1
661 587 m 1,52,53
 673 593 673 593 686 600 c 0,54,55
 756 635 756 635 806 685 c 0,56,57
 809 688 809 688 829 708 c 0,58,59
 838 717 838 717 845 725 c 1,60,-1
 661 587 l 1,52,53
623 568 m 2,61,-1
 858 744 l 2,62,63
 858 746 858 746 860 748 c 0,64,65
 872 770 872 770 888 795 c 0,66,67
 888 796 888 796 888 797 c 1,68,-1
 821 743 l 2,69,70
 744 685 744 685 596 573 c 1,71,-1
 532 527 l 1,72,73
 558 539 558 539 605 559 c 0,74,75
 611 562 611 562 623 568 c 2,61,-1
826 25 m 1,76,-1
 915 25 l 1,77,-1
 920 102 l 1,78,-1
 826 25 l 1,76,-1
815 25 m 1,79,-1
 921 112 l 1,80,-1
 922 129 l 1,81,-1
 781 25 l 1,82,-1
 815 25 l 1,79,-1
769 25 m 1,83,-1
 923 139 l 1,84,-1
 925 166 l 1,85,-1
 734 25 l 1,86,-1
 769 25 l 1,83,-1
721 25 m 1,87,-1
 926 175 l 1,88,-1
 929 228 l 1,89,-1
 652 25 l 1,90,-1
 721 25 l 1,87,-1
640 25 m 1,91,-1
 930 238 l 1,92,-1
 933 276 l 1,93,-1
 594 25 l 1,94,-1
 640 25 l 1,91,-1
582 25 m 1,95,-1
 933 286 l 1,96,-1
 939 363 l 1,97,-1
 482 25 l 1,98,-1
 582 25 l 1,95,-1
469 25 m 1,99,-1
 940 373 l 1,100,-1
 943 416 l 1,101,102
 536 122 536 122 401 25 c 1,103,-1
 469 25 l 1,99,-1
943 425 m 1,104,-1
 947 475 l 1,105,106
 933 464 933 464 917 453 c 1,107,108
 911 441 911 441 904 432 c 0,109,110
 896 425 896 425 886 425 c 2,111,-1
 879 425 l 1,112,113
 858 410 858 410 836 393 c 2,114,-1
 626 248 l 1,115,-1
 366 63 l 1,116,-1
 317 25 l 1,117,-1
 389 25 l 1,118,-1
 425 51 l 2,119,120
 827 341 827 341 943 425 c 1,104,-1
948 485 m 1,121,-1
 951 534 l 1,122,123
 948 524 948 524 938 500 c 0,124,125
 931 482 931 482 924 467 c 1,126,-1
 948 485 l 1,121,-1
867 425 m 1,127,-1
 747 425 l 1,128,-1
 211 30 l 1,129,-1
 211 25 l 1,130,-1
 305 25 l 1,131,-1
 362 69 l 1,132,-1
 622 254 l 1,133,-1
 832 399 l 1,134,-1
 867 425 l 1,127,-1
211 39 m 1,135,-1
 735 425 l 1,136,-1
 680 425 l 1,137,-1
 597 357 l 1,138,-1
 300 157 l 1,139,-1
 216 97 l 2,140,141
 214 93 214 93 211 90 c 2,142,-1
 211 39 l 1,135,-1
667 425 m 1,143,-1
 589 425 l 1,144,-1
 274 189 l 1,145,146
 250 150 250 150 227 115 c 1,147,148
 272 147 272 147 296 163 c 2,149,-1
 593 363 l 1,150,-1
 667 425 l 1,143,-1
284 206 m 1,151,-1
 577 425 l 1,152,-1
 513 425 l 1,153,-1
 335 291 l 1,154,155
 318 263 318 263 301 235 c 0,156,157
 293 220 293 220 284 206 c 1,151,-1
344 307 m 1,158,-1
 500 425 l 2,159,160
 490 425 490 425 482.5 432.5 c 128,-1,161
 475 440 475 440 475 448 c 1,162,-1
 386 382 l 1,163,164
 366 344 366 344 344 307 c 1,158,-1
395 398 m 1,165,-1
 477 459 l 2,166,167
 477 460 477 460 478 461 c 2,168,-1
 500 505 l 1,169,-1
 422 450 l 1,170,171
 409 424 409 424 395 398 c 1,165,-1
897 813 m 1,172,173
 904 831 904 831 910 851 c 0,174,175
 915 871 915 871 921 891 c 1,176,-1
 571 623 l 1,177,-1
 474 557 l 1,178,179
 452 510 452 510 429 464 c 1,180,-1
 592 579 l 1,181,-1
 817 749 l 1,182,-1
 897 813 l 1,172,173
417 945 m 1,183,184
 442 960 442 960 463 989 c 0,185,186
 464 990 464 990 465 992 c 1,187,-1
 442 973 l 1,188,-1
 417 945 l 1,183,184
485 1024 m 1,189,190
 506 1065 506 1065 510 1112 c 1,191,192
 401 1007 401 1007 376 988 c 2,193,-1
 312 937 l 1,194,195
 334 929 334 929 360 929 c 0,196,197
 379 929 379 929 398 936 c 1,198,-1
 436 979 l 2,199,200
 454 1000 454 1000 485 1024 c 1,189,190
511 1127 m 2,201,202
 511 1132 511 1132 511 1137 c 0,203,204
 511 1163 511 1163 508 1186 c 1,205,-1
 291 996 l 1,206,-1
 258 973 l 1,207,208
 259 972 259 972 261 970 c 0,209,210
 281 950 281 950 304 940 c 1,211,212
 337 967 337 967 371 994 c 2,213,-1
 511 1127 l 2,201,202
507 1195 m 1,214,215
 502 1229 502 1229 490 1257 c 1,216,-1
 341 1151 l 1,217,-1
 246 1076 l 2,218,219
 229 1063 229 1063 211 1051 c 1,220,221
 226 1009 226 1009 253 978 c 1,222,223
 270 990 270 990 287 1002 c 2,224,-1
 507 1195 l 1,214,215
487 1264 m 1,225,226
 485 1269 485 1269 482 1274 c 0,227,228
 482 1288 482 1288 456 1314 c 0,229,230
 454 1316 454 1316 452 1318 c 1,231,-1
 381 1236 l 1,232,-1
 221 1131 l 1,233,-1
 198 1112 l 1,234,235
 201 1083 201 1083 209 1058 c 1,236,-1
 242 1082 l 1,237,-1
 337 1157 l 1,238,-1
 487 1264 l 1,225,226
447 1323 m 1,239,240
 428 1341 428 1341 418 1347 c 0,241,242
 397 1359 397 1359 397 1373 c 2,243,-1
 397 1374 l 1,244,-1
 397 1375 l 1,245,246
 357 1346 357 1346 316 1316 c 2,247,-1
 204 1226 l 1,248,249
 195 1193 195 1193 195 1158 c 0,250,251
 195 1139 195 1139 197 1121 c 1,252,-1
 217 1137 l 1,253,254
 297 1189 297 1189 376 1242 c 1,255,-1
 447 1323 l 1,239,240
244 1308 m 1,256,257
 231 1290 231 1290 221 1269 c 0,258,259
 214 1254 214 1254 208 1238 c 1,260,-1
 312 1322 l 1,261,-1
 399 1385 l 1,262,263
 404 1397 404 1397 422 1402 c 1,264,265
 432 1410 432 1410 442 1418 c 1,266,267
 427 1415 427 1415 412 1411 c 0,268,269
 363 1398 363 1398 326 1377 c 1,270,-1
 317 1366 l 1,271,-1
 244 1308 l 1,256,257
638 1424 m 1,272,-1
 636 1424 l 2,273,274
 614 1429 614 1429 550 1429 c 1,275,-1
 527 1402 l 1,276,277
 561 1391 561 1391 585 1361 c 1,278,-1
 601 1377 l 1,279,-1
 638 1424 l 1,272,-1
590 1354 m 1,280,281
 607 1330 607 1330 617 1294 c 1,282,-1
 713 1404 l 1,283,284
 687 1413 687 1413 659 1419 c 2,285,-1
 647 1422 l 1,286,-1
 607 1371 l 2,287,288
 598 1362 598 1362 590 1354 c 1,280,281
764 1381 m 1,289,290
 744 1393 744 1393 721 1401 c 1,291,-1
 620 1285 l 1,292,293
 626 1265 626 1265 630 1241 c 1,294,-1
 673 1282 l 1,295,296
 725 1340 725 1340 764 1381 c 1,289,290
631 1230 m 1,297,298
 636 1194 636 1194 637 1150 c 1,299,-1
 751 1254 l 1,300,-1
 823 1337 l 2,301,302
 822 1338 822 1338 821 1339 c 0,303,304
 799 1359 799 1359 773 1375 c 1,305,-1
 679 1276 l 2,306,307
 654 1252 654 1252 631 1230 c 1,297,298
873 1276 m 1,308,309
 854 1306 854 1306 830 1331 c 1,310,311
 766 1257 766 1257 756 1248 c 2,312,-1
 637 1140 l 2,313,314
 637 1139 637 1139 637 1138 c 0,315,316
 637 1096 637 1096 629 1035 c 1,317,-1
 766 1169 l 1,318,-1
 873 1276 l 1,308,309
627 1021 m 1,319,320
 623 992 623 992 616 959 c 1,321,322
 637 988 637 988 637 989 c 2,323,-1
 847 1144 l 1,324,-1
 910 1198 l 1,325,326
 897 1237 897 1237 878 1269 c 1,327,-1
 772 1163 l 2,328,329
 706 1098 706 1098 644 1038 c 0,330,331
 635 1029 635 1029 627 1021 c 1,319,320
612 940 m 0,332,333
 610 932 610 932 608 922 c 0,334,335
 594 854 594 854 565 772 c 1,336,-1
 602 799 l 1,337,-1
 787 939 l 2,338,339
 859 989 859 989 931 1039 c 1,340,-1
 935 1043 l 1,341,342
 934 1088 934 1088 927 1127 c 1,343,-1
 917 1118 l 1,344,-1
 756 988 l 1,345,-1
 662 923 l 1,346,-1
 622 883 l 1,347,-1
 616 889 l 1,348,349
 654 927 654 927 657 929 c 2,350,-1
 752 994 l 1,351,-1
 911 1124 l 1,352,-1
 925 1137 l 1,353,354
 920 1164 920 1164 913 1189 c 1,355,356
 863 1146 863 1146 851 1138 c 2,357,-1
 642 983 l 1,358,359
 625 959 625 959 612 940 c 0,332,333
561 759 m 1,360,361
 546 719 546 719 528 677 c 1,362,363
 731 832 731 832 934 987 c 1,364,365
 935 1003 935 1003 935 1022 c 0,366,367
 935 1027 935 1027 935 1032 c 1,368,-1
 791 933 l 1,369,-1
 606 793 l 2,370,371
 585 777 585 777 561 759 c 1,360,361
924 904 m 2,372,373
 924 909 924 909 926 913 c 0,374,375
 932 934 932 934 934 977 c 1,376,-1
 522 664 l 1,377,378
 507 628 507 628 489 590 c 0,379,380
 484 580 484 580 480 569 c 1,381,-1
 567 629 l 1,382,-1
 924 904 l 2,372,373
EndSplineSet
Validated: 3073
Layer: 3
SplineSet
936 878 m 4,0,1
 920 813 920 813 889 761 c 6,2,3
 859 707 859 707 816 668 c 4,4,5
 759 615 759 615 721 597 c 4,6,-1
 613 541 l 4,7,-1
 520 503 l 5,8,-1
 490 444 l 5,9,-1
 890 444 l 5,10,11
 921 502 921 502 950 592 c 5,12,-1
 974 590 l 5,13,-1
 932 6 l 5,14,-1
 192 6 l 5,15,-1
 192 96 l 5,16,17
 237 164 237 164 285 245 c 4,18,19
 335 327 335 327 381 415 c 4,20,21
 429 503 429 503 471 597 c 4,22,23
 516 692 516 692 548 785 c 4,24,25
 618 989 618 989 618 1144 c 4,26,27
 618 1277 618 1277 579 1338 c 4,28,29
 561 1366 561 1366 535 1378 c 132,-1,30
 509 1390 509 1390 480 1390 c 132,-1,31
 451 1390 451 1390 420 1380 c 6,32,-1
 408 1375 l 5,33,-1
 419 1369 l 6,34,35
 442 1355 442 1355 463.5 1333.5 c 132,-1,36
 485 1312 485 1312 499 1283 c 6,37,38
 530 1224 530 1224 530 1148 c 4,39,40
 530 1097 530 1097 516 1054 c 132,-1,41
 502 1011 502 1011 478 978 c 4,42,43
 428 910 428 910 354 910 c 4,44,45
 294 910 294 910 247 957 c 4,46,47
 209 996 209 996 190 1054 c 4,48,49
 176 1097 176 1097 176 1148 c 4,50,51
 176 1270 176 1270 252 1346 c 4,52,53
 310 1404 310 1404 407 1429 c 4,54,55
 479 1448 479 1448 566 1448 c 4,56,57
 616 1448 616 1448 663 1438 c 4,58,59
 762 1419 762 1419 834 1353 c 4,60,61
 870 1320 870 1320 899 1269 c 4,62,63
 924 1224 924 1224 938 1163 c 4,64,65
 954 1101 954 1101 954 1021 c 132,-1,66
 954 941 954 941 936 878 c 4,0,1
EndSplineSet
EndChar

StartChar: three
Encoding: 51 51 19
Width: 1178
GlyphClass: 2
Flags: W
LayerCount: 4
Back
SplineSet
182 270 m 4,0,1
 182 322 182 322 197 366 c 132,-1,2
 212 410 212 410 237 443 c 132,-1,3
 262 476 262 476 294 496 c 4,4,5
 326 514 326 514 366 514 c 260,6,7
 404 514 404 514 438 495 c 132,-1,8
 472 476 472 476 496 443 c 132,-1,9
 520 410 520 410 535 366 c 132,-1,10
 550 322 550 322 550 270 c 4,11,12
 550 232 550 232 542 198 c 132,-1,13
 534 164 534 164 520 135 c 132,-1,14
 506 106 506 106 485 83 c 132,-1,15
 464 60 464 60 440 46 c 5,16,17
 458 40 458 40 477 37 c 132,-1,18
 496 34 496 34 512 34 c 4,19,20
 544 34 544 34 569 48 c 132,-1,21
 594 62 594 62 612 97 c 132,-1,22
 630 132 630 132 640 190 c 132,-1,23
 650 248 650 248 650 336 c 4,24,25
 650 414 650 414 636 472 c 132,-1,26
 622 530 622 530 596 571 c 132,-1,27
 570 612 570 612 534 636 c 132,-1,28
 498 660 498 660 452 664 c 5,29,-1
 452 772 l 5,30,31
 496 778 496 778 531 806 c 132,-1,32
 566 834 566 834 593 879 c 132,-1,33
 620 924 620 924 636 984 c 132,-1,34
 652 1044 652 1044 652 1118 c 4,35,36
 652 1190 652 1190 641 1240 c 132,-1,37
 630 1290 630 1290 612 1322 c 132,-1,38
 594 1354 594 1354 568 1367 c 132,-1,39
 542 1380 542 1380 514 1380 c 4,40,41
 492 1380 492 1380 467 1377 c 132,-1,42
 442 1374 442 1374 414 1360 c 5,43,44
 444 1352 444 1352 472 1329 c 132,-1,45
 500 1306 500 1306 519 1275 c 132,-1,46
 538 1244 538 1244 549 1204 c 132,-1,47
 560 1164 560 1164 560 1118 c 4,48,49
 560 1066 560 1066 545 1022 c 132,-1,50
 530 978 530 978 506 946 c 132,-1,51
 482 914 482 914 449 894 c 132,-1,52
 416 874 416 874 378 874 c 260,53,54
 340 874 340 874 306 894 c 132,-1,55
 272 914 272 914 248 946 c 132,-1,56
 224 978 224 978 209 1023 c 132,-1,57
 194 1068 194 1068 194 1118 c 4,58,59
 194 1194 194 1194 221 1255 c 132,-1,60
 248 1316 248 1316 298 1361 c 132,-1,61
 348 1406 348 1406 419 1430 c 132,-1,62
 490 1454 490 1454 578 1454 c 4,63,64
 626 1454 626 1454 674 1445 c 132,-1,65
 722 1436 722 1436 767 1416 c 132,-1,66
 812 1396 812 1396 849 1366 c 132,-1,67
 886 1336 886 1336 915 1294 c 132,-1,68
 944 1252 944 1252 960 1197 c 132,-1,69
 976 1142 976 1142 976 1074 c 4,70,71
 976 908 976 908 877 825 c 132,-1,72
 778 742 778 742 572 738 c 5,73,74
 668 736 668 736 748 716 c 132,-1,75
 828 696 828 696 884 653 c 132,-1,76
 940 610 940 610 971 541 c 132,-1,77
 1002 472 1002 472 1002 372 c 4,78,79
 1002 266 1002 266 974 188 c 132,-1,80
 946 110 946 110 894 60 c 132,-1,81
 842 10 842 10 766 -14 c 132,-1,82
 690 -38 690 -38 598 -38 c 132,-1,84
 506 -38 506 -38 429 -19 c 132,-1,85
 352 0 352 0 297 39 c 132,-1,86
 242 78 242 78 212 135 c 132,-1,87
 182 192 182 192 182 270 c 4,0,1
EndSplineSet
Fore
SplineSet
652 1118 m 0,0,1
 652 1380 652 1380 514 1380 c 0,2,3
 454 1380 454 1380 414 1360 c 1,4,5
 477 1343 477 1343 519 1275 c 0,6,7
 549 1227 549 1227 557 1176 c 0,8,9
 560 1157 560 1157 560 1137 c 0,10,11
 560 1066 560 1066 545 1022 c 128,-1,12
 530 978 530 978 506 946 c 128,-1,13
 482 914 482 914 449 894 c 128,-1,14
 416 874 416 874 378 874 c 128,-1,15
 340 874 340 874 306 894 c 128,-1,16
 272 914 272 914 248 946 c 0,17,18
 194 1018 194 1018 194 1106 c 128,-1,19
 194 1194 194 1194 221 1255 c 128,-1,20
 248 1316 248 1316 298 1361 c 0,21,22
 401 1454 401 1454 578 1454 c 0,23,24
 805 1454 805 1454 915 1294 c 0,25,26
 976 1206 976 1206 976 1057 c 128,-1,27
 976 908 976 908 877 825 c 128,-1,28
 778 742 778 742 572 738 c 1,29,30
 885 731 885 731 971 541 c 0,31,32
 1002 472 1002 472 1002 369 c 128,-1,33
 1002 266 1002 266 974 188 c 128,-1,34
 946 110 946 110 894 60 c 128,-1,35
 842 10 842 10 766 -14 c 128,-1,36
 690 -38 690 -38 598 -38 c 128,-1,37
 506 -38 506 -38 429 -19 c 128,-1,38
 352 0 352 0 297 39 c 0,39,40
 182 121 182 121 182 270 c 0,41,42
 182 370 182 370 237 443 c 0,43,44
 291 514 291 514 366 514 c 0,45,46
 444 514 444 514 496 443 c 0,47,48
 550 369 550 369 550 270 c 0,49,50
 550 154 550 154 485 83 c 0,51,52
 464 60 464 60 440 46 c 1,53,54
 476 34 476 34 510 34 c 128,-1,55
 544 34 544 34 569 48 c 128,-1,56
 594 62 594 62 612 97 c 0,57,58
 650 171 650 171 650 336 c 0,59,60
 650 559 650 559 534 636 c 0,61,62
 498 660 498 660 452 664 c 1,63,-1
 452 772 l 1,64,65
 536 783 536 783 593 879 c 0,66,67
 652 977 652 977 652 1118 c 0,0,1
552 753 m 1,68,69
 512 716 512 716 477 699 c 1,70,71
 477 686 477 686 477 686 c 1,72,73
 500 681 500 681 521 672 c 1,74,75
 549 693 549 693 577 714 c 1,76,77
 565 715 565 715 559 718 c 0,78,79
 555 718 555 718 554 720 c 0,80,81
 547 730 547 730 547 738 c 128,-1,82
 547 746 547 746 552 753 c 1,68,69
602 799 m 2,83,-1
 787 939 l 2,84,85
 787 939 787 939 931 1039 c 1,86,-1
 951 1059 l 2,87,88
 951 1059 951 1059 951 1066 c 0,89,90
 951 1107 951 1107 945 1144 c 1,91,-1
 917 1118 l 1,92,-1
 756 988 l 1,93,-1
 662 923 l 1,94,-1
 632 893 l 1,95,96
 611 848 611 848 579 816 c 0,97,98
 527 764 527 764 477 751 c 1,99,-1
 477 708 l 1,100,-1
 602 799 l 2,83,-1
362 489 m 1,101,102
 332 487 332 487 306 472 c 0,103,104
 278 456 278 456 256 427 c 0,105,106
 243 411 243 411 234 394 c 1,107,-1
 362 489 l 1,101,102
227 379 m 1,108,109
 212 346 212 346 208 310 c 1,110,-1
 267 349 l 1,111,-1
 435 468 l 1,112,113
 431 471 431 471 426 473 c 0,114,115
 402 487 402 487 374 489 c 1,116,-1
 366 483 l 1,117,-1
 227 379 l 1,108,109
207 301 m 1,118,119
 206 292 206 292 206 282 c 0,120,121
 206 269 206 269 207 257 c 1,122,-1
 460 447 l 1,123,124
 451 456 451 456 441 463 c 1,125,-1
 271 343 l 1,126,-1
 207 301 l 1,118,119
377 899 m 1,127,128
 382 899 382 899 387 899 c 0,129,130
 427 899 427 899 465 937 c 0,131,132
 512 984 512 984 527 1042 c 1,133,-1
 442 973 l 1,134,-1
 377 899 l 1,127,128
531 1057 m 1,135,136
 535 1080 535 1080 535 1104 c 0,137,138
 535 1120 535 1120 534 1135 c 1,139,140
 403 1009 403 1009 376 988 c 2,141,-1
 301 928 l 1,142,143
 310 921 310 921 319 916 c 0,144,145
 339 904 339 904 366 900 c 1,146,-1
 436 979 l 2,147,148
 466 1013 466 1013 531 1057 c 1,135,136
533 1148 m 1,149,150
 531 1162 531 1162 529 1176 c 0,151,152
 527 1188 527 1188 523 1199 c 1,153,-1
 291 996 l 1,154,-1
 260 974 l 1,155,156
 275 950 275 950 295 933 c 1,157,158
 333 964 333 964 371 994 c 1,159,-1
 533 1148 l 1,149,150
521 1208 m 1,160,161
 512 1237 512 1237 497 1262 c 1,162,163
 497 1262 497 1262 341 1151 c 1,164,-1
 246 1076 l 2,165,166
 235 1068 235 1068 225 1060 c 1,167,168
 228 1045 228 1045 233 1031 c 0,169,170
 242 1003 242 1003 256 980 c 1,171,172
 285 1001 285 1001 287 1002 c 2,173,-1
 521 1208 l 1,160,161
337 1157 m 1,174,175
 493 1268 493 1268 493 1268 c 1,176,177
 485 1280 485 1280 456 1309 c 0,178,179
 450 1315 450 1315 450 1314 c 2,180,181
 450 1314 450 1314 381 1236 c 1,182,-1
 221 1131 l 1,183,-1
 219 1130 l 1,184,185
 219 1124 219 1124 219 1118 c 0,186,187
 219 1092 219 1092 223 1068 c 1,188,189
 223 1068 223 1068 242 1082 c 1,190,-1
 337 1157 l 1,174,175
443 1319 m 1,191,192
 428 1330 428 1330 417 1334 c 0,193,194
 402 1338 402 1338 396 1344 c 128,-1,195
 390 1350 390 1350 389 1360 c 0,196,197
 389 1366 389 1366 390 1370 c 1,198,199
 353 1343 353 1343 316 1316 c 2,200,-1
 253 1265 l 1,201,202
 223 1209 223 1209 220 1139 c 1,203,204
 299 1190 299 1190 376 1242 c 1,205,-1
 443 1319 l 1,191,192
537 1427 m 1,206,207
 487 1423 487 1423 445 1411 c 1,208,-1
 414 1387 l 1,209,210
 454 1405 454 1405 498 1405 c 0,211,212
 508 1405 508 1405 517 1404 c 1,213,-1
 537 1427 l 1,206,207
549 1428 m 1,214,-1
 527 1403 l 1,215,216
 569 1397 569 1397 598 1374 c 1,217,-1
 601 1377 l 1,218,-1
 640 1426 l 1,219,220
 613 1429 613 1429 585 1429 c 0,221,222
 566 1429 566 1429 549 1428 c 1,214,-1
425 1405 m 1,223,224
 354 1381 354 1381 303 1332 c 0,225,226
 280 1309 280 1309 263 1283 c 1,227,-1
 312 1322 l 1,228,-1
 402 1387 l 2,229,230
 413 1396 413 1396 425 1405 c 1,223,224
716 1409 m 1,231,232
 683 1420 683 1420 649 1424 c 1,233,-1
 607 1371 l 2,234,235
 606 1370 606 1370 605 1369 c 1,236,237
 622 1353 622 1353 635 1331 c 0,238,239
 638 1326 638 1326 640 1321 c 1,240,-1
 716 1409 l 1,231,232
725 1406 m 1,241,-1
 645 1313 l 1,242,243
 654 1293 654 1293 661 1270 c 1,244,-1
 673 1282 l 1,245,246
 729 1344 729 1344 770 1387 c 1,247,248
 764 1390 764 1390 757 1393 c 0,249,250
 741 1400 741 1400 725 1406 c 1,241,-1
887 1291 m 1,251,252
 866 1319 866 1319 840 1342 c 1,253,254
 767 1257 767 1257 756 1248 c 2,255,-1
 676 1176 l 1,256,257
 677 1163 677 1163 677 1149 c 0,258,259
 677 1113 677 1113 674 1080 c 1,260,-1
 766 1169 l 1,261,-1
 881 1284 l 1,262,-1
 887 1291 l 1,251,252
673 1066 m 1,263,264
 670 1037 670 1037 666 1010 c 1,265,-1
 847 1144 l 1,266,-1
 928 1214 l 1,267,268
 914 1253 914 1253 892 1284 c 1,269,-1
 887 1278 l 1,270,-1
 772 1163 l 2,271,272
 721 1113 721 1113 673 1066 c 1,263,264
833 1348 m 1,273,274
 809 1367 809 1367 780 1382 c 1,275,-1
 679 1276 l 2,276,277
 671 1268 671 1268 663 1261 c 1,278,279
 672 1226 672 1226 676 1186 c 1,280,-1
 751 1254 l 1,281,-1
 833 1348 l 1,273,274
944 1154 m 1,282,283
 939 1181 939 1181 931 1205 c 1,284,285
 865 1148 865 1148 851 1138 c 2,286,-1
 664 999 l 1,287,288
 660 976 660 976 654 954 c 128,-1,289
 648 932 648 932 641 914 c 1,290,291
 655 928 655 928 657 929 c 2,292,-1
 752 994 l 1,293,-1
 911 1124 l 1,294,-1
 944 1154 l 1,282,283
832 823 m 1,295,296
 854 837 854 837 871 853 c 1,297,-1
 832 823 l 1,295,296
793 803 m 1,298,-1
 898 884 l 1,299,300
 930 927 930 927 942 983 c 1,301,-1
 661 769 l 1,302,303
 737 779 737 779 793 803 c 1,298,-1
647 767 m 1,304,305
 796 880 796 880 945 995 c 1,306,307
 950 1020 950 1020 951 1047 c 1,308,309
 938 1034 938 1034 936 1033 c 2,310,-1
 791 933 l 1,311,-1
 606 793 l 2,312,313
 586 778 586 778 564 762 c 1,314,315
 568 763 568 763 572 763 c 0,316,317
 612 763 612 763 647 767 c 1,304,305
668 707 m 1,318,319
 638 712 638 712 613 712 c 0,320,321
 598 712 598 712 587 713 c 1,322,-1
 528 668 l 1,323,324
 553 655 553 655 575 635 c 1,325,-1
 668 707 l 1,318,319
678 705 m 1,326,-1
 581 630 l 1,327,328
 582 629 582 629 582 629 c 0,329,330
 598 613 598 613 611 594 c 1,331,-1
 741 692 l 0,332,333
 707 700 707 700 678 705 c 1,326,-1
818 664 m 1,334,335
 802 672 802 672 783 679 c 1,336,-1
 629 564 l 1,337,338
 637 549 637 549 643 533 c 1,339,-1
 818 664 l 1,334,335
825 661 m 1,340,-1
 646 526 l 1,341,342
 653 507 653 507 658 486 c 1,343,-1
 862 638 l 1,344,345
 845 651 845 651 825 661 c 1,340,-1
775 682 m 1,346,347
 763 686 763 686 750 690 c 1,348,349
 693 647 693 647 615 588 c 1,350,351
 620 580 620 580 626 570 c 1,352,-1
 775 682 l 1,346,347
928 568 m 1,353,354
 915 588 915 588 899 604 c 1,355,-1
 790 516 l 1,356,-1
 694 436 l 1,357,-1
 671 418 l 1,358,359
 673 400 673 400 674 380 c 1,360,-1
 928 568 l 1,353,354
932 561 m 1,361,-1
 674 371 l 1,362,363
 675 354 675 354 675 336 c 0,364,365
 675 312 675 312 674 290 c 1,366,-1
 832 399 l 1,367,-1
 961 495 l 1,368,369
 950 531 950 531 932 561 c 1,361,-1
894 610 m 1,370,371
 882 622 882 622 868 633 c 1,372,-1
 660 478 l 1,373,374
 666 454 666 454 670 427 c 1,375,-1
 784 522 l 1,376,-1
 894 610 l 1,370,371
976 400 m 1,377,378
 975 419 975 419 973 437 c 1,379,380
 797 310 797 310 669 218 c 1,381,382
 666 190 666 190 661 167 c 1,383,-1
 976 400 l 1,377,378
977 391 m 1,384,-1
 658 156 l 1,385,386
 635 57 635 57 581 26 c 0,387,388
 550 9 550 9 512 9 c 0,389,390
 484 9 484 9 465 12 c 1,391,-1
 450 2 l 1,392,393
 490 -7 490 -7 534 -10 c 1,394,-1
 975 317 l 1,395,396
 977 343 977 343 977 370 c 0,397,398
 977 381 977 381 977 391 c 1,384,-1
971 446 m 1,399,400
 968 468 968 468 963 487 c 1,401,402
 911 449 911 449 836 393 c 2,403,-1
 674 281 l 1,404,405
 673 253 673 253 670 228 c 1,406,407
 912 403 912 403 971 446 c 1,399,400
760 10 m 1,408,409
 862 43 862 43 917 125 c 1,410,-1
 760 10 l 1,408,409
740 4 m 1,411,-1
 927 142 l 1,412,413
 937 160 937 160 945 181 c 1,414,-1
 691 -6 l 1,415,416
 717 -2 717 -2 740 4 c 1,411,-1
676 -8 m 1,417,-1
 950 193 l 1,418,419
 961 222 961 222 967 256 c 1,420,-1
 600 -13 l 1,421,422
 640 -12 640 -12 676 -8 c 1,417,-1
588 -13 m 1,423,-1
 969 266 l 1,424,425
 972 286 972 286 974 307 c 1,426,-1
 545 -11 l 1,427,428
 566 -13 566 -13 588 -13 c 1,423,-1
455 14 m 1,429,430
 424 21 424 21 417 37 c 1,431,432
 403 27 403 27 392 18 c 1,433,434
 413 10 413 10 436 5 c 0,435,436
 438 4 438 4 441 4 c 2,437,-1
 455 14 l 1,429,430
415 44 m 2,438,439
 415 45 415 45 415 46 c 0,440,441
 416 60 416 60 432 70 c 0,442,443
 473 95 473 95 499 149 c 0,444,445
 502 155 502 155 505 162 c 1,446,-1
 366 63 l 1,447,-1
 339 42 l 1,448,449
 360 31 360 31 384 21 c 1,450,-1
 415 44 l 2,438,439
510 174 m 1,451,452
 525 216 525 216 525 260 c 0,453,454
 525 260 525 260 525 261 c 1,455,-1
 282 82 l 1,456,457
 296 68 296 68 312 58 c 0,458,459
 322 51 322 51 332 46 c 1,460,-1
 362 69 l 1,461,-1
 510 174 l 1,451,452
525 270 m 1,462,463
 525 289 525 289 522 307 c 1,464,-1
 300 157 l 1,465,-1
 249 121 l 1,466,467
 261 103 261 103 277 87 c 1,468,-1
 525 270 l 1,462,463
521 315 m 1,469,470
 518 339 518 339 511 358 c 0,471,472
 510 361 510 361 509 365 c 1,473,-1
 229 156 l 1,474,475
 231 151 231 151 234 146 c 0,476,477
 239 136 239 136 245 127 c 1,478,479
 277 150 277 150 296 163 c 2,480,-1
 521 315 l 1,469,470
506 372 m 1,481,482
 499 391 499 391 489 407 c 1,483,-1
 214 200 l 1,484,485
 219 180 219 180 226 163 c 1,486,-1
 506 372 l 1,481,482
486 414 m 1,487,488
 477 429 477 429 465 441 c 1,489,-1
 207 248 l 1,490,491
 209 227 209 227 213 208 c 1,492,-1
 486 414 l 1,487,488
EndSplineSet
Validated: 3073
Layer: 3
SplineSet
188 270 m 4,0,1
 188 321 188 321 202.5 364 c 132,-1,2
 217 407 217 407 241.5 439.5 c 132,-1,3
 266 472 266 472 297 491 c 4,4,5
 328 508 328 508 365 508 c 132,-1,6
 402 508 402 508 435 490 c 4,7,8
 498 454 498 454 529 364 c 4,9,10
 544 321 544 321 544 270 c 4,11,12
 544 199 544 199 515 138 c 4,13,14
 501 109 501 109 480.5 87 c 132,-1,15
 460 65 460 65 437 51 c 6,16,-1
 426 45 l 5,17,-1
 438 40 l 6,18,19
 475 28 475 28 512 28 c 4,20,21
 562 28 562 28 592 58 c 4,22,23
 656 122 656 122 656 336 c 4,24,25
 656 528 656 528 568 616 c 4,26,27
 522 662 522 662 458 669 c 5,28,-1
 458 767 l 5,29,30
 501 774 501 774 535 801 c 4,31,32
 545 810 545 810 554 819 c 4,33,34
 614 878 614 878 642 982 c 4,35,36
 658 1043 658 1043 658 1116.5 c 132,-1,37
 658 1190 658 1190 647 1241 c 4,38,39
 624 1345 624 1345 571 1372 c 4,40,41
 543 1386 543 1386 514 1386 c 4,42,43
 492 1386 492 1386 466 1382.5 c 132,-1,44
 440 1379 440 1379 411 1365 c 6,45,-1
 397 1358 l 5,46,-1
 412 1354 l 6,47,48
 441 1347 441 1347 468.5 1324.5 c 132,-1,49
 496 1302 496 1302 514 1272 c 4,50,51
 554 1206 554 1206 554 1115 c 4,52,53
 554 1067 554 1067 539 1024 c 4,54,55
 519 965 519 965 482 928 c 4,56,57
 435 880 435 880 378 880 c 4,58,59
 342 880 342 880 309 899 c 4,60,61
 244 938 244 938 215 1025 c 4,62,63
 200 1069 200 1069 200 1118 c 4,64,65
 200 1193 200 1193 226 1253 c 4,66,67
 250 1305 250 1305 290 1345 c 4,68,69
 343 1398 343 1398 421 1424 c 4,70,71
 491 1448 491 1448 578 1448 c 4,72,73
 681 1448 681 1448 765 1411 c 4,74,75
 855 1371 855 1371 910 1291 c 4,76,77
 970 1204 970 1204 970 1074 c 4,78,79
 970 925 970 925 889 844 c 4,80,81
 793 748 793 748 572 744 c 6,82,-1
 512 743 l 5,83,-1
 512 733 l 5,84,-1
 572 732 l 6,85,86
 667 730 667 730 746 710 c 132,-1,87
 825 690 825 690 880.5 648.5 c 132,-1,88
 936 607 936 607 966 539 c 132,-1,89
 996 471 996 471 996 372 c 4,90,91
 996 170 996 170 892 66 c 4,92,93
 842 17 842 17 764 -8 c 4,94,95
 689 -32 689 -32 598 -32 c 132,-1,96
 507 -32 507 -32 431 -13 c 132,-1,97
 355 6 355 6 301 44 c 132,-1,98
 247 82 247 82 217.5 137.5 c 132,-1,99
 188 193 188 193 188 270 c 4,0,1
EndSplineSet
EndChar

StartChar: four
Encoding: 52 52 20
Width: 1122
GlyphClass: 2
Flags: W
LayerCount: 4
Back
SplineSet
158 448 m 5,0,-1
 578 1434 l 5,1,-1
 852 1434 l 5,2,-1
 852 448 l 5,3,-1
 972 448 l 5,4,-1
 972 360 l 5,5,-1
 852 360 l 5,6,-1
 852 80 l 5,7,-1
 952 80 l 5,8,-1
 952 0 l 5,9,-1
 388 0 l 5,10,-1
 388 80 l 5,11,-1
 488 80 l 5,12,-1
 488 360 l 5,13,-1
 158 360 l 5,14,-1
 158 448 l 5,0,-1
488 448 m 5,15,-1
 488 1012 l 5,16,-1
 250 448 l 5,17,-1
 488 448 l 5,15,-1
EndSplineSet
Fore
SplineSet
158 448 m 5,0,-1
 578 1434 l 5,1,-1
 852 1434 l 5,2,-1
 852 448 l 5,3,-1
 972 448 l 5,4,-1
 972 360 l 5,5,-1
 852 360 l 5,6,-1
 852 80 l 5,7,-1
 952 80 l 5,8,-1
 952 0 l 5,9,-1
 388 0 l 5,10,-1
 388 80 l 5,11,-1
 488 80 l 5,12,-1
 488 360 l 5,13,-1
 158 360 l 5,14,-1
 158 448 l 5,0,-1
488 448 m 5,15,-1
 488 1012 l 5,16,-1
 250 448 l 5,17,-1
 488 448 l 5,15,-1
183 424 m 5,18,-1
 183 385 l 5,19,-1
 222 385 l 5,20,-1
 273 423 l 5,21,-1
 250 423 l 6,22,23
 240 423 240 423 232.5 430.5 c 132,-1,24
 225 438 225 438 225 445 c 4,25,26
 225 449 225 449 226 453 c 5,27,-1
 183 424 l 5,18,-1
183 432 m 5,28,-1
 230 465 l 5,29,-1
 267 554 l 5,30,31
 242 536 242 536 214 517 c 5,32,-1
 183 443 l 5,33,-1
 183 432 l 5,28,-1
220 529 m 5,34,-1
 272 566 l 5,35,-1
 322 683 l 5,36,-1
 286 653 l 5,37,-1
 267 640 l 5,38,-1
 220 529 l 5,34,-1
328 697 m 5,39,-1
 381 822 l 5,40,-1
 356 803 l 5,41,-1
 329 786 l 5,42,-1
 272 652 l 5,43,-1
 282 659 l 5,44,-1
 328 697 l 5,39,-1
386 836 m 5,45,-1
 446 976 l 5,46,-1
 442 973 l 5,47,-1
 378 901 l 5,48,-1
 334 798 l 5,49,-1
 352 809 l 6,50,51
 369 823 369 823 386 836 c 5,45,-1
455 999 m 5,52,-1
 465 1022 l 6,53,54
 474 1037 474 1037 486 1037 c 4,55,56
 493 1037 493 1037 499 1034 c 5,57,58
 519 1049 519 1049 544 1066 c 5,59,-1
 751 1254 l 5,60,-1
 827 1341 l 5,61,-1
 827 1409 l 5,62,-1
 805 1409 l 5,63,-1
 679 1276 l 5,64,65
 518 1119 518 1119 440 1046 c 5,66,-1
 389 926 l 5,67,-1
 436 979 l 6,68,69
 444 989 444 989 455 999 c 5,52,-1
791 1409 m 5,70,-1
 728 1409 l 5,71,-1
 617 1281 l 5,72,-1
 495 1174 l 5,73,-1
 450 1070 l 5,74,-1
 673 1282 l 5,75,76
 745 1361 745 1361 791 1409 c 5,70,-1
717 1409 m 5,77,-1
 637 1409 l 5,78,-1
 607 1371 l 5,79,80
 579 1343 579 1343 558 1322 c 5,81,-1
 502 1191 l 5,82,-1
 611 1287 l 5,83,-1
 717 1409 l 5,77,-1
626 1409 m 5,84,-1
 595 1409 l 5,85,-1
 567 1343 l 5,86,-1
 601 1377 l 5,87,-1
 626 1409 l 5,84,-1
827 721 m 5,88,-1
 827 748 l 5,89,-1
 821 743 l 6,90,91
 744 685 744 685 596 573 c 5,92,-1
 513 514 l 5,93,-1
 513 486 l 5,94,-1
 827 721 l 5,88,-1
827 712 m 5,95,-1
 513 477 l 5,96,-1
 513 448 l 6,97,98
 513 438 513 438 505.5 430.5 c 132,-1,99
 498 423 498 423 488 423 c 6,100,-1
 441 423 l 5,101,-1
 390 385 l 5,102,-1
 447 385 l 5,103,-1
 827 671 l 5,104,-1
 827 712 l 5,95,-1
827 757 m 5,105,-1
 827 819 l 5,106,-1
 571 623 l 5,107,-1
 513 583 l 5,108,-1
 513 523 l 5,109,-1
 592 579 l 5,110,-1
 817 749 l 5,111,-1
 827 757 l 5,105,-1
827 829 m 5,112,-1
 827 895 l 5,113,-1
 513 657 l 5,114,-1
 513 592 l 5,115,-1
 567 629 l 5,116,-1
 827 829 l 5,112,-1
827 905 m 5,117,-1
 827 958 l 5,118,-1
 791 933 l 5,119,-1
 606 793 l 6,120,121
 564 761 564 761 513 725 c 5,122,-1
 513 666 l 5,123,124
 670 785 670 785 827 905 c 5,117,-1
827 967 m 5,125,-1
 827 1045 l 5,126,-1
 756 988 l 5,127,-1
 662 923 l 5,128,-1
 622 883 l 5,129,-1
 616 889 l 5,130,131
 654 927 654 927 657 929 c 6,132,-1
 752 994 l 5,133,-1
 827 1055 l 5,134,-1
 827 1120 l 5,135,-1
 642 983 l 5,136,137
 553 854 553 854 551 853 c 6,138,-1
 513 827 l 5,139,-1
 513 734 l 5,140,-1
 602 799 l 5,141,-1
 787 939 l 5,142,-1
 827 967 l 5,125,-1
827 1129 m 5,143,-1
 827 1218 l 5,144,-1
 772 1163 l 6,145,146
 706 1098 706 1098 644 1038 c 4,147,148
 586 982 586 982 581 978 c 6,149,-1
 513 925 l 5,150,-1
 513 836 l 5,151,-1
 546 859 l 5,152,153
 636 988 636 988 637 989 c 6,154,-1
 827 1129 l 5,143,-1
827 1230 m 5,155,-1
 827 1328 l 5,156,157
 766 1257 766 1257 756 1248 c 6,158,-1
 549 1060 l 5,159,-1
 508 1027 l 5,160,161
 513 1021 513 1021 513 1012 c 6,162,-1
 513 935 l 5,163,164
 545 960 545 960 576 984 c 5,165,-1
 766 1169 l 5,166,-1
 827 1230 l 5,155,-1
900 385 m 5,167,-1
 947 385 l 5,168,-1
 947 419 l 5,169,170
 923 402 923 402 900 385 c 5,167,-1
888 385 m 5,171,172
 919 407 919 407 940 423 c 5,173,-1
 877 423 l 5,174,175
 858 409 858 409 836 393 c 6,176,-1
 626 248 l 5,177,-1
 513 168 l 5,178,-1
 513 114 l 5,179,180
 711 257 711 257 827 341 c 5,181,-1
 827 360 l 6,182,183
 827 370 827 370 834.5 377.5 c 132,-1,184
 842 385 842 385 852 385 c 6,185,-1
 888 385 l 5,171,172
916 25 m 5,186,-1
 927 34 l 5,187,-1
 927 55 l 5,188,-1
 863 55 l 5,189,-1
 826 25 l 5,190,-1
 916 25 l 5,186,-1
815 25 m 5,191,-1
 852 55 l 5,192,193
 842 54 842 54 834 62 c 4,194,195
 833 63 833 63 833 64 c 6,196,-1
 781 25 l 5,197,-1
 815 25 l 5,191,-1
769 25 m 5,198,-1
 829 70 l 5,199,200
 827 75 827 75 827 80 c 6,201,-1
 827 94 l 5,202,-1
 734 25 l 5,203,-1
 769 25 l 5,198,-1
721 25 m 5,204,-1
 827 103 l 5,205,-1
 827 153 l 5,206,-1
 652 25 l 5,207,-1
 721 25 l 5,204,-1
640 25 m 5,208,-1
 827 162 l 5,209,-1
 827 198 l 5,210,-1
 594 25 l 5,211,-1
 640 25 l 5,208,-1
582 25 m 5,212,-1
 827 207 l 5,213,-1
 827 280 l 5,214,-1
 482 25 l 5,215,-1
 582 25 l 5,212,-1
469 25 m 5,216,-1
 827 290 l 5,217,-1
 827 332 l 5,218,219
 631 191 631 191 513 106 c 5,220,-1
 513 80 l 6,221,222
 513 70 513 70 505.5 62.5 c 132,-1,223
 498 55 498 55 488 55 c 6,224,-1
 443 55 l 5,225,226
 427 44 427 44 413 34 c 5,227,-1
 413 25 l 5,228,-1
 469 25 l 5,216,-1
431 55 m 5,229,-1
 413 55 l 5,230,-1
 413 42 l 5,231,-1
 425 51 l 6,232,233
 428 53 428 53 431 55 c 5,229,-1
513 252 m 5,234,-1
 513 176 l 5,235,-1
 622 254 l 5,236,-1
 832 399 l 5,237,-1
 864 423 l 5,238,-1
 852 423 l 6,239,240
 842 423 842 423 834.5 430.5 c 132,-1,241
 827 438 827 438 827 448 c 6,242,-1
 827 484 l 5,243,-1
 513 252 l 5,234,-1
513 261 m 5,244,-1
 827 493 l 5,245,-1
 827 546 l 5,246,-1
 790 516 l 5,247,-1
 694 436 l 5,248,-1
 597 357 l 5,249,-1
 513 300 l 5,250,-1
 513 261 l 5,244,-1
827 556 m 5,251,-1
 827 603 l 5,252,-1
 512 367 l 6,253,254
 513 364 513 364 513 360 c 6,255,-1
 513 309 l 5,256,-1
 593 363 l 5,257,-1
 784 522 l 5,258,-1
 827 556 l 5,251,-1
509 374 m 5,259,-1
 827 612 l 5,260,-1
 827 662 l 5,261,-1
 460 385 l 5,262,-1
 488 385 l 6,263,264
 498 386 498 386 506 378 c 4,265,266
 508 376 508 376 509 374 c 5,259,-1
378 385 m 5,267,-1
 429 423 l 5,268,-1
 384 423 l 5,269,-1
 330 385 l 5,270,-1
 378 385 l 5,267,-1
318 385 m 5,271,-1
 372 423 l 5,272,-1
 285 423 l 5,273,-1
 234 385 l 5,274,-1
 318 385 l 5,271,-1
EndSplineSet
Validated: 3073
Layer: 3
SplineSet
494 442 m 5,0,-1
 494 1042 l 5,1,-1
 241 442 l 5,2,-1
 494 442 l 5,0,-1
164 366 m 13,3,-1
 164 447 l 29,4,-1
 582 1428 l 5,5,-1
 846 1428 l 5,6,-1
 846 442 l 5,7,-1
 966 442 l 5,8,-1
 966 366 l 5,9,-1
 846 366 l 5,10,-1
 846 74 l 5,11,-1
 946 74 l 5,12,-1
 946 6 l 5,13,-1
 394 6 l 5,14,-1
 394 74 l 5,15,-1
 494 74 l 5,16,-1
 494 366 l 5,17,-1
 164 366 l 13,3,-1
EndSplineSet
EndChar

StartChar: five
Encoding: 53 53 21
Width: 1182
GlyphClass: 2
Flags: W
LayerCount: 4
Back
SplineSet
948 1428 m 5,0,-1
 954 1272 l 6,1,2
 954 1208 954 1208 934 1141 c 132,-1,3
 914.0005 1073.995 914.0005 1073.995 879 1035 c 4,4,5
 817.0005 966 817.0005 966 698 966 c 4,6,7
 612.9995 966 612.9995 966 495 1026 c 4,8,9
 470.974255833 1038.01287208 470.974255833 1038.01287208 416.5 1055 c 132,-1,10
 362.1106 1071.96066667 362.1106 1071.96066667 357 1074 c 5,11,-1
 320 702 l 5,12,13
 398 754.0005 398 754.0005 471 778 c 132,-1,14
 544.0005 802 544.0005 802 629 802 c 132,-1,15
 714.0005 802 714.0005 802 778 780 c 132,-1,16
 842.0005 757.9995 842.0005 757.9995 889 709 c 4,17,18
 986.0005 608.0005 986.0005 608.0005 986 402 c 4,19,20
 986 52.9995 986 52.9995 730 -16 c 4,21,22
 647.9995 -38.00005 647.9995 -38.00005 555 -38 c 132,-1,23
 462 -38 462 -38 393 -24 c 132,-1,24
 324 -10.00005 324 -10.00005 274 25 c 4,25,26
 167.9995 98.99995 167.9995 98.99995 168 270 c 4,27,28
 168 421.0005 168 421.0005 281 479 c 4,29,30
 314 495.9995 314 495.9995 350 496 c 4,31,32
 426.9995 496 426.9995 496 481 433 c 4,33,34
 533.9995 371.9995 533.9995 371.9995 534 270 c 4,35,36
 534 195 534 195 508 144 c 4,37,38
 469 67.99995 469 67.99995 408 36 c 5,39,40
 457.9995 25.99995 457.9995 25.99995 488 26 c 132,-1,41
 518 26 518 26 546 45 c 132,-1,42
 574.0005 64.00005 574.0005 64.00005 594 102 c 4,43,44
 637.9995 186 637.9995 186 638 334 c 4,45,46
 638 644.0005 638 644.0005 444 644 c 4,47,48
 364.9995 644 364.9995 644 270 582 c 5,49,-1
 244 638 l 5,50,-1
 302 1418 l 5,51,52
 353 1416.005 353 1416.005 405.5 1404.5 c 132,-1,53
 457.904718693 1393.01588022 457.904718693 1393.01588022 476 1390 c 6,54,-1
 569 1374.5 l 6,55,56
 644 1362.005 644 1362.005 698 1362 c 4,57,58
 831.0005 1362 831.0005 1362 914 1428 c 5,59,-1
 948 1428 l 5,0,-1
EndSplineSet
Fore
SplineSet
629 802 m 4,0,1
 986 802 986 802 986 402 c 4,2,3
 986 53 986 53 730 -16 c 4,4,5
 648 -38 648 -38 555 -38 c 4,6,7
 364 -38 364 -38 266 30.5 c 132,-1,8
 168 99 168 99 168 260 c 132,-1,9
 168 421 168 421 281 479 c 4,10,11
 314 496 314 496 350 496 c 4,12,13
 427 496 427 496 480.5 434 c 132,-1,14
 534 372 534 372 534 284 c 4,15,16
 534 103 534 103 408 36 c 5,17,18
 458 26 458 26 488 26 c 4,19,20
 554 26 554 26 596 106 c 132,-1,21
 638 186 638 186 638 334 c 4,22,23
 638 644 638 644 444 644 c 4,24,25
 365 644 365 644 270 582 c 5,26,-1
 244 638 l 5,27,-1
 302 1418 l 5,28,29
 353 1416 353 1416 405.5 1404.5 c 132,-1,30
 458 1393 458 1393 476 1390 c 6,31,-1
 569 1374 l 6,32,33
 644 1362 644 1362 698 1362 c 4,34,35
 831 1362 831 1362 914 1428 c 5,36,-1
 948 1428 l 5,37,-1
 954 1272 l 6,38,39
 954 1208 954 1208 934 1141 c 4,40,41
 882 966 882 966 715 966 c 4,42,43
 613 966 613 966 495 1026 c 4,44,45
 471 1038 471 1038 416.5 1055 c 132,-1,46
 362 1072 362 1072 357 1074 c 5,47,-1
 320 702 l 5,48,49
 470 802 470 802 629 802 c 4,0,1
326 1392 m 5,50,51
 326 1392 326 1392 325 1392 c 5,52,-1
 325 1390 l 5,53,54
 325 1391 325 1391 326 1392 c 5,50,51
336 1391 m 5,55,-1
 324 1375 l 5,56,-1
 320 1328 l 5,57,-1
 394 1381 l 5,58,59
 363 1388 363 1388 336 1391 c 5,55,-1
403 1379 m 4,60,61
 361 1349 361 1349 320 1319 c 5,62,-1
 311 1198 l 5,63,64
 344 1220 344 1220 376 1242 c 5,65,-1
 482 1363 l 5,66,-1
 472 1365 l 6,67,68
 454 1368 454 1368 408 1378 c 4,69,70
 406 1379 406 1379 403 1379 c 4,60,61
310 1189 m 5,71,-1
 306 1132 l 5,72,-1
 337 1157 l 5,73,74
 414 1212 414 1212 491 1267 c 5,75,-1
 573 1349 l 5,76,77
 569 1350 569 1350 565 1350 c 6,78,-1
 491 1362 l 5,79,-1
 381 1236 l 5,80,-1
 310 1189 l 5,71,-1
305 1122 m 5,81,-1
 296 1010 l 5,82,-1
 328 1038 l 5,83,84
 330 1056 330 1056 332 1076 c 4,85,86
 333 1085 333 1085 340 1092 c 4,87,88
 352 1104 352 1104 366 1098 c 4,89,90
 378 1095 378 1095 388 1091 c 5,91,-1
 611 1287 l 5,92,-1
 656 1339 l 5,93,94
 623 1341 623 1341 583 1347 c 5,95,96
 499 1263 499 1263 496 1261 c 6,97,-1
 341 1151 l 5,98,-1
 305 1122 l 5,81,-1
768 997 m 5,99,100
 847 1016 847 1016 888 1094 c 5,101,-1
 768 997 l 5,99,100
752 994 m 5,102,-1
 896 1112 l 5,103,104
 904 1129 904 1129 910 1149 c 4,105,106
 917 1173 917 1173 922 1197 c 5,107,108
 864 1147 864 1147 851 1138 c 6,109,-1
 659 995 l 5,110,111
 686 991 686 991 712 991 c 4,112,113
 733 991 733 991 752 994 c 5,102,-1
924 1210 m 5,114,115
 929 1241 929 1241 929 1272 c 6,116,-1
 927 1323 l 5,117,-1
 887 1278 l 5,118,-1
 772 1163 l 6,119,120
 706 1098 706 1098 644 1038 c 4,121,122
 624 1019 624 1019 611 1006 c 5,123,124
 630 1001 630 1001 648 997 c 5,125,-1
 847 1144 l 5,126,-1
 924 1210 l 5,114,115
927 1335 m 5,127,-1
 924 1403 l 5,128,-1
 923 1403 l 5,129,130
 895 1382 895 1382 862 1367 c 5,131,132
 768 1259 768 1259 756 1248 c 6,133,-1
 549 1060 l 5,134,-1
 524 1039 l 5,135,136
 564 1020 564 1020 601 1009 c 5,137,-1
 766 1169 l 5,138,-1
 881 1284 l 5,139,-1
 927 1335 l 5,127,-1
844 1361 m 5,140,141
 796 1343 796 1343 738 1339 c 5,142,-1
 679 1276 l 5,143,144
 539 1139 539 1139 462 1067 c 5,145,146
 490 1057 490 1057 506 1048 c 4,147,148
 509 1046 509 1046 513 1045 c 4,149,150
 528 1055 528 1055 544 1066 c 6,151,-1
 751 1254 l 5,152,-1
 844 1361 l 5,140,141
724 1338 m 5,153,154
 711 1337 711 1337 698 1337 c 4,155,156
 683 1337 683 1337 666 1338 c 5,157,-1
 617 1281 l 5,158,-1
 397 1089 l 5,159,160
 428 1079 428 1079 451 1070 c 5,161,-1
 673 1282 l 6,162,163
 700 1312 700 1312 724 1338 c 5,153,154
303 777 m 5,164,165
 305 800 305 800 308 831 c 5,166,-1
 282 813 l 5,167,-1
 278 761 l 5,168,-1
 303 777 l 5,164,165
302 768 m 5,169,-1
 277 752 l 5,170,-1
 270 650 l 5,171,-1
 282 659 l 5,172,-1
 307 680 l 5,173,174
 304 682 304 682 302 684 c 4,175,176
 294 692 294 692 295 698 c 4,177,178
 295 700 295 700 302 768 c 5,169,-1
309 841 m 5,179,180
 313 885 313 885 319 942 c 5,181,-1
 290 919 l 5,182,-1
 282 823 l 5,183,184
 296 832 296 832 309 841 c 5,179,180
320 953 m 5,185,186
 323 988 323 988 327 1028 c 5,187,-1
 296 1000 l 5,188,-1
 290 929 l 5,189,190
 305 941 305 941 320 953 c 5,185,186
798 38 m 5,191,192
 830 56 830 56 856 80 c 5,193,-1
 798 38 l 5,191,192
764 22 m 5,194,-1
 880 107 l 5,195,196
 897 129 897 129 911 155 c 5,197,-1
 704 3 l 5,198,199
 715 6 715 6 726 9 c 4,200,201
 746 15 746 15 764 22 c 5,194,-1
686 -1 m 5,202,-1
 918 169 l 5,203,204
 932 200 932 200 942 237 c 5,205,-1
 599 -14 l 5,206,207
 643 -10 643 -10 686 -1 c 5,202,-1
586 -15 m 5,208,-1
 945 248 l 5,209,210
 950 269 950 269 953 291 c 5,211,-1
 539 -16 l 5,212,213
 542 -16 542 -16 545 -16 c 4,214,215
 566 -16 566 -16 586 -15 c 5,208,-1
527 -16 m 5,216,-1
 954 301 l 5,217,218
 959 338 959 338 961 379 c 5,219,-1
 640 142 l 5,220,221
 614 60 614 60 560 24 c 4,222,223
 525 1 525 1 476 1 c 4,224,225
 464 1 464 1 451 2 c 5,226,-1
 438 -7 l 5,227,228
 483 -15 483 -15 527 -16 c 5,216,-1
444 435 m 5,229,230
 434 444 434 444 423 451 c 5,231,-1
 271 343 l 5,232,-1
 194 292 l 5,233,234
 193 281 193 281 193 269.5 c 132,-1,235
 193 258 193 258 194 247 c 5,236,-1
 444 435 l 5,229,230
450 430 m 5,237,-1
 194 238 l 5,238,239
 196 217 196 217 199 198 c 5,240,-1
 472 404 l 5,241,242
 467 411 467 411 462 417 c 4,243,244
 456 424 456 424 450 430 c 5,237,-1
417 455 m 5,245,246
 388 471 388 471 355 471 c 4,247,248
 352 471 352 471 350 471 c 6,249,-1
 209 366 l 5,250,251
 198 338 198 338 194 301 c 5,252,-1
 267 349 l 5,253,-1
 417 455 l 5,245,246
336 470 m 5,254,255
 287 463 287 463 244 421 c 4,256,257
 226 403 226 403 214 379 c 5,258,-1
 336 470 l 5,254,255
508 306 m 5,259,260
 506 333 506 333 497 356 c 5,261,-1
 214 145 l 5,262,263
 220 129 220 129 228 115 c 5,264,265
 273 146 273 146 296 163 c 6,266,-1
 508 306 l 5,259,260
232 108 m 5,267,268
 243 89 243 89 258 73 c 5,269,-1
 508 258 l 5,270,271
 509 270 509 270 509 282 c 4,272,273
 509 290 509 290 509 297 c 5,274,-1
 300 157 l 5,275,-1
 232 108 l 5,267,268
495 363 m 5,276,277
 488 381 488 381 477 398 c 5,278,-1
 201 190 l 5,279,280
 205 170 205 170 211 152 c 5,281,-1
 495 363 l 5,276,277
508 249 m 5,282,-1
 263 68 l 5,283,284
 285 46 285 46 313 31 c 5,285,-1
 362 69 l 5,286,-1
 488 158 l 5,287,288
 504 198 504 198 508 249 c 5,282,-1
320 27 m 5,289,290
 341 16 341 16 366 9 c 5,291,-1
 386 23 l 5,292,293
 383 29 383 29 383 40 c 4,294,295
 383 54 383 54 396 58 c 4,296,297
 453 88 453 88 482 145 c 5,298,-1
 366 63 l 5,299,-1
 320 27 l 5,289,290
440 4 m 5,300,301
 433 5 433 5 426 6 c 4,302,303
 399 11 399 11 391 18 c 5,304,305
 382 12 382 12 375 6 c 5,306,307
 387 3 387 3 400 0 c 4,308,309
 414 -3 414 -3 428 -6 c 5,310,-1
 440 4 l 5,300,301
643 154 m 5,311,-1
 961 388 l 5,312,313
 961 396 961 396 961 405 c 4,314,315
 961 417 961 417 961 429 c 5,316,317
 783 300 783 300 655 208 c 5,318,319
 650 179 650 179 643 154 c 5,311,-1
656 218 m 5,320,321
 890 387 890 387 960 438 c 5,322,323
 959 461 959 461 957 483 c 5,324,325
 907 446 907 446 836 393 c 6,326,-1
 661 272 l 5,327,328
 660 244 660 244 656 218 c 5,320,321
956 491 m 5,329,330
 951 532 951 532 941 568 c 5,331,-1
 662 363 l 5,332,333
 663 347 663 347 663 329 c 4,334,335
 663 304 663 304 662 282 c 5,336,-1
 832 399 l 5,337,-1
 956 491 l 5,329,330
662 371 m 5,338,-1
 938 575 l 5,339,340
 930 600 930 600 921 622 c 5,341,-1
 790 516 l 5,342,-1
 694 436 l 5,343,-1
 660 409 l 5,344,345
 661 390 661 390 662 371 c 5,338,-1
917 629 m 5,346,347
 909 644 909 644 900 657 c 5,348,-1
 651 471 l 5,349,350
 656 446 656 446 659 418 c 5,351,-1
 784 522 l 5,352,-1
 917 629 l 5,346,347
649 479 m 5,353,-1
 896 663 l 5,354,355
 884 680 884 680 870 695 c 5,356,-1
 638 520 l 5,357,358
 644 501 644 501 649 479 c 5,353,-1
636 527 m 5,359,-1
 865 700 l 5,360,361
 853 711 853 711 840 721 c 5,362,-1
 622 559 l 5,363,364
 630 544 630 544 636 527 c 5,359,-1
619 565 m 5,365,-1
 833 726 l 5,366,367
 824 732 824 732 814 738 c 5,368,369
 741 683 741 683 609 583 c 5,370,371
 614 574 614 574 619 565 c 5,365,-1
605 589 m 5,372,-1
 807 741 l 5,373,374
 789 751 789 751 768 758 c 4,375,376
 761 761 761 761 753 763 c 5,377,-1
 573 625 l 5,378,379
 591 610 591 610 605 589 c 5,372,-1
568 630 m 5,380,-1
 744 765 l 5,381,382
 710 773 710 773 670 776 c 5,383,-1
 515 658 l 5,384,385
 545 649 545 649 568 630 c 5,380,-1
507 661 m 5,386,387
 583 719 583 719 659 777 c 5,388,389
 648 777 648 777 637 777 c 4,390,391
 633 777 633 777 629 777 c 4,392,393
 605 777 605 777 581 775 c 5,394,395
 533 740 533 740 476 698 c 4,396,397
 456 684 456 684 434 669 c 5,398,399
 439 669 439 669 444 669 c 4,400,401
 478 669 478 669 507 661 c 5,386,387
566 773 m 5,402,403
 448 757 448 757 334 681 c 4,404,405
 326 676 326 676 318 676 c 4,406,407
 316 676 316 676 314 677 c 6,408,-1
 286 653 l 5,409,-1
 270 642 l 5,410,-1
 281 618 l 5,411,412
 354 661 354 661 420 668 c 5,413,-1
 472 704 l 5,414,-1
 566 773 l 5,402,403
EndSplineSet
Validated: 3073
Layer: 3
SplineSet
250 639 m 13,0,-1
 308 1412 l 5,1,2
 355 1409 355 1409 357 1409 c 4,3,-1
 475 1384 l 6,4,-1
 568 1369 l 6,5,6
 649 1356 649 1356 698 1356 c 4,7,8
 832 1356 832 1356 916 1422 c 5,9,-1
 942 1422 l 5,10,-1
 948 1272 l 4,11,12
 948 1213 948 1213 928 1143 c 4,13,14
 908 1077 908 1077 875 1039 c 4,15,16
 814 972 814 972 698 972 c 4,17,18
 615 972 615 972 498 1031 c 4,19,20
 472 1044 472 1044 418 1061 c 4,21,22
 364 1077 364 1077 359 1080 c 6,23,-1
 352 1083 l 5,24,-1
 313 690 l 5,25,-1
 323 697 l 6,26,27
 395 746 395 746 473 772 c 4,28,29
 545 796 545 796 629 796 c 132,-1,30
 713 796 713 796 774 775 c 132,-1,31
 835 754 835 754 880 709 c 4,32,33
 980 610 980 610 980 402 c 4,34,35
 980 177 980 177 873 70 c 4,36,37
 816 13 816 13 731.5 -9.5 c 132,-1,38
 647 -32 647 -32 555 -32 c 132,-1,39
 463 -32 463 -32 394.5 -18 c 132,-1,40
 326 -4 326 -4 277 30 c 4,41,42
 174 102 174 102 174 270 c 4,43,44
 174 378 174 378 233 437 c 4,45,46
 254 459 254 459 284.5 474.5 c 132,-1,47
 315 490 315 490 350 490 c 4,48,49
 424 490 424 490 476 429 c 4,50,51
 528 370 528 370 528 270 c 4,52,53
 528 197 528 197 503 147 c 4,54,55
 466 73 466 73 405 41 c 6,56,-1
 390 33 l 5,57,-1
 407 30 l 6,58,59
 464 20 464 20 488 20 c 4,60,61
 520 20 520 20 549 40 c 132,-1,62
 578 60 578 60 599 99 c 4,63,64
 644 183 644 183 644 334 c 4,65,66
 644 650 644 650 443 650 c 4,67,68
 376 650 376 650 285 598 c 4,0,0
 279 595 279 595 273 591 c 5,1,-1
 250 639 l 13,0,-1
EndSplineSet
EndChar

StartChar: six
Encoding: 54 54 22
Width: 1224
GlyphClass: 2
Flags: W
LayerCount: 4
Back
SplineSet
198 670 m 132,-1,1
 198 776 198 776 207 876 c 132,-1,2
 216 976 216 976 235 1063 c 132,-1,3
 254 1150 254 1150 287 1222 c 132,-1,4
 320 1294 320 1294 370 1346 c 132,-1,5
 420 1398 420 1398 488 1426 c 132,-1,6
 556 1454 556 1454 646 1454 c 4,7,8
 732 1454 732 1454 796 1434 c 132,-1,9
 860 1414 860 1414 904 1377 c 132,-1,10
 948 1340 948 1340 972 1288 c 132,-1,11
 996 1236 996 1236 996 1176 c 4,12,13
 996 1126 996 1126 983 1088 c 132,-1,14
 970 1050 970 1050 949 1024 c 132,-1,15
 928 998 928 998 897 984 c 132,-1,16
 866 970 866 970 832 970 c 260,17,18
 796 970 796 970 765 984 c 132,-1,19
 734 998 734 998 710 1024 c 132,-1,20
 686 1050 686 1050 674 1088 c 132,-1,21
 662 1126 662 1126 662 1176 c 4,22,23
 662 1256 662 1256 693 1303 c 132,-1,24
 724 1350 724 1350 784 1366 c 5,25,26
 770 1370 770 1370 753 1372 c 132,-1,27
 736 1374 736 1374 722 1374 c 4,28,29
 670 1374 670 1374 638 1349 c 132,-1,30
 606 1324 606 1324 589 1260 c 132,-1,31
 572 1196 572 1196 566 1092 c 132,-1,32
 560 988 560 988 558 832 c 5,33,34
 578 846 578 846 602 860 c 132,-1,35
 626 874 626 874 653 886 c 132,-1,36
 680 898 680 898 708 905 c 132,-1,37
 736 912 736 912 762 912 c 4,38,39
 824 912 824 912 875 880 c 132,-1,40
 926 848 926 848 961 792 c 132,-1,41
 996 736 996 736 1015 658 c 132,-1,42
 1034 580 1034 580 1034 486 c 4,43,44
 1034 424 1034 424 1027 362 c 132,-1,45
 1020 300 1020 300 1002 241 c 132,-1,46
 984 182 984 182 955 132 c 132,-1,47
 926 82 926 82 883 44 c 132,-1,48
 840 6 840 6 781 -16 c 132,-1,49
 722 -38 722 -38 648 -38 c 4,50,51
 562 -38 562 -38 495 -15 c 132,-1,52
 428 8 428 8 379 51 c 132,-1,53
 330 94 330 94 295 156 c 132,-1,54
 260 218 260 218 239 296 c 132,-1,55
 218 374 218 374 208 469 c 132,-1,56
 198 564 198 564 198 670 c 132,-1,1
636 40 m 4,57,58
 652 40 652 40 669 53 c 132,-1,59
 686 66 686 66 699 102 c 132,-1,60
 712 138 712 138 720 199 c 132,-1,61
 728 260 728 260 728 358 c 4,62,63
 728 452 728 452 722 523 c 132,-1,64
 716 594 716 594 702 640 c 132,-1,65
 688 686 688 686 666 709 c 132,-1,66
 644 732 644 732 612 732 c 4,67,68
 586 732 586 732 558 718 c 5,69,-1
 558 698 l 6,70,71
 558 536 558 536 559 413 c 132,-1,72
 560 290 560 290 568 207 c 132,-1,73
 576 124 576 124 592 82 c 132,-1,74
 608 40 608 40 636 40 c 4,57,58
EndSplineSet
Fore
SplineSet
636 40 m 0,0,1
 728 40 728 40 728 358 c 0,2,3
 728 555 728 555 708 620.5 c 128,-1,4
 688 686 688 686 666 709 c 128,-1,5
 644 732 644 732 615 732 c 128,-1,6
 586 732 586 732 558 718 c 1,7,-1
 558 698 l 2,8,9
 558 311 558 311 567 217 c 0,10,11
 584 40 584 40 636 40 c 0,0,1
558 832 m 1,12,13
 672 912 672 912 748 912 c 128,-1,14
 824 912 824 912 875 880 c 128,-1,15
 926 848 926 848 961 792 c 0,16,17
 1034 675 1034 675 1034 486 c 0,18,19
 1034 78 1034 78 781 -16 c 0,20,21
 722 -38 722 -38 642 -38 c 128,-1,22
 562 -38 562 -38 495 -15 c 128,-1,23
 428 8 428 8 379 51 c 128,-1,24
 330 94 330 94 295 156 c 128,-1,25
 260 218 260 218 239 296 c 128,-1,26
 218 374 218 374 208 469 c 128,-1,27
 198 564 198 564 198 670 c 128,-1,28
 198 776 198 776 207 876 c 128,-1,29
 216 976 216 976 235 1063 c 128,-1,30
 254 1150 254 1150 287 1222 c 128,-1,31
 320 1294 320 1294 370 1346 c 0,32,33
 474 1454 474 1454 646 1454 c 0,34,35
 895 1454 895 1454 972 1288 c 0,36,37
 996 1236 996 1236 996 1181 c 128,-1,38
 996 1126 996 1126 983 1088 c 128,-1,39
 970 1050 970 1050 949 1024 c 0,40,41
 905 970 905 970 832 970 c 0,42,43
 760 970 760 970 710 1024 c 0,44,45
 662 1076 662 1076 662 1176 c 0,46,47
 662 1333 662 1333 784 1366 c 1,48,49
 756 1374 756 1374 713 1374 c 128,-1,50
 670 1374 670 1374 638 1349 c 128,-1,51
 606 1324 606 1324 589 1260 c 0,52,53
 562 1159 562 1159 558 832 c 1,12,13
256 333 m 1,54,55
 260 316 260 316 265 300 c 1,56,-1
 534 502 l 1,57,58
 534 515 534 515 534 529 c 1,59,-1
 271 343 l 1,60,-1
 256 333 l 1,54,55
534 538 m 1,61,62
 534 567 534 567 533 597 c 1,63,-1
 366 483 l 1,64,-1
 244 392 l 1,65,66
 249 365 249 365 255 341 c 1,67,-1
 267 349 l 1,68,-1
 534 538 l 1,61,62
533 606 m 1,69,70
 533 638 533 638 533 672 c 1,71,-1
 436 598 l 1,72,-1
 235 459 l 1,73,74
 239 429 239 429 243 400 c 1,75,-1
 362 489 l 1,76,-1
 533 606 l 1,69,70
533 681 m 1,77,78
 533 690 533 690 533 698 c 2,79,-1
 533 718 l 2,80,81
 533 736 533 736 547 740 c 0,82,83
 580 757 580 757 612 757 c 2,84,-1
 613 757 l 2,85,86
 622 757 622 757 631 755 c 1,87,88
 715 819 715 819 799 883 c 1,89,90
 780 887 780 887 758 887 c 0,91,92
 743 887 743 887 726 883 c 1,93,-1
 606 793 l 2,94,95
 549 750 549 750 476 698 c 0,96,97
 383 634 383 634 228 526 c 1,98,99
 230 496 230 496 234 467 c 1,100,-1
 432 604 l 2,101,102
 482 643 482 643 533 681 c 1,77,78
525 1413 m 1,103,104
 446 1390 446 1390 391 1332 c 0,105,106
 337 1275 337 1275 302 1193 c 1,107,108
 339 1218 339 1218 376 1242 c 1,109,-1
 525 1413 l 1,103,104
297 1181 m 1,110,111
 283 1146 283 1146 271 1105 c 1,112,-1
 337 1157 l 1,113,114
 414 1212 414 1212 491 1267 c 1,115,-1
 601 1377 l 1,116,-1
 642 1429 l 1,117,118
 587 1429 587 1429 540 1417 c 1,119,-1
 381 1236 l 1,120,-1
 297 1181 l 1,110,111
268 1094 m 1,121,122
 264 1079 264 1079 261 1063 c 0,123,124
 251 1019 251 1019 244 972 c 1,125,126
 266 987 266 987 287 1002 c 2,127,-1
 558 1240 l 2,128,129
 558 1244 558 1244 560 1250 c 0,130,131
 584 1338 584 1338 622 1368 c 0,132,133
 653 1392 653 1392 707 1398 c 1,134,-1
 729 1423 l 1,135,136
 694 1428 694 1428 653 1429 c 1,137,-1
 607 1371 l 1,138,139
 499 1263 499 1263 496 1261 c 2,140,-1
 341 1151 l 1,141,-1
 268 1094 l 1,121,122
879 1003 m 1,142,-1
 926 1036 l 2,143,144
 928 1038 928 1038 930 1040 c 0,145,146
 970 1091 970 1091 971 1160 c 0,147,148
 971 1164 971 1164 971 1168 c 1,149,-1
 917 1118 l 1,150,-1
 777 1005 l 1,151,152
 800 995 800 995 830 995 c 0,153,154
 856 995 856 995 879 1003 c 1,142,-1
971 1179 m 1,155,156
 970 1208 970 1208 963 1234 c 1,157,-1
 952 1223 l 1,158,159
 867 1150 867 1150 851 1138 c 2,160,-1
 725 1044 l 1,161,162
 743 1022 743 1022 770 1009 c 1,163,-1
 911 1124 l 1,164,-1
 971 1179 l 1,155,156
961 1244 m 1,165,166
 949 1287 949 1287 925 1320 c 1,167,-1
 887 1278 l 1,168,-1
 772 1163 l 2,169,170
 735 1126 735 1126 699 1091 c 1,171,172
 707 1068 707 1068 720 1050 c 1,173,-1
 847 1144 l 1,174,-1
 946 1229 l 1,175,-1
 961 1244 l 1,165,166
919 1327 m 1,176,177
 897 1354 897 1354 867 1374 c 1,178,-1
 862 1368 l 2,179,180
 768 1259 768 1259 756 1248 c 2,181,-1
 687 1186 l 1,182,183
 687 1180 687 1180 687 1173 c 0,184,185
 687 1132 687 1132 696 1101 c 1,186,-1
 766 1169 l 1,187,-1
 881 1284 l 1,188,-1
 919 1327 l 1,176,177
860 1379 m 1,189,190
 834 1395 834 1395 802 1406 c 1,191,-1
 788 1391 l 1,192,193
 809 1383 809 1383 809 1366 c 0,194,195
 809 1344 809 1344 790 1342 c 0,196,197
 696 1316 696 1316 688 1197 c 1,198,-1
 751 1254 l 1,199,-1
 856 1374 l 1,200,-1
 860 1379 l 1,189,190
777 1395 m 1,201,202
 784 1403 784 1403 791 1409 c 1,203,204
 790 1409 790 1409 789 1410 c 0,205,206
 766 1417 766 1417 739 1422 c 1,207,-1
 719 1399 l 1,208,209
 727 1399 727 1399 735 1399 c 0,210,211
 760 1399 760 1399 777 1395 c 1,201,202
547 1161 m 1,212,213
 551 1200 551 1200 555 1227 c 1,214,-1
 291 996 l 1,215,-1
 242 962 l 1,216,217
 236 924 236 924 233 883 c 1,218,219
 302 939 302 939 371 994 c 1,220,-1
 547 1161 l 1,212,213
232 873 m 1,221,222
 228 830 228 830 226 785 c 1,223,-1
 232 789 l 2,224,225
 277 819 277 819 321 849 c 1,226,-1
 436 979 l 2,227,228
 467 1015 467 1015 540 1063 c 1,229,230
 542 1110 542 1110 545 1146 c 1,231,232
 404 1010 404 1010 376 988 c 2,233,-1
 232 873 l 1,221,222
533 850 m 1,234,235
 534 899 534 899 535 942 c 1,236,-1
 356 803 l 1,237,-1
 223 718 l 1,238,239
 223 695 223 695 223 672 c 0,240,241
 223 645 223 645 224 618 c 1,242,-1
 282 659 l 1,243,-1
 402 759 l 1,244,-1
 533 850 l 1,234,235
224 610 m 1,245,246
 225 571 225 571 227 534 c 1,247,-1
 472 704 l 1,248,-1
 602 799 l 1,249,-1
 708 879 l 1,250,251
 651 863 651 863 572 812 c 0,252,253
 554 801 554 801 543.5 811.5 c 128,-1,254
 533 822 533 822 533 832 c 0,255,256
 533 836 533 836 533 841 c 1,257,-1
 406 753 l 1,258,-1
 286 653 l 1,259,-1
 224 610 l 1,245,246
535 952 m 1,260,261
 536 1006 536 1006 539 1052 c 1,262,-1
 442 973 l 1,263,-1
 356 876 l 2,264,265
 329 845 329 845 326 843 c 2,266,-1
 236 783 l 1,267,-1
 225 776 l 1,268,269
 224 751 224 751 224 727 c 1,270,-1
 352 809 l 1,271,272
 443 880 443 880 535 952 c 1,260,261
640 753 m 1,273,274
 667 745 667 745 688 722 c 1,275,-1
 864 858 l 1,276,277
 863 859 863 859 862 859 c 0,278,279
 838 874 838 874 809 881 c 1,280,-1
 640 753 l 1,273,274
983 682 m 1,281,282
 978 698 978 698 973 712 c 1,283,-1
 746 542 l 1,284,285
 747 534 747 534 747 526 c 0,286,287
 748 511 748 511 749 493 c 1,288,-1
 784 522 l 1,289,-1
 983 682 l 1,281,282
750 483 m 1,290,291
 751 462 751 462 752 437 c 1,292,-1
 997 619 l 1,293,294
 992 648 992 648 985 674 c 1,295,-1
 790 516 l 1,296,-1
 750 483 l 1,290,291
745 550 m 1,297,-1
 971 719 l 1,298,299
 963 739 963 739 953 757 c 1,300,-1
 738 595 l 1,301,302
 742 574 742 574 745 550 c 1,297,-1
737 603 m 1,303,-1
 950 764 l 1,304,305
 942 778 942 778 933 791 c 1,306,-1
 729 638 l 1,307,308
 733 621 733 621 737 603 c 1,303,-1
726 646 m 1,309,-1
 929 797 l 1,310,311
 922 807 922 807 913 816 c 1,312,-1
 821 743 l 2,313,314
 780 712 780 712 719 666 c 1,315,316
 723 657 723 657 726 646 c 1,309,-1
908 821 m 1,317,318
 891 839 891 839 871 853 c 1,319,-1
 693 716 l 1,320,321
 707 698 707 698 717 673 c 1,322,-1
 817 749 l 1,323,-1
 908 821 l 1,317,318
752 429 m 1,324,325
 753 391 753 391 753 344 c 1,326,-1
 1007 529 l 1,327,328
 1004 572 1004 572 999 611 c 1,329,-1
 752 429 l 1,324,325
753 336 m 1,330,331
 753 326 753 326 753 316 c 0,332,333
 753 301 753 301 753 288 c 1,334,335
 986 458 986 458 990 460 c 0,336,337
 995 464 995 464 1009 473 c 1,338,339
 1009 497 1009 497 1008 520 c 1,340,341
 1008 520 1008 520 753 336 c 1,330,331
738 141 m 1,342,-1
 998 334 l 1,343,344
 1005 373 1005 373 1007 414 c 1,345,-1
 750 223 l 1,346,347
 746 175 746 175 738 141 c 1,342,-1
735 130 m 1,348,349
 732 121 732 121 730 114 c 0,350,351
 724 96 724 96 718 82 c 1,352,-1
 986 279 l 1,353,354
 992 301 992 301 996 323 c 1,355,-1
 735 130 l 1,348,349
751 233 m 1,356,-1
 1008 423 l 1,357,358
 1009 443 1009 443 1009 464 c 1,359,-1
 989 449 l 2,360,361
 858 354 858 354 753 278 c 1,362,363
 752 254 752 254 751 233 c 1,356,-1
817 27 m 1,364,-1
 895 90 l 1,365,366
 912 109 912 109 926 132 c 1,367,-1
 745 -2 l 1,368,369
 784 8 784 8 817 27 c 1,364,-1
727 -6 m 1,370,-1
 936 148 l 1,371,372
 947 167 947 167 956 188 c 1,373,-1
 684 -12 l 1,374,375
 706 -10 706 -10 727 -6 c 1,370,-1
670 -12 m 1,376,-1
 961 201 l 1,377,378
 970 224 970 224 978 249 c 0,379,380
 981 258 981 258 983 268 c 1,381,-1
 711 68 l 1,382,383
 698 42 698 42 684 32 c 0,384,385
 661 15 661 15 638 15 c 1,386,-1
 603 -11 l 1,387,388
 625 -13 625 -13 648 -13 c 0,389,390
 659 -13 659 -13 670 -12 c 1,376,-1
627 16 m 1,391,392
 611 18 611 18 598 28 c 1,393,-1
 554 -5 l 1,394,395
 572 -8 572 -8 592 -10 c 1,396,-1
 627 16 l 1,391,392
593 33 m 1,397,398
 580 44 580 44 572 66 c 0,399,400
 568 76 568 76 565 87 c 1,401,-1
 474 20 l 1,402,403
 507 6 507 6 544 -3 c 1,404,-1
 593 33 l 1,397,398
563 94 m 1,405,406
 558 113 558 113 553 135 c 1,407,408
 477 80 477 80 428 45 c 1,409,410
 446 33 446 33 467 23 c 1,411,-1
 563 94 l 1,405,406
552 143 m 1,412,413
 548 165 548 165 545 191 c 1,414,-1
 387 78 l 1,415,416
 391 74 391 74 395 70 c 0,417,418
 408 59 408 59 422 49 c 1,419,-1
 425 51 l 2,420,421
 493 100 493 100 552 143 c 1,412,413
540 272 m 1,422,-1
 344 127 l 1,423,424
 362 102 362 102 381 83 c 1,425,-1
 544 199 l 2,426,427
 544 202 544 202 544 204 c 0,428,429
 542 230 542 230 540 272 c 1,422,-1
539 281 m 1,430,431
 538 298 538 298 538 317 c 1,432,-1
 317 169 l 1,433,434
 327 150 327 150 339 133 c 1,435,-1
 539 281 l 1,430,431
538 326 m 1,436,437
 537 353 537 353 536 385 c 1,438,-1
 298 207 l 1,439,440
 306 190 306 190 314 175 c 1,441,-1
 538 326 l 1,436,437
536 394 m 1,442,443
 536 417 536 417 535 442 c 1,444,-1
 281 250 l 1,445,446
 288 231 288 231 295 214 c 1,447,-1
 536 394 l 1,442,443
535 451 m 1,448,449
 535 471 535 471 534 493 c 1,450,-1
 267 293 l 1,451,452
 272 275 272 275 278 257 c 1,453,-1
 535 451 l 1,448,449
EndSplineSet
Validated: 3073
Layer: 3
SplineSet
637 34 m 4,0,1
 655 34 655 34 673 48 c 132,-1,2
 691 62 691 62 705 100 c 4,3,4
 734 181 734 181 734 356 c 4,5,6
 734 453 734 453 728 524 c 4,7,8
 716 666 716 666 670 714 c 4,9,10
 647 738 647 738 612 738 c 4,11,12
 585 738 585 738 552 722 c 5,13,-1
 552 718 l 5,14,-1
 552 698 l 6,15,16
 552 536 552 536 553 413 c 4,17,18
 555 162 555 162 586 80 c 4,19,20
 604 34 604 34 637 34 c 4,0,1
245 298 m 4,21,22
 204 450 204 450 204 671.5 c 132,-1,23
 204 893 204 893 241 1062 c 4,24,25
 280 1245 280 1245 374 1342 c 4,26,27
 424 1393 424 1393 492 1421 c 4,28,29
 557 1448 557 1448 646 1448 c 4,30,31
 810 1448 810 1448 900 1372 c 4,32,33
 943 1336 943 1336 966.5 1285.5 c 132,-1,34
 990 1235 990 1235 990 1176 c 4,35,36
 990 1127 990 1127 977.5 1090 c 132,-1,37
 965 1053 965 1053 944.5 1028 c 132,-1,38
 924 1003 924 1003 894.5 989.5 c 132,-1,39
 865 976 865 976 831 976 c 132,-1,40
 797 976 797 976 768.5 989 c 132,-1,41
 740 1002 740 1002 719 1023 c 4,42,43
 668 1074 668 1074 668 1176 c 4,44,45
 668 1329 668 1329 786 1360 c 6,46,-1
 807 1366 l 5,47,-1
 786 1372 l 6,48,49
 757 1380 757 1380 722 1380 c 4,50,51
 668 1380 668 1380 634 1354 c 132,-1,52
 600 1328 600 1328 582 1258 c 4,53,54
 566 1197 566 1197 560 1092.5 c 132,-1,55
 554 988 554 988 552 820 c 5,56,57
 581 841 581 841 605 855 c 4,58,59
 693 906 693 906 762 906 c 4,60,61
 822 906 822 906 872 875 c 4,62,63
 971 812 971 812 1009 656 c 4,64,65
 1028 579 1028 579 1028 486 c 4,66,67
 1028 347 1028 347 996 243 c 4,68,69
 962 130 962 130 895 63 c 4,70,71
 846 15 846 15 779 -10 c 4,72,73
 721 -32 721 -32 648 -32 c 4,74,75
 483 -32 483 -32 383 56 c 4,76,77
 288 140 288 140 245 298 c 4,21,22
EndSplineSet
EndChar

StartChar: seven
Encoding: 55 55 23
Width: 1134
GlyphClass: 2
Flags: W
LayerCount: 4
Back
SplineSet
822 1152 m 4,0,1
 784 1118 784 1118 729 1088 c 132,-1,2
 673.9995 1058 673.9995 1058 617 1050 c 4,3,4
 564 1043 564 1043 551 1043 c 4,5,6
 550 1044 550 1044 549 1044 c 4,7,8
 538 1044 538 1044 521 1045 c 132,-1,9
 504 1046 504 1046 458 1046 c 132,-1,10
 412 1046 412 1046 412 1050 c 4,11,12
 412 1052 412 1052 368 1055 c 132,-1,13
 324.0005 1058 324.0005 1058 294 1058 c 4,14,15
 280.0005 1058 280.0005 1058 270 1026 c 4,16,17
 259.798010712 993.360367253 259.798010712 993.360367253 251 965.5 c 4,18,19
 242 937 242 937 242 838 c 5,20,-1
 200 838 l 5,21,-1
 200 1442 l 5,22,-1
 246 1442 l 5,23,-1
 246 1360 l 5,24,25
 319.9995 1448.005 319.9995 1448.005 433 1448 c 4,26,27
 479.9995 1448 479.9995 1448 589.5 1411 c 132,-1,28
 699 1373.995 699 1373.995 754 1374 c 4,29,30
 842.9995 1374 842.9995 1374 912 1454 c 5,31,-1
 964 1454 l 5,32,-1
 964 1178 l 6,33,34
 964 1164.005 964 1164.005 924 1056 c 4,35,36
 883.9995 949.9995 883.9995 949.9995 862 886 c 132,-1,37
 839.9995 821.9995 839.9995 821.9995 816 753 c 4,38,39
 694.0005 400.9995 694.0005 400.9995 694 244 c 4,40,41
 694 -38 694 -38 530 -38 c 4,42,43
 450.0005 -38 450.0005 -38 402 39 c 132,-1,44
 354 115.99995 354 115.99995 354 212 c 132,-1,45
 354 308 354 308 370 371 c 132,-1,46
 386.0005 434 386.0005 434 420 507 c 132,-1,47
 454.0005 580.0005 454.0005 580.0005 517 662 c 132,-1,48
 580 744.0005 580 744.0005 702.5 874 c 132,-1,49
 825.0005 1004.0005 825.0005 1004.0005 858 1089 c 4,50,51
 880.0005 1146 880.0005 1146 880 1167 c 4,52,53
 880 1178 880 1178 875 1180 c 4,54,55
 873.0005 1181.005 873.0005 1181.005 870 1180 c 4,56,57
 853.9995 1181.005 853.9995 1181.005 822 1152 c 4,0,1
EndSplineSet
Fore
SplineSet
551 1043 m 0,0,1
 550 1044 550 1044 481 1044 c 128,-1,2
 412 1044 412 1044 412 1051 c 128,-1,3
 412 1058 412 1058 294 1058 c 0,4,5
 280 1058 280 1058 270 1026 c 128,-1,6
 260 994 260 994 251 966 c 128,-1,7
 242 938 242 938 242 838 c 1,8,-1
 200 838 l 1,9,-1
 200 1442 l 1,10,-1
 246 1442 l 1,11,-1
 246 1360 l 1,12,13
 320 1448 320 1448 433 1448 c 0,14,15
 480 1448 480 1448 589.5 1411 c 128,-1,16
 699 1374 699 1374 754 1374 c 0,17,18
 843 1374 843 1374 912 1454 c 1,19,-1
 964 1454 l 1,20,-1
 964 1178 l 2,21,22
 964 1164 964 1164 924 1057 c 128,-1,23
 884 950 884 950 862 886 c 128,-1,24
 840 822 840 822 816 753 c 0,25,26
 694 401 694 401 694 244 c 0,27,28
 694 -38 694 -38 530 -38 c 0,29,30
 450 -38 450 -38 402 39 c 128,-1,31
 354 116 354 116 354 212 c 128,-1,32
 354 308 354 308 370 371 c 128,-1,33
 386 434 386 434 420 507 c 128,-1,34
 454 580 454 580 517 662 c 128,-1,35
 580 744 580 744 702.5 874 c 128,-1,36
 825 1004 825 1004 852.5 1075 c 128,-1,37
 880 1146 880 1146 880 1164.5 c 128,-1,38
 880 1183 880 1183 870 1180 c 1,39,40
 854 1182 854 1182 819 1150 c 0,41,42
 701 1044 701 1044 551 1043 c 0,0,1
544 -12 m 1,43,44
 606 -6 606 -6 637 57 c 1,45,-1
 544 -12 l 1,43,44
531 -13 m 2,46,-1
 643 71 l 1,47,48
 658 108 658 108 665 160 c 1,49,-1
 461 10 l 1,50,51
 491 -13 491 -13 530 -13 c 0,52,53
 531 -13 531 -13 531 -13 c 2,46,-1
666 170 m 1,54,55
 668 192 668 192 669 218 c 1,56,57
 512 105 512 105 428 45 c 1,58,59
 441 27 441 27 455 15 c 1,60,-1
 666 170 l 1,54,55
669 227 m 1,61,62
 669 235 669 235 669 244 c 0,63,64
 669 260 669 260 670 279 c 1,65,-1
 626 248 l 1,66,-1
 403 90 l 1,67,68
 412 72 412 72 422 55 c 0,69,70
 423 53 423 53 424 51 c 1,71,-1
 425 51 l 2,72,73
 564 151 564 151 669 227 c 1,61,62
684 378 m 1,74,-1
 384 157 l 1,75,76
 389 125 389 125 400 96 c 1,77,-1
 622 254 l 1,78,-1
 671 288 l 1,79,80
 675 328 675 328 684 378 c 1,74,-1
686 389 m 1,81,82
 691 414 691 414 696 438 c 9,83,-1
 597 357 l 1,84,-1
 379 210 l 1,85,86
 379 187 379 187 382 165 c 1,87,-1
 686 389 l 1,81,82
699 451 m 1,88,89
 707 484 707 484 717 520 c 1,90,-1
 381 269 l 1,91,92
 380 245 380 245 379 219 c 1,93,-1
 593 363 l 1,94,-1
 699 451 l 1,88,89
720 532 m 1,95,96
 728 563 728 563 738 595 c 1,97,-1
 387 330 l 1,98,99
 383 306 383 306 381 279 c 1,100,-1
 720 532 l 1,95,96
742 607 m 1,101,102
 750 633 750 633 758 660 c 1,103,-1
 403 394 l 1,104,105
 398 380 398 380 394 366 c 0,106,107
 391 354 391 354 389 341 c 1,108,-1
 742 607 l 1,101,102
762 673 m 1,109,110
 768 690 768 690 774 707 c 1,111,112
 704 654 704 654 596 573 c 1,113,-1
 423 450 l 1,114,115
 414 427 414 427 407 407 c 1,116,-1
 762 673 l 1,109,110
778 719 m 1,117,118
 785 739 785 739 792 761 c 2,119,-1
 807 804 l 1,120,-1
 571 623 l 1,121,-1
 476 558 l 1,122,123
 457 526 457 526 443 496 c 0,124,125
 435 479 435 479 428 463 c 1,126,-1
 592 579 l 1,127,-1
 778 719 l 1,117,118
811 817 m 1,128,129
 811 818 811 818 826 860 c 2,130,131
 834 884 834 884 843 907 c 1,132,-1
 597 721 l 1,133,134
 562 680 562 680 538 648 c 0,135,136
 509 610 509 610 486 573 c 1,137,-1
 567 629 l 1,138,-1
 811 817 l 1,128,129
847 920 m 1,139,140
 859 954 859 954 872 989 c 1,141,-1
 791 933 l 1,142,-1
 784 928 l 1,143,144
 756 896 756 896 722 859 c 0,145,146
 664 798 664 798 620 747 c 1,147,148
 734 833 734 833 847 920 c 1,139,140
877 1001 m 1,149,150
 888 1030 888 1030 898 1058 c 0,151,152
 913 1097 913 1097 922 1123 c 1,153,-1
 917 1118 l 1,154,-1
 886 1093 l 1,155,156
 882 1080 882 1080 876 1066 c 0,157,158
 858 1019 858 1019 802 949 c 1,159,-1
 877 1001 l 1,149,150
928 1140 m 1,160,161
 938 1164 938 1164 938 1168 c 0,162,163
 939 1172 939 1172 938 1211 c 1,164,165
 919 1194 919 1194 904 1182 c 1,166,167
 905 1176 905 1176 905 1168 c 0,168,169
 905 1150 905 1150 891 1108 c 1,170,-1
 911 1124 l 1,171,-1
 928 1140 l 1,160,161
939 1223 m 1,172,173
 939 1264 939 1264 939 1336 c 1,174,-1
 887 1278 l 1,175,-1
 772 1163 l 2,176,177
 746 1137 746 1137 720 1112 c 1,178,179
 766 1136 766 1136 805 1171 c 128,-1,180
 844 1206 844 1206 874 1206 c 0,181,182
 878 1206 878 1206 892 1200 c 0,183,184
 898 1197 898 1197 901 1190 c 1,185,-1
 939 1223 l 1,172,173
939 1349 m 1,186,187
 939 1385 939 1385 939 1429 c 1,188,-1
 923 1429 l 1,189,190
 903 1407 903 1407 881 1391 c 1,191,-1
 862 1368 l 2,192,193
 768 1259 768 1259 756 1248 c 2,194,-1
 558 1068 l 1,195,196
 633 1073 633 1073 695 1100 c 1,197,-1
 766 1169 l 1,198,-1
 881 1284 l 1,199,-1
 939 1349 l 1,186,187
331 1399 m 1,200,201
 294 1379 294 1379 265 1344 c 0,202,203
 257 1335 257 1335 245 1335 c 128,-1,204
 233 1335 233 1335 225 1346 c 1,205,-1
 225 1302 l 1,206,-1
 311 1372 l 1,207,208
 322 1387 322 1387 331 1399 c 1,200,201
225 1292 m 1,209,-1
 225 1252 l 1,210,-1
 312 1322 l 1,211,-1
 402 1387 l 2,212,213
 425 1405 425 1405 447 1422 c 1,214,215
 439 1423 439 1423 433 1423 c 0,216,217
 386 1423 386 1423 347 1407 c 1,218,-1
 317 1366 l 1,219,-1
 225 1292 l 1,209,-1
520 1407 m 1,220,221
 483 1417 483 1417 457 1421 c 1,222,-1
 406 1381 l 2,223,224
 361 1349 361 1349 316 1316 c 2,225,-1
 225 1242 l 1,226,-1
 225 1142 l 1,227,228
 301 1191 301 1191 376 1242 c 1,229,-1
 520 1407 l 1,220,221
225 1134 m 1,230,-1
 225 1070 l 1,231,-1
 242 1082 l 1,232,-1
 337 1157 l 1,233,234
 414 1212 414 1212 491 1267 c 1,235,-1
 601 1377 l 1,236,-1
 603 1380 l 1,237,238
 594 1383 594 1383 586 1386 c 0,239,240
 555 1397 555 1397 528 1404 c 1,241,-1
 381 1236 l 1,242,-1
 225 1134 l 1,230,-1
674 1360 m 1,243,244
 646 1367 646 1367 612 1377 c 1,245,-1
 607 1371 l 1,246,247
 499 1263 499 1263 496 1261 c 2,248,-1
 341 1151 l 1,249,-1
 246 1076 l 2,250,251
 235 1068 235 1068 225 1061 c 1,252,-1
 225 965 l 1,253,-1
 243 1024 l 2,254,255
 261 1083 261 1083 293 1083 c 0,256,257
 344 1083 344 1083 376 1081 c 1,258,-1
 611 1287 l 1,259,-1
 674 1360 l 1,243,244
387 1080 m 1,260,261
 414 1077 414 1077 424 1072 c 0,262,263
 429 1071 429 1071 452 1071 c 1,264,-1
 673 1282 l 2,265,266
 707 1319 707 1319 735 1350 c 1,267,268
 712 1352 712 1352 684 1358 c 1,269,-1
 617 1281 l 1,270,-1
 387 1080 l 1,260,261
467 1071 m 1,271,272
 477 1071 477 1071 490 1071 c 0,273,274
 532 1071 532 1071 548 1069 c 1,275,-1
 751 1254 l 1,276,-1
 856 1374 l 1,277,-1
 858 1376 l 1,278,279
 810 1349 810 1349 754 1349 c 0,280,281
 751 1349 751 1349 748 1349 c 2,282,-1
 679 1276 l 1,283,284
 543 1143 543 1143 467 1071 c 1,271,272
EndSplineSet
Validated: 3073
Layer: 3
SplineSet
958 1448 m 5,0,-1
 958 1178 l 6,1,2
 958 1165 958 1165 918 1058 c 4,3,4
 878 952 878 952 856 888 c 6,5,-1
 810 755 l 6,6,7
 688 402 688 402 688 244 c 4,8,9
 688 68 688 68 624 4 c 4,10,11
 588 -32 588 -32 530 -32 c 4,12,13
 453 -32 453 -32 407 42 c 4,14,15
 360 118 360 118 360 212.5 c 132,-1,16
 360 307 360 307 376 369.5 c 132,-1,17
 392 432 392 432 425.5 504.5 c 132,-1,18
 459 577 459 577 522 658.5 c 132,-1,19
 585 740 585 740 708 870.5 c 132,-1,20
 831 1001 831 1001 864 1087 c 4,21,22
 886 1145 886 1145 886 1167 c 4,23,24
 886 1178 886 1178 882 1182 c 132,-1,25
 878 1186 878 1186 873 1187 c 4,26,27
 849 1186 849 1186 816 1154 c 4,28,29
 785 1126 785 1126 726 1094 c 4,30,31
 672 1064 672 1064 620 1056 c 4,32,33
 560 1048 560 1048 521 1051 c 4,34,35
 409 1059 409 1059 358 1062 c 4,36,37
 319 1064 319 1064 294 1064 c 4,38,39
 286 1064 286 1064 278.5 1056.5 c 132,-1,40
 271 1049 271 1049 264 1028 c 4,41,42
 264 1027 264 1027 245 967 c 4,43,44
 236 939 236 939 236 844 c 5,45,-1
 206 844 l 5,46,-1
 206 1436 l 5,47,-1
 240 1436 l 5,48,-1
 240 1344 l 5,49,-1
 251 1356 l 6,50,51
 323 1442 323 1442 433 1442 c 4,52,53
 479 1442 479 1442 588.5 1405 c 132,-1,54
 698 1368 698 1368 754 1368 c 4,55,56
 845 1368 845 1368 915 1448 c 5,57,-1
 958 1448 l 5,0,-1
EndSplineSet
EndChar

StartChar: eight
Encoding: 56 56 24
Width: 1196
GlyphClass: 2
Flags: W
LayerCount: 4
Back
SplineSet
178 313 m 4,0,1
 178 425.0005 178 425.0005 231 499 c 4,2,3
 256.0005 533.9995 256.0005 533.9995 318.5 585 c 132,-1,4
 381.0005 636 381.0005 636 419 654 c 5,5,6
 249.9995 856.0005 249.9995 856.0005 230 1033 c 4,7,8
 222.9995 1093 222.9995 1093 228 1125 c 4,9,10
 241.0005 1198.995 241.0005 1198.995 241.75 1202.75 c 4,11,12
 248.998731245 1262.99861041 248.998731245 1262.99861041 312 1332 c 4,13,14
 423 1453.995 423 1453.995 602 1454 c 4,15,16
 852.0005 1454 852.0005 1454 928 1284 c 4,17,18
 953.9995 1225.995 953.9995 1225.995 954 1138 c 4,19,20
 954 985 954 985 793 810 c 5,21,22
 806.0005 810 806.0005 810 847 757.5 c 4,23,24
 884.9995 709.0005 884.9995 709.0005 905.943 684.057 c 4,25,26
 963 613.9995 963 613.9995 982 563 c 4,27,28
 1025.995 441.9995 1025.995 441.9995 1020 387 c 4,29,30
 997.005 154.9995 997.005 154.9995 901 68.5 c 4,31,32
 782.9995 -38 782.9995 -38 560 -38 c 4,33,34
 405.9995 -38 405.9995 -38 302 41 c 4,35,36
 177.9995 135.9995 177.9995 135.9995 178 313 c 4,0,1
668 912 m 5,37,38
 698 958 698 958 728 1034 c 132,-1,39
 758 1110 758 1110 758 1168 c 4,40,41
 758 1368.73 758 1368.73 638 1382 c 4,42,43
 569 1389.995 569 1389.995 516 1322 c 4,44,45
 482 1278 482 1278 477 1249 c 132,-1,46
 472 1220 472 1220 472 1179 c 4,47,48
 472 1113 472 1113 530 1043 c 132,-1,49
 588.0005 972.9995 588.0005 972.9995 668 912 c 5,37,38
440 440 m 5,50,51
 393.9995 378.9995 393.9995 378.9995 394 296 c 6,52,-1
 395 258 l 6,53,54
 396.0005 220.0005 396.0005 220.0005 410 171 c 4,55,56
 438.9995 72 438.9995 72 493 43 c 4,57,58
 521.9995 28 521.9995 28 552 28 c 6,59,-1
 592 28 l 6,60,61
 629.9995 29.99995 629.9995 29.99995 674 61 c 4,62,63
 716 92.00005 716 92.00005 731 124 c 132,-1,64
 746 155.9995 746 155.9995 745 169 c 5,65,66
 739 182.0005 739 182.0005 735 218 c 4,67,68
 720 350 720 350 522 535 c 5,69,-1
 440 440 l 5,50,51
EndSplineSet
Fore
SplineSet
178 313 m 0,0,1
 178 425 178 425 231 499 c 0,2,3
 256 534 256 534 318.5 585 c 128,-1,4
 381 636 381 636 419 654 c 1,5,6
 250 856 250 856 230 1033 c 0,7,8
 227 1059 227 1059 227 1085 c 0,9,10
 227 1143 227 1143 242 1203 c 1,11,12
 249 1263 249 1263 312 1332 c 0,13,14
 423 1454 423 1454 602 1454 c 0,15,16
 852 1454 852 1454 928 1284 c 0,17,18
 954 1226 954 1226 954 1138 c 0,19,20
 954 985 954 985 793 810 c 1,21,22
 806 810 806 810 845.5 760 c 128,-1,23
 885 710 885 710 924 662 c 0,24,25
 962 614 962 614 994 528 c 0,26,27
 1020 456 1020 456 1021 405 c 0,28,29
 1021 395 1021 395 1020 387 c 0,30,31
 997 154 997 154 901 68 c 0,32,33
 783 -38 783 -38 560 -38 c 0,34,35
 406 -38 406 -38 302 41 c 0,36,37
 178 136 178 136 178 313 c 0,0,1
668 912 m 1,38,39
 698 958 698 958 728 1034 c 128,-1,40
 758 1110 758 1110 758 1168 c 0,41,42
 758 1369 758 1369 638 1382 c 0,43,44
 631 1383 631 1383 624 1383 c 0,45,46
 564 1383 564 1383 516 1322 c 0,47,48
 482 1278 482 1278 477 1249 c 128,-1,49
 472 1220 472 1220 472 1166.5 c 128,-1,50
 472 1113 472 1113 530 1043 c 128,-1,51
 588 973 588 973 668 912 c 1,38,39
440 440 m 1,52,53
 394 379 394 379 394 296 c 2,54,-1
 395 258 l 2,55,56
 396 220 396 220 410 171 c 0,57,58
 452 28 452 28 552 28 c 2,59,-1
 592 28 l 2,60,61
 630 30 630 30 674 61 c 0,62,63
 716 92 716 92 731 124 c 128,-1,64
 746 156 746 156 745 169 c 1,65,66
 739 182 739 182 735 218 c 0,67,68
 720 350 720 350 522 535 c 1,69,-1
 440 440 l 1,52,53
634 907 m 1,70,71
 619 919 619 919 606 930 c 1,72,73
 553 853 553 853 551 853 c 2,74,-1
 406 753 l 1,75,-1
 386 736 l 1,76,77
 408 706 408 706 432 677 c 1,78,-1
 472 704 l 1,79,-1
 602 799 l 1,80,-1
 787 939 l 1,81,-1
 905 1021 l 1,82,83
 927 1077 927 1077 929 1129 c 1,84,-1
 917 1118 l 1,85,-1
 756 988 l 1,86,-1
 727 968 l 1,87,88
 708 927 708 927 689 898 c 0,89,90
 682 887 682 887 671 887 c 128,-1,91
 660 887 660 887 653 892 c 0,92,93
 647 897 647 897 641 902 c 1,94,-1
 622 883 l 1,95,-1
 616 889 l 1,96,97
 626 899 626 899 634 907 c 1,70,71
599 936 m 1,98,99
 581 951 581 951 566 966 c 1,100,-1
 356 803 l 1,101,-1
 346 796 l 1,102,103
 363 769 363 769 382 742 c 1,104,-1
 402 759 l 1,105,-1
 546 859 l 1,106,107
 578 906 578 906 599 936 c 1,98,99
560 972 m 1,108,109
 531 1001 531 1001 510 1028 c 1,110,-1
 442 973 l 1,111,-1
 356 876 l 2,112,113
 329 845 329 845 326 843 c 2,114,-1
 321 840 l 1,115,116
 331 822 331 822 342 803 c 1,117,-1
 352 809 l 1,118,119
 456 890 456 890 560 972 c 1,108,109
502 1037 m 1,120,121
 486 1058 486 1058 475 1079 c 1,122,123
 396 1004 396 1004 376 988 c 2,124,-1
 286 916 l 1,125,126
 299 882 299 882 317 846 c 1,127,128
 319 847 319 847 321 849 c 2,129,-1
 436 979 l 2,130,131
 458 1005 458 1005 502 1037 c 1,120,121
470 1089 m 1,132,133
 458 1114 458 1114 452 1137 c 1,134,-1
 291 996 l 1,135,-1
 266 978 l 1,136,137
 273 951 273 951 283 923 c 1,138,139
 327 958 327 958 371 994 c 1,140,-1
 470 1089 l 1,132,133
450 1146 m 1,141,142
 447 1163 447 1163 447 1179 c 0,143,144
 447 1205 447 1205 449 1228 c 1,145,-1
 341 1151 l 1,146,-1
 251 1080 l 1,147,148
 252 1034 252 1034 264 986 c 1,149,150
 276 994 276 994 287 1002 c 2,151,-1
 450 1146 l 1,141,142
450 1238 m 1,152,153
 450 1244 450 1244 452 1255 c 0,154,155
 458 1288 458 1288 504 1348 c 0,156,157
 552 1408 552 1408 618 1408 c 0,158,159
 622 1408 622 1408 625 1408 c 2,160,-1
 641 1428 l 1,161,162
 622 1429 622 1429 602 1429 c 0,163,164
 574 1429 574 1429 547 1426 c 1,165,-1
 381 1236 l 1,166,-1
 261 1157 l 1,167,-1
 251 1090 l 2,168,169
 251 1090 251 1090 251 1089 c 1,170,-1
 337 1157 l 1,171,-1
 450 1238 l 1,152,153
535 1424 m 1,172,173
 413 1405 413 1405 331 1315 c 0,174,175
 273 1252 273 1252 267 1200 c 2,176,-1
 262 1166 l 1,177,178
 319 1204 319 1204 376 1242 c 1,179,-1
 535 1424 l 1,172,173
894 1298 m 1,180,181
 876 1330 876 1330 850 1354 c 1,182,183
 799 1295 799 1295 775 1268 c 1,184,185
 782 1232 782 1232 783 1186 c 1,186,-1
 881 1284 l 1,187,-1
 894 1298 l 1,180,181
783 1174 m 2,188,189
 783 1171 783 1171 783 1168 c 0,190,191
 783 1131 783 1131 772 1089 c 1,192,-1
 847 1144 l 1,193,-1
 923 1210 l 1,194,195
 915 1255 915 1255 898 1290 c 1,196,-1
 887 1278 l 1,197,-1
 783 1174 l 2,188,189
843 1360 m 1,198,199
 820 1380 820 1380 791 1393 c 1,200,-1
 745 1345 l 1,201,202
 763 1320 763 1320 773 1279 c 1,203,-1
 843 1360 l 1,198,199
780 1398 m 1,204,205
 758 1408 758 1408 733 1414 c 1,206,-1
 705 1382 l 1,207,208
 720 1372 720 1372 734 1359 c 0,209,210
 737 1356 737 1356 739 1354 c 1,211,212
 761 1378 761 1378 780 1398 c 1,204,205
723 1417 m 1,213,214
 690 1425 690 1425 652 1427 c 1,215,-1
 636 1407 l 1,216,217
 669 1403 669 1403 698 1387 c 1,218,-1
 723 1417 l 1,213,214
929 1141 m 1,219,220
 929 1172 929 1172 925 1200 c 1,221,222
 864 1148 864 1148 851 1138 c 2,223,-1
 769 1077 l 1,224,225
 762 1052 762 1052 752 1026 c 0,226,227
 743 1002 743 1002 733 981 c 1,228,-1
 752 994 l 1,229,-1
 911 1124 l 1,230,-1
 929 1141 l 1,219,220
853 924 m 1,231,232
 882 967 882 967 899 1008 c 1,233,-1
 791 933 l 1,234,-1
 606 793 l 2,235,236
 549 750 549 750 476 698 c 0,237,238
 458 685 458 685 437 671 c 1,239,240
 437 670 437 670 438 670 c 0,241,242
 444 664 444 664 444 651 c 128,-1,243
 444 638 444 638 419.5 626 c 128,-1,244
 395 614 395 614 334.5 565.5 c 128,-1,245
 274 517 274 517 251 484 c 0,246,247
 248 480 248 480 245 475 c 1,248,-1
 432 604 l 1,249,250
 643 764 643 764 853 924 c 1,231,232
236 460 m 1,251,252
 215 422 215 422 208 374 c 1,253,-1
 362 489 l 1,254,-1
 567 629 l 1,255,-1
 776 790 l 1,256,257
 768 796 768 796 768 810 c 0,258,259
 768 820 768 820 775 827 c 0,260,261
 811 866 811 866 839 904 c 1,262,-1
 436 598 l 1,263,-1
 236 460 l 1,251,252
820 752 m 1,264,265
 798 779 798 779 788 785 c 0,266,267
 786 785 786 785 783 786 c 2,268,-1
 571 623 l 1,269,-1
 366 483 l 1,270,-1
 206 364 l 1,271,272
 203 340 203 340 203 313 c 0,273,274
 203 310 203 310 203 307 c 1,275,-1
 267 349 l 1,276,-1
 425 461 l 1,277,-1
 504 553 l 2,278,279
 511 560 511 560 521.5 560 c 128,-1,280
 532 560 532 560 539 553 c 0,281,282
 543 550 543 550 546 546 c 1,283,-1
 592 579 l 1,284,-1
 817 749 l 1,285,-1
 820 752 l 1,264,265
551 541 m 1,286,287
 559 533 559 533 567 526 c 1,288,-1
 838 729 l 1,289,290
 836 732 836 732 834 736 c 0,291,292
 830 742 830 742 825 746 c 1,293,-1
 821 743 l 2,294,295
 744 685 744 685 596 573 c 1,296,-1
 551 541 l 1,286,287
863 698 m 1,297,298
 853 711 853 711 843 724 c 1,299,-1
 572 521 l 1,300,301
 584 509 584 509 596 497 c 1,302,-1
 863 698 l 1,297,298
867 693 m 1,303,-1
 601 492 l 1,304,305
 615 477 615 477 628 463 c 1,306,-1
 893 661 l 1,307,308
 879 677 879 677 867 693 c 1,303,-1
946 581 m 1,309,310
 935 604 935 604 922 623 c 1,311,-1
 790 516 l 1,312,-1
 694 436 l 1,313,-1
 667 415 l 1,314,315
 677 402 677 402 687 389 c 1,316,-1
 946 581 l 1,309,310
949 574 m 1,317,-1
 691 384 l 1,318,319
 712 354 712 354 726 326 c 1,320,-1
 832 399 l 1,321,-1
 976 506 l 1,322,323
 973 516 973 516 969 526 c 0,324,325
 960 552 960 552 949 574 c 1,317,-1
917 629 m 1,326,327
 910 638 910 638 904 647 c 0,328,329
 901 651 901 651 897 655 c 1,330,-1
 633 457 l 1,331,332
 649 439 649 439 663 421 c 1,333,-1
 784 522 l 1,334,-1
 917 629 l 1,326,327
996 414 m 1,335,-1
 996 422 l 2,336,337
 996 434 996 434 992 451 c 1,338,-1
 989 449 l 2,339,340
 854 352 854 352 748 275 c 1,341,342
 754 256 754 256 757 238 c 1,343,-1
 996 414 l 1,335,-1
995 405 m 1,344,-1
 759 230 l 2,345,346
 760 226 760 226 760 221 c 0,347,348
 764 190 764 190 767 182 c 0,349,350
 770 176 770 176 770 165 c 1,351,-1
 987 325 l 1,352,353
 992 355 992 355 995 389 c 2,354,-1
 995 405 l 1,344,-1
990 459 m 1,355,356
 986 476 986 476 979 499 c 1,357,358
 923 458 923 458 836 393 c 2,359,-1
 729 319 l 1,360,361
 738 300 738 300 745 282 c 1,362,363
 984 454 984 454 990 459 c 1,355,356
985 315 m 1,364,-1
 769 155 l 1,365,366
 766 142 766 142 753 112 c 0,367,368
 752 109 752 109 750 106 c 1,369,-1
 976 272 l 1,370,371
 981 292 981 292 985 315 c 1,364,-1
777 22 m 1,372,373
 839 46 839 46 884 87 c 0,374,375
 902 104 902 104 918 126 c 1,376,-1
 777 22 l 1,372,373
754 14 m 1,377,-1
 929 143 l 1,378,379
 940 161 940 161 949 183 c 1,380,-1
 699 -0 l 1,381,382
 728 6 728 6 754 14 c 1,377,-1
683 -3 m 1,383,-1
 954 196 l 1,384,385
 965 226 965 226 974 261 c 1,386,-1
 740 89 l 1,387,388
 722 64 722 64 689 41 c 1,389,-1
 688 41 l 1,390,391
 661 22 661 22 635 12 c 1,392,-1
 602 -12 l 1,393,394
 645 -10 645 -10 683 -3 c 1,383,-1
589 -13 m 1,395,-1
 614 6 l 1,396,397
 603 4 603 4 593 3 c 2,398,-1
 564 3 l 1,399,-1
 543 -13 l 1,400,401
 551 -13 551 -13 560 -13 c 0,402,403
 575 -13 575 -13 589 -13 c 1,395,-1
532 -12 m 1,404,-1
 552 3 l 1,405,406
 511 3 511 3 478 23 c 1,407,-1
 448 0 l 1,408,409
 488 -10 488 -10 532 -12 c 1,404,-1
439 3 m 1,410,-1
 472 27 l 1,411,412
 456 38 456 38 441 54 c 1,413,414
 413 34 413 34 392 19 c 1,415,416
 415 10 415 10 439 3 c 1,410,-1
437 59 m 1,417,418
 424 75 424 75 413 96 c 1,419,-1
 366 63 l 1,420,-1
 342 44 l 1,421,422
 363 31 363 31 385 22 c 1,423,-1
 425 51 l 2,424,425
 431 55 431 55 437 59 c 1,417,418
409 103 m 1,426,427
 396 128 396 128 387 160 c 1,428,-1
 287 86 l 1,429,430
 296 76 296 76 308 68 c 0,431,432
 321 58 321 58 336 49 c 1,433,-1
 362 69 l 1,434,-1
 409 103 l 1,426,427
282 91 m 1,435,-1
 385 167 l 1,436,437
 379 188 379 188 375 208 c 1,438,-1
 300 157 l 1,439,-1
 254 124 l 1,440,441
 267 107 267 107 282 91 c 1,435,-1
374 216 m 1,442,443
 370 238 370 238 370 257 c 2,444,-1
 370 261 l 1,445,-1
 234 159 l 1,446,447
 241 144 241 144 250 131 c 1,448,449
 279 151 279 151 296 163 c 2,450,-1
 374 216 l 1,442,443
231 166 m 1,451,-1
 370 270 l 1,452,-1
 369 286 l 1,453,-1
 369 296 l 2,454,455
 369 307 369 307 370 317 c 1,456,-1
 217 202 l 1,457,458
 223 183 223 183 231 166 c 1,451,-1
215 210 m 1,459,-1
 371 327 l 1,460,461
 374 354 374 354 381 378 c 1,462,-1
 208 248 l 1,463,464
 210 229 210 229 215 210 c 1,459,-1
206 257 m 1,465,-1
 385 390 l 1,466,467
 395 417 395 417 411 442 c 1,468,-1
 271 343 l 1,469,-1
 203 299 l 1,470,471
 203 277 203 277 206 257 c 1,465,-1
EndSplineSet
Validated: 3073
Layer: 3
SplineSet
751 167 m 4,0,1
 752 168 752 168 751 171 c 4,2,3
 744 192 744 192 741 219 c 4,4,5
 727 340 727 340 564 503 c 4,6,7
 546 521 546 521 522 544 c 5,8,-1
 435 444 l 5,9,10
 388 381 388 381 388 286 c 30,11,-1
 389 258 l 6,12,13
 391 215 391 215 404 169 c 4,14,15
 433 68 433 68 490 38 c 4,16,17
 523 21 523 21 566 21 c 5,18,19
 633 23 633 23 678 56 c 4,20,21
 720 88 720 88 736 121 c 4,22,23
 751 152 751 152 751 167 c 4,0,1
466 1179 m 4,24,25
 466 1111 466 1111 524.5 1039.5 c 132,-1,26
 583 968 583 968 669 903 c 5,27,-1
 673 909 l 6,28,29
 703 955 703 955 733.5 1032 c 132,-1,30
 764 1109 764 1109 764 1168 c 4,31,32
 764 1374 764 1374 639 1388 c 4,33,34
 631 1389 631 1389 624 1389 c 4,35,36
 560 1389 560 1389 511 1326 c 4,37,38
 476 1280 476 1280 471 1250.5 c 132,-1,39
 466 1221 466 1221 466 1179 c 4,24,25
184 313 m 4,40,41
 184 423 184 423 236 496 c 4,42,43
 260 530 260 530 322.5 580.5 c 132,-1,44
 385 631 385 631 422 649 c 6,45,-1
 429 652 l 5,46,-1
 424 658 l 6,47,48
 256 859 256 859 236 1034 c 4,49,50
 232 1068 232 1068 232 1089.5 c 132,-1,51
 232 1111 232 1111 234 1124 c 4,52,53
 259 1266 259 1266 316 1328 c 4,54,55
 426 1448 426 1448 602 1448 c 4,56,57
 849 1448 849 1448 923 1282 c 4,58,59
 948 1225 948 1225 948 1138 c 4,60,61
 948 987 948 987 789 814 c 6,62,-1
 779 804 l 5,63,-1
 793 804 l 6,64,65
 803 804 803 804 852 742 c 4,66,67
 880 705 880 705 901 680 c 4,68,69
 957 611 957 611 976 561 c 4,70,71
 1015 455 1015 455 1015 401 c 4,72,73
 1015 394 1015 394 1014 388 c 4,74,75
 991 158 991 158 897 73 c 4,76,77
 781 -32 781 -32 560 -32 c 4,78,79
 408 -32 408 -32 306 46 c 4,80,81
 184 139 184 139 184 313 c 4,40,41
EndSplineSet
EndChar

